<svg width="90" height="63" viewBox="0 0 90 63" fill="none" xmlns="http://www.w3.org/2000/svg">
<path d="M76.3583 45.8214C76.0079 49.4931 73.9875 52.9666 70.9906 55.1389C70.7161 55.3387 70.4344 55.5283 70.1439 55.7048C67.2447 57.4676 63.8536 58.0176 60.4142 57.9452C58.5033 57.9047 56.5764 57.6731 54.7137 57.3504C54.3429 57.2867 53.975 57.2201 53.6042 57.1478C53.2334 57.0783 52.8612 57.0059 52.4904 56.9321C50.2613 56.4921 48.0336 56.003 45.8001 55.6614C44.3271 55.4356 42.8513 55.2764 41.371 55.2374C41.3579 55.2374 41.3433 55.2359 41.3301 55.2374C40.5637 55.2156 39.7944 55.2301 39.0266 55.2837C37.7463 55.3734 36.4807 55.5731 35.2194 55.8119C34.6384 55.919 34.0588 56.0377 33.4807 56.1535C32.9275 56.2664 32.3757 56.3793 31.8209 56.4864C30.7684 56.6904 29.7568 56.8655 28.7758 57.0059L28.7685 57.0074C27.4941 57.1883 26.2766 57.3084 25.0912 57.3417C24.3818 57.3649 23.684 57.3547 22.9949 57.3084C21.6417 57.2216 20.3191 56.9972 18.9951 56.6007C18.9907 56.6007 18.9878 56.5992 18.9878 56.5992C16.7543 56.3503 12.3661 54.2069 11.1223 52.2256C9.80118 50.1212 9.13405 47.6869 8.66837 45.2526C8.58078 44.7866 8.49757 44.3191 8.41874 43.8545C8.38371 43.6404 8.34867 43.4276 8.31509 43.2149C7.82314 40.1712 7.59395 37.831 8.591 34.8163C10.3676 29.4455 14.5412 24.8229 19.8753 22.749C22.9351 21.5579 26.3525 21.1179 29.0342 19.2306C33.4983 16.0901 34.6749 9.86822 38.7565 6.24859C41.7768 3.56969 45.984 2.67672 50.0189 2.26859C53.3969 1.92414 56.8377 1.85322 60.1675 2.52331C64.0535 3.30484 68.503 5.28326 70.5249 8.82474C72.6912 12.618 73.2693 17.1552 72.9073 21.4464C72.662 24.3467 71.9774 27.4019 72.6328 30.2936C73.1686 32.6469 74.497 34.7642 75.1437 37.1334C75.9174 39.9715 76.64 42.8936 76.3597 45.8199L76.3583 45.8214Z" fill="#FFB4A3"/>
<path d="M65.5554 43.8575V45.2556H8.66955C8.58196 44.7896 8.49875 44.3221 8.41992 43.8575H65.5554Z" fill="#524F50"/>
<path d="M69.8746 45.2529V55.1378C69.6002 55.3375 69.3184 55.5271 69.0279 55.7037C66.4426 57.2754 63.4646 57.8818 60.4121 57.9441C58.5012 57.9035 56.5743 57.672 54.7116 57.3492C54.3408 57.2855 53.9729 57.219 53.6021 57.1466C53.2313 57.0771 52.8591 57.0048 52.4883 56.931V45.2515H69.8761L69.8746 45.2529Z" fill="#D8D8D8"/>
<path d="M69.8746 45.2529V55.1378C69.6002 55.3375 69.3184 55.5271 69.0279 55.7037C66.4426 57.2754 63.4646 57.8818 60.4121 57.9441C58.5012 57.9035 56.5743 57.672 54.7116 57.3492C54.3408 57.2855 53.9729 57.219 53.6021 57.1466C53.2313 57.0771 52.8591 57.0048 52.4883 56.931V45.2515H69.8761L69.8746 45.2529Z" fill="#CCCCCC"/>
<path d="M75.5811 43.8575H57.4766V45.2556H75.5811V43.8575Z" fill="#D8D8D8"/>
<path d="M70.9918 45.2529V55.1378C70.7174 55.3375 70.4356 55.5271 70.1451 55.7037C65.6343 58.4463 59.925 58.2538 54.7149 57.3492C54.3441 57.2855 53.9763 57.219 53.6055 57.1466V45.2515H70.9933L70.9918 45.2529Z" fill="#979797"/>
<path d="M61.6644 43.8529H52.7596L51.1406 37.0175H60.0455L61.6644 43.8529Z" fill="#68E1FD"/>
<path d="M61.1834 43.8529H52.2771L50.6582 37.0175H59.563L61.1834 43.8529Z" fill="#68E1FD"/>
<path d="M61.1834 43.8529H52.2771L50.6582 37.0175H59.563L61.1834 43.8529Z" fill="url(#paint0_linear_348_8929)"/>
<path d="M68.8781 19.3068H42.9563C41.426 19.3068 40.1855 20.5366 40.1855 22.0537V36.4251C40.1855 37.9422 41.426 39.172 42.9563 39.172H68.8781C70.4083 39.172 71.6488 37.9422 71.6488 36.4251V22.0537C71.6488 20.5366 70.4083 19.3068 68.8781 19.3068Z" fill="#5A5E5E"/>
<path d="M68.2238 19.3068H42.302C40.7717 19.3068 39.5312 20.5366 39.5312 22.0537V36.4251C39.5312 37.9422 40.7717 39.172 42.302 39.172H68.2238C69.754 39.172 70.9945 37.9422 70.9945 36.4251V22.0537C70.9945 20.5366 69.754 19.3068 68.2238 19.3068Z" fill="#68E1FD"/>
<path d="M68.2238 19.3068H42.302C40.7717 19.3068 39.5312 20.5366 39.5312 22.0537V36.4251C39.5312 37.9422 40.7717 39.172 42.302 39.172H68.2238C69.754 39.172 70.9945 37.9422 70.9945 36.4251V22.0537C70.9945 20.5366 69.754 19.3068 68.2238 19.3068Z" fill="#231F20"/>
<path d="M70.9901 35.2319V36.4259C70.9901 37.9412 69.7493 39.1729 68.2194 39.1729H42.2961C40.7677 39.1729 39.5254 37.9427 39.5254 36.4259V35.2319H70.9887H70.9901Z" fill="url(#paint1_linear_348_8929)"/>
<path d="M68.0206 20.5989H42.3577C41.4223 20.5989 40.6641 21.3572 40.6641 22.2926V32.0754C40.6641 33.0108 41.4223 33.7691 42.3577 33.7691H68.0206C68.956 33.7691 69.7143 33.0108 69.7143 32.0754V22.2926C69.7143 21.3572 68.956 20.5989 68.0206 20.5989Z" fill="white"/>
<path d="M53.6701 22.5169C53.6694 22.5176 53.6701 22.5187 53.671 22.5184C54.3655 22.2682 55.1317 22.3054 55.8692 22.4054C56.2819 22.4597 56.7032 22.537 57.064 22.7487C58.2473 23.444 57.9702 24.4368 58.077 25.5241C58.1116 25.8818 58.3021 26.2451 58.634 26.3853C58.8591 26.4797 59.1304 26.4712 59.3209 26.6228C59.5344 26.7945 59.5633 27.1121 59.4998 27.3782C59.4363 27.6443 59.3006 27.8903 59.2487 28.1593C59.2285 28.2652 59.2227 28.3825 59.2833 28.4683C59.3641 28.5885 59.5315 28.6085 59.6672 28.6629C59.9962 28.7945 60.1722 29.1607 60.2213 29.5098C60.2703 29.8589 60.2213 30.2136 60.253 30.5656C60.2732 30.7888 60.3252 31.0091 60.3108 31.2294C60.2646 31.9132 59.5777 32.4111 58.8937 32.4969C58.2097 32.5827 57.5286 32.3567 56.8735 32.1421C56.2184 31.9275 55.5315 31.7101 54.8504 31.8188C54.1145 31.9361 53.3353 32.4139 52.683 32.0534C52.3021 31.8445 52.1116 31.3925 52.1001 30.9604C52.0885 30.5284 52.227 30.1078 52.3685 29.7015C52.4146 29.5699 52.4579 29.424 52.4002 29.2981C52.3511 29.1922 52.2415 29.1292 52.1491 29.0549C51.1967 28.3195 51.5459 25.5298 51.9471 24.5828C52.3045 23.7398 52.7338 22.8513 53.6691 22.5155C53.67 22.5151 53.6707 22.5163 53.6701 22.5169Z" fill="#C14834"/>
<path d="M57.6933 29.9281C57.6942 29.9281 57.6952 29.9282 57.6961 29.9284C58.322 30.0511 59.0284 29.9942 59.5389 30.3601C59.8477 30.5976 60.0555 30.9381 60.1276 31.3187C60.194 31.6906 60.2113 32.0683 60.1825 32.446L60.142 33.559C60.1479 33.64 60.0735 33.7116 59.9924 33.7089C59.9874 33.7088 59.9825 33.7084 59.9775 33.7078L51.5635 33.7376C50.8034 33.7403 50.0687 33.2018 50.2859 32.4733C50.3421 32.2847 50.4232 32.1023 50.5287 31.931C50.8087 31.4703 51.0684 31.0125 51.5071 30.6777C52.0959 30.2343 53.4696 30.1971 54.1161 29.8337C54.2835 29.7393 54.1334 29.6048 54.321 29.5561C54.5086 29.5075 54.4278 29.2843 54.6125 29.2815C55.1406 29.2815 55.8015 29.2128 56.3152 29.353C56.7996 29.4902 57.1745 29.8245 57.6904 29.9278C57.6913 29.928 57.6923 29.9281 57.6933 29.9281Z" fill="#D6B939"/>
<path d="M53.9078 30.2529C53.9078 30.2539 53.9076 30.2549 53.9073 30.2559C53.8556 30.4099 53.824 30.5668 53.8125 30.7265C53.8096 31.0985 54.0059 31.4418 54.3262 31.6307C54.6495 31.8138 55.042 31.8338 55.3825 31.6822C55.7519 31.5019 56.0348 31.1843 56.1704 30.8009C56.3032 30.4204 56.3695 30.0169 56.3667 29.6135C56.3789 29.1576 56.3579 28.7018 56.3038 28.2494C56.2845 28.0874 56.309 27.9057 56.2159 27.7717C56.1646 27.6977 56.0832 27.6443 55.9857 27.6307C55.938 27.6248 55.8894 27.6283 55.8413 27.6261C55.1957 27.5967 54.628 27.877 54.3609 28.5005C54.2945 28.6951 54.2512 28.8982 54.2281 29.1014C54.1474 29.4872 54.0177 29.8673 53.9081 30.2503C53.9079 30.2511 53.9078 30.252 53.9078 30.2529Z" fill="#FFB4A3"/>
<path d="M54.1434 29.4382C54.1434 29.438 54.1431 29.4377 54.1431 29.4379C54.1392 29.475 54.0947 29.9379 54.3107 30.1136C54.5359 30.2968 55.4247 30.7259 55.8548 30.1251C55.8882 30.0763 55.9201 30.0266 55.9506 29.9762C56.2522 29.4765 55.7324 28.9938 55.1703 29.1511L54.1435 29.4383C54.1434 29.4384 54.1434 29.4383 54.1434 29.4382Z" fill="url(#paint2_linear_348_8929)"/>
<path d="M52.9119 27.8159C52.9128 27.8168 52.9135 27.8178 52.9139 27.8191C53.0311 28.182 53.7143 29.4486 54.6565 29.68C56.6882 30.1807 57.3058 26.6327 57.2048 25.8888C57.1327 25.3481 56.6825 24.6242 56.2698 24.2665C55.7791 23.8373 55.023 23.8059 54.4227 24.0576C52.8245 24.7326 52.4029 26.271 52.9098 27.8125C52.9102 27.8138 52.9109 27.8149 52.9119 27.8159Z" fill="#FFB4A3"/>
<path d="M54.3238 25.3703C54.3248 25.3703 54.3257 25.3704 54.3266 25.3707C54.505 25.4224 54.685 25.4685 54.8663 25.5087C55.3051 25.6059 55.6496 25.9554 55.7307 26.3975C55.748 26.5005 55.7711 26.6063 55.826 26.6979C55.9125 26.8352 56.0713 26.9153 56.23 26.944C56.3887 26.9726 56.5561 26.9583 56.7177 26.9411C56.7899 26.9325 56.8707 26.9297 56.9284 26.9754C56.9602 27.0012 56.9775 27.0412 56.9948 27.0813C57.0758 27.271 57.1567 27.4608 57.2395 27.6505C57.2682 27.7164 57.3471 27.7789 57.37 27.7108C57.3815 27.6764 57.37 27.6364 57.3642 27.602C57.3209 27.3388 57.4998 27.0956 57.6066 26.8524C57.8837 26.2258 57.699 25.499 57.4652 24.8581C57.3555 24.5634 57.2343 24.2658 57.041 24.0169C56.6138 23.4704 55.8952 23.2272 55.1997 23.15C54.8534 23.1128 54.4926 23.1099 54.1723 23.2387C53.7134 23.4218 53.344 23.9225 53.3267 24.4175C53.3065 24.9405 53.894 25.2437 54.321 25.3699C54.3219 25.3702 54.3228 25.3703 54.3238 25.3703Z" fill="#C14834"/>
<path d="M41.772 53.1416C41.7939 53.8783 41.6392 54.5759 41.3647 55.2387C41.3516 55.2387 41.337 55.2373 41.3239 55.2387C40.5575 55.217 39.7882 55.2315 39.0203 55.2851C37.74 55.3748 36.4744 55.5745 35.2131 55.8133C34.6321 55.9204 34.0526 56.0391 33.4745 56.1549C32.9212 56.2678 32.3694 56.3806 31.8147 56.4877C30.7622 56.6918 29.7505 56.8669 28.7695 57.0073C27.517 56.4791 26.3798 55.6758 25.4528 54.6425C25.3536 54.531 25.2572 54.4196 25.1623 54.3038C25.0426 54.1547 24.9288 53.9984 24.8236 53.8349C24.5142 53.3645 24.2762 52.8435 24.2178 52.3066C24.193 52.0851 24.1988 51.8608 24.2412 51.6379C24.3886 50.8738 24.9507 50.2659 25.5857 49.797C25.6543 49.7463 25.7229 49.6957 25.793 49.6494C27.355 48.5885 28.9578 48.2325 30.5709 48.2701C30.7125 48.2745 30.8556 48.2817 30.9957 48.2918C31.8891 48.3483 32.7869 48.5176 33.6862 48.7448C35.0817 49.098 36.4758 49.5944 37.8539 50.0315C38.8729 50.3021 39.8495 50.7131 40.7531 51.2573C41.0115 51.4223 41.2377 51.6321 41.4173 51.8811C41.6538 52.2588 41.7779 52.6959 41.772 53.1402V53.1416Z" fill="#231F20"/>
<path d="M41.3265 55.2405C40.5601 55.2188 39.7908 55.2333 39.0229 55.2868C37.7426 55.3765 36.477 55.5763 35.2157 55.8151C34.6347 55.9222 34.0552 56.0408 33.4771 56.1566C32.9238 56.2695 32.372 56.3824 31.8173 56.4895C28.848 57.0612 26.105 57.7197 23.0497 57.1567C22.8701 57.1234 22.6862 57.0858 22.5387 56.9787C22.3431 56.8383 22.2424 56.6024 22.1679 56.3737C21.7402 55.061 21.857 53.5819 22.4876 52.3517C23.2336 50.8958 24.4146 50.3183 25.797 49.6236C27.3897 48.8233 28.7342 48.2198 30.575 48.2704C30.7166 48.2748 30.8596 48.282 30.9998 48.2921C31.8961 48.3544 32.7968 48.5266 33.6975 48.7582C35.077 49.1113 36.4566 49.6019 37.8229 50.0347C38.8448 50.3053 39.82 50.7163 40.7221 51.2605C40.9805 51.424 41.2082 51.6353 41.3893 51.8828C41.6199 52.2548 41.7425 52.6861 41.7396 53.1231V53.1289C41.763 53.8699 41.6068 54.5704 41.3279 55.2376L41.3265 55.2405Z" fill="#231F20"/>
<path d="M45.7996 55.6639C44.3266 55.4382 42.8508 55.279 41.3705 55.2399C41.3574 55.2399 41.3428 55.2384 41.3297 55.2399C40.5633 55.2182 39.7939 55.2326 39.0261 55.2862C37.7458 55.3759 36.4802 55.5756 35.2189 55.8144C34.6379 55.9215 34.0583 56.0402 33.4803 56.156C31.8234 55.8622 30.1519 55.6249 28.5081 55.2659C27.6907 55.14 26.9126 54.8332 26.2279 54.3701C26.0557 54.2384 25.9009 54.0806 25.7666 53.9069C25.7053 53.8288 25.6513 53.7477 25.6017 53.6638C25.3958 53.3179 25.282 52.9257 25.3112 52.5349C25.317 52.4293 25.336 52.3265 25.3666 52.2238C25.4542 51.9965 25.5725 51.7823 25.717 51.5884C25.9403 51.2874 26.2265 51.0327 26.5593 50.8445C27.3885 50.2511 28.3665 49.8936 29.387 49.8112C30.0716 49.7735 30.7533 49.9096 31.4336 49.8734C32.0409 49.8401 32.4613 49.5058 33.0058 49.4262C33.3927 49.3683 33.8073 49.4204 34.2306 49.5333C35.1576 49.7866 36.1152 50.338 36.8422 50.6998L41.7399 53.1254L41.7778 53.1428L42.7573 53.6291C43.6829 54.0488 44.5588 54.564 45.3704 55.169C45.5806 55.2804 45.7251 55.4584 45.7981 55.6639H45.7996Z" fill="#231F20"/>
<path d="M36.8263 24.1432C36.1475 23.5455 34.7285 23.4022 34.0716 24.0621C33.5943 24.5484 33.5621 25.3039 33.4439 25.9798C33.2702 26.9495 32.8585 27.8627 32.2469 28.6384C31.9169 29.0552 31.5213 29.4475 31.3797 29.9554C31.3213 30.1204 31.3213 30.2984 31.3797 30.4634C31.4775 30.6371 31.625 30.7775 31.8031 30.8687C32.2074 31.161 32.6644 31.3723 33.1505 31.491C33.6483 31.6053 34.1665 31.4259 34.4847 31.0308C34.5971 30.8629 34.6789 30.6386 34.8745 30.5763C35.1285 30.4953 35.3577 30.7413 35.6059 30.8383C36.0234 30.9975 36.5007 30.6979 36.708 30.3057C36.8847 29.8961 36.9898 29.4605 37.0219 29.0162C37.0525 28.569 37.2584 28.1507 37.5971 27.8511C37.7328 27.7512 37.9051 27.6774 37.9708 27.524C38.0905 27.2404 37.7825 26.9827 37.5883 26.7396C36.9825 25.9668 37.5854 24.7771 36.8248 24.1432H36.8263Z" fill="#FFAA71"/>
<path d="M36.6084 21.3958C35.7544 20.4305 34.4522 19.8747 33.3384 20.5535C32.9194 20.8097 32.5866 21.1961 32.1443 21.4117C31.8786 21.542 31.5837 21.6042 31.2947 21.6722C30.5399 21.8503 29.7546 22.1021 29.2436 22.6824C28.7327 23.2614 28.6363 24.2614 29.2349 24.752C28.9779 25.0719 29.0101 25.5813 29.3049 25.8679C29.4728 26.03 29.6991 26.1168 29.8932 26.2456C30.4859 26.6407 30.4772 27.072 30.4363 27.6625C30.4465 27.7609 30.4874 27.855 30.5531 27.9303L31.0903 28.6988C31.2757 28.9607 31.5238 29.24 31.8377 29.24C32.3063 29.2183 32.5442 28.57 33.0128 28.5294C33.2172 28.5453 33.4187 28.5917 33.6099 28.6669C33.8084 28.7132 34.0712 28.6582 34.1223 28.4614C33.5982 28.1806 33.3851 27.5424 33.6391 27.0069C33.7515 26.7884 34.0347 26.6046 34.2332 26.7478C34.353 26.8347 34.3807 26.9968 34.4493 27.127C34.5179 27.2573 34.7164 27.3542 34.804 27.2356C35.0653 26.6277 34.788 25.8997 34.9792 25.2774C35.1573 24.7289 35.6551 24.3439 36.2361 24.3063C36.4814 24.2875 36.7295 24.3381 36.9748 24.3063C37.2273 24.2918 37.4434 24.1196 37.5091 23.8764C37.6273 23.0457 37.2434 22.1079 36.6113 21.3944L36.6084 21.3958Z" fill="#231F20"/>
<path d="M30.0854 30.3932C29.9876 30.5249 29.9555 30.6928 29.9949 30.8506C30.0738 30.9895 30.2241 31.0706 30.3847 31.0619C31.4971 31.1675 32.6562 31.3209 33.6955 31.8593C33.9218 31.965 34.2167 32.0808 34.3744 31.8593C34.4649 31.6972 34.4649 31.499 34.3744 31.3369C34.2897 31.1907 34.1729 31.0648 34.0313 30.9693C33.5817 30.6407 33.1102 30.3411 32.6211 30.0719C31.716 29.5422 30.7832 29.2629 30.0869 30.3932H30.0854Z" fill="#68E1FD"/>
<path d="M33.5691 48.5442C34.1004 49.5906 35.2084 50.2288 34.1004 51.2839C32.1399 53.1552 28.6758 53.9397 26.0496 53.9151C24.2905 53.8991 22.4716 53.4982 21.0906 52.4171C20.6673 52.1132 20.3359 51.7007 20.133 51.2246C20.0337 50.9076 19.9811 50.5791 19.9753 50.2462C19.6293 44.1083 21.8249 38.0645 24.9226 32.74C25.5124 31.7211 26.2861 30.6226 27.4598 30.4518C27.8802 30.4113 28.3035 30.4374 28.7166 30.53C31.4669 30.9989 34.1866 31.6299 36.8609 32.4172C37.2157 32.4968 37.5514 32.6474 37.8478 32.8601C38.0565 33.0483 38.2361 33.2682 38.3791 33.5114L42.6097 39.9387C43.2228 40.8664 43.8563 41.8824 43.7848 42.9867C43.7819 43.3123 43.6709 43.6264 43.4709 43.884C43.1498 44.1836 42.7337 44.363 42.2929 44.3949C40.7513 44.6409 39.1733 44.5353 37.6784 44.0837C38.5134 43.4484 38.2507 42.1285 37.7003 41.2369C37.3281 40.6363 36.8653 40.095 36.331 39.6305C35.9748 41.3672 35.3953 43.0504 34.607 44.6409C34.0128 45.8364 32.9019 47.2286 33.5705 48.5457L33.5691 48.5442Z" fill="#68E1FD"/>
<path d="M21.5195 40.327C21.6276 39.9247 21.9414 38.654 22.3253 37.955C23.8567 39.0361 24.9793 41.1505 25.5457 42.9278C26.1121 44.705 26.5734 46.5764 27.7237 48.0497C28.1398 47.9064 28.5558 47.7646 28.9719 47.6213C29.0492 47.8818 29.1266 48.1423 29.204 48.4028C29.3864 49.0179 28.8638 49.6504 28.9178 50.2713C28.9719 50.8921 29.601 51.4378 30.1966 51.5999C30.9149 51.7952 31.6783 51.636 32.398 51.4464C32.852 51.3263 33.3177 51.1874 33.6812 50.8921C34.0447 50.5969 34.2841 50.1034 34.1469 49.6562C34.4593 49.8125 34.5775 50.2206 34.4899 50.5564C34.4024 50.8921 34.1556 51.1642 33.8929 51.3929C33.0228 52.1513 31.9148 52.5724 30.8317 52.9791C30.3105 53.1745 29.7864 53.3713 29.2478 53.5131C28.0244 53.8344 26.7456 53.8648 25.48 53.8938C24.7107 53.9111 24.2508 53.7925 23.9107 53.0399C23.4246 51.9646 23.3881 50.7517 23.2728 49.578C22.9983 46.8079 22.2772 43.0074 21.5225 40.327H21.5195Z" fill="url(#paint3_linear_348_8929)"/>
<path d="M25.7132 51.5872C25.7176 51.9216 25.7088 52.2617 25.6898 52.6076C25.6723 52.952 25.6402 53.3037 25.5979 53.6626C25.5877 53.7408 25.5789 53.8175 25.5687 53.8971C25.5351 54.1417 25.4986 54.3892 25.4534 54.6395C25.4519 54.6468 25.449 54.6569 25.449 54.667C25.4242 54.8045 25.3964 54.9449 25.3687 55.0867C25.4884 55.8567 25.3877 56.6353 25.0869 57.3416H25.0855C24.376 57.3648 23.6782 57.3546 22.9892 57.3083C21.6359 57.2215 20.3134 56.9972 18.9893 56.6006C18.9849 56.6006 18.9835 56.5991 18.982 56.5991C17.655 55.9001 16.4055 55.081 15.3252 54.0476C15.023 53.7914 14.7821 53.4716 14.6216 53.1127C14.5033 52.7233 14.4654 52.3181 14.5019 51.9129C14.5413 49.6566 14.2406 47.4119 13.6158 45.2525C13.48 44.7822 13.3282 44.3161 13.1603 43.8545C12.972 43.332 12.7618 42.8168 12.5355 42.3088C11.9983 41.109 11.3472 39.9396 11.102 38.6515C10.9662 37.9481 10.9589 37.2274 11.0786 36.5211C11.0844 36.3952 11.1341 36.2736 11.2158 36.1796C11.3414 36.0811 11.502 36.0377 11.6625 36.0565C13.2975 36.1014 14.7836 37.032 16.3996 37.3026C17.2288 37.443 18.0901 37.4054 18.8959 37.6427C20.0433 37.9771 20.925 38.8035 21.6214 39.7905C21.9863 40.3043 22.3002 40.86 22.5746 41.4129C22.9936 42.2581 23.3863 43.0671 23.741 43.8545C23.9527 44.3263 24.1512 44.7908 24.3351 45.2525C24.9395 46.7649 25.3774 48.2296 25.5833 49.768C25.5847 49.7781 25.5877 49.7868 25.5877 49.797C25.6665 50.3802 25.7088 50.975 25.7147 51.5872H25.7132Z" fill="#231F20"/>
<path d="M25.7132 51.5872C25.7176 51.9216 25.7088 52.2617 25.6898 52.6076C25.6723 52.952 25.6402 53.3037 25.5979 53.6626C25.5877 53.7408 25.5789 53.8175 25.5687 53.8971C25.5351 54.1417 25.4986 54.3892 25.4534 54.6395C25.4519 54.6468 25.449 54.6569 25.449 54.667C25.4242 54.8045 25.3964 54.9449 25.3687 55.0867C25.4884 55.8567 25.3877 56.6353 25.0869 57.3416H25.0855C24.376 57.3648 23.6782 57.3546 22.9892 57.3083C21.6359 57.2215 20.3134 56.9972 18.9893 56.6006C18.9849 56.6006 18.9835 56.5991 18.982 56.5991C17.655 55.9001 16.4055 55.081 15.3252 54.0476C15.023 53.7914 14.7821 53.4716 14.6216 53.1127C14.5033 52.7233 14.4654 52.3181 14.5019 51.9129C14.5413 49.6566 14.2406 47.4119 13.6158 45.2525C13.48 44.7822 13.3282 44.3161 13.1603 43.8545C12.972 43.332 12.7618 42.8168 12.5355 42.3088C11.9983 41.109 11.3472 39.9396 11.102 38.6515C10.9662 37.9481 10.9589 37.2274 11.0786 36.5211C11.0844 36.3952 11.1341 36.2736 11.2158 36.1796C11.3414 36.0811 11.502 36.0377 11.6625 36.0565C13.2975 36.1014 14.7836 37.032 16.3996 37.3026C17.2288 37.443 18.0901 37.4054 18.8959 37.6427C20.0433 37.9771 20.925 38.8035 21.6214 39.7905C21.9863 40.3043 22.3002 40.86 22.5746 41.4129C22.9936 42.2581 23.3863 43.0671 23.741 43.8545C23.9527 44.3263 24.1512 44.7908 24.3351 45.2525C24.9395 46.7649 25.3774 48.2296 25.5833 49.768C25.5847 49.7781 25.5877 49.7868 25.5877 49.797C25.6665 50.3802 25.7088 50.975 25.7147 51.5872H25.7132Z" fill="url(#paint4_linear_348_8929)"/>
<defs>
<linearGradient id="paint0_linear_348_8929" x1="49.8553" y1="33.0476" x2="61.3276" y2="47.2641" gradientUnits="userSpaceOnUse">
<stop stop-color="#231F20"/>
<stop offset="0.08" stop-color="#231F20" stop-opacity="0.69"/>
<stop offset="0.21" stop-color="#231F20" stop-opacity="0.32"/>
<stop offset="1" stop-color="#231F20" stop-opacity="0"/>
</linearGradient>
<linearGradient id="paint1_linear_348_8929" x1="50.347" y1="25.2834" x2="59.4888" y2="45.8082" gradientUnits="userSpaceOnUse">
<stop stop-color="white" stop-opacity="0"/>
<stop offset="1" stop-color="white"/>
</linearGradient>
<linearGradient id="paint2_linear_348_8929" x1="54.6657" y1="30.2338" x2="58.4352" y2="24.9983" gradientUnits="userSpaceOnUse">
<stop stop-color="#010101" stop-opacity="0"/>
<stop offset="0.95" stop-color="#010101"/>
</linearGradient>
<linearGradient id="paint3_linear_348_8929" x1="7.82506" y1="64.7888" x2="41.266" y2="31.0583" gradientUnits="userSpaceOnUse">
<stop stop-color="#231F20"/>
<stop offset="0.08" stop-color="#231F20" stop-opacity="0.69"/>
<stop offset="0.21" stop-color="#231F20" stop-opacity="0.32"/>
<stop offset="1" stop-color="#231F20" stop-opacity="0"/>
</linearGradient>
<linearGradient id="paint4_linear_348_8929" x1="10.9939" y1="46.7041" x2="25.7132" y2="46.7041" gradientUnits="userSpaceOnUse">
<stop stop-opacity="0"/>
<stop offset="0.99"/>
</linearGradient>
</defs>
</svg>
