<svg width="75" height="62" viewBox="0 0 75 62" fill="none" xmlns="http://www.w3.org/2000/svg">
<path d="M38.1325 0.143159L35.7097 0.764093L5.85969 8.41414L3.43684 9.03508C2.26082 9.33788 1.25368 10.0919 0.636372 11.1318C0.0190683 12.1716 -0.157986 13.4123 0.144054 14.5818L10.6501 55.0694C10.9547 56.2381 11.7135 57.2391 12.7598 57.8525C13.8061 58.466 15.0546 58.642 16.2313 58.3418L16.2375 58.3402L50.9207 49.4515L50.9269 49.4499C52.103 49.1471 53.1101 48.3931 53.7274 47.3532C54.3447 46.3134 54.5218 45.0726 54.2197 43.9032L43.7137 3.41558C43.4091 2.24683 42.6503 1.24593 41.604 0.63244C40.5577 0.0189537 39.3092 -0.157008 38.1325 0.143159Z" fill="#F2F2F2"/>
<path d="M38.4791 1.41053L35.6094 2.14599L6.65305 9.56702L3.7834 10.3025C2.94593 10.5181 2.22872 11.0551 1.78912 11.7955C1.34952 12.536 1.22343 13.4196 1.43852 14.2524L11.9445 54.74C12.1615 55.5723 12.7018 56.2851 13.4469 56.7219C14.192 57.1588 15.0811 57.2841 15.919 57.0704L15.9253 57.0688L50.6084 48.1801L50.6147 48.1784C51.4522 47.9628 52.1694 47.4258 52.609 46.6853C53.0486 45.9449 53.1747 45.0613 52.9596 44.2285L42.4536 3.7409C42.2366 2.90862 41.6963 2.19585 40.9512 1.75898C40.2061 1.3221 39.3171 1.19679 38.4791 1.41053Z" fill="white"/>
<path d="M36.3076 13.5237L18.7622 18.0203C18.5662 18.0705 18.3582 18.0413 18.1839 17.9391C18.0096 17.8369 17.8833 17.6701 17.8328 17.4754C17.7822 17.2806 17.8116 17.0739 17.9144 16.9007C18.0173 16.7274 18.1851 16.6019 18.3811 16.5517L35.9265 12.0551C36.1224 12.0051 36.3302 12.0344 36.5044 12.1366C36.6785 12.2388 36.8047 12.4056 36.8552 12.6002C36.9057 12.7949 36.8764 13.0015 36.7737 13.1746C36.671 13.3478 36.5034 13.4734 36.3076 13.5237Z" fill="#F2F2F2"/>
<path d="M39.9922 15.2231L19.3989 20.5008C19.2029 20.551 18.9949 20.5218 18.8206 20.4196C18.6463 20.3174 18.52 20.1506 18.4695 19.9559C18.419 19.7611 18.4483 19.5544 18.5512 19.3812C18.654 19.2079 18.8219 19.0824 19.0178 19.0322L39.6111 13.7545C39.807 13.7043 40.0151 13.7335 40.1894 13.8357C40.3637 13.9379 40.49 14.1047 40.5405 14.2994C40.591 14.4942 40.5617 14.7009 40.4588 14.8741C40.356 15.0474 40.1881 15.1729 39.9922 15.2231Z" fill="#F2F2F2"/>
<path d="M39.1943 25.6333L21.6489 30.1298C21.5519 30.1547 21.4509 30.1603 21.3516 30.1464C21.2524 30.1325 21.1569 30.0993 21.0706 30.0487C20.9843 29.9981 20.9089 29.9311 20.8486 29.8515C20.7884 29.7719 20.7445 29.6813 20.7195 29.5849C20.6945 29.4885 20.6888 29.3881 20.7028 29.2895C20.7168 29.1909 20.7502 29.096 20.8012 29.0102C20.8521 28.9244 20.9195 28.8495 20.9996 28.7896C21.0796 28.7297 21.1708 28.6861 21.2678 28.6612L38.8132 24.1646C38.9102 24.1398 39.0112 24.1342 39.1104 24.1481C39.2097 24.162 39.3052 24.1952 39.3915 24.2458C39.4778 24.2964 39.5532 24.3634 39.6134 24.443C39.6737 24.5226 39.7176 24.6132 39.7426 24.7096C39.7676 24.806 39.7733 24.9064 39.7593 25.005C39.7453 25.1036 39.7119 25.1985 39.6609 25.2843C39.61 25.3701 39.5426 25.445 39.4625 25.5049C39.3825 25.5648 39.2913 25.6084 39.1943 25.6333Z" fill="#F2F2F2"/>
<path d="M42.8711 27.3247L22.2778 32.6024C22.1808 32.6272 22.0798 32.6329 21.9806 32.6189C21.8813 32.605 21.7858 32.5718 21.6995 32.5212C21.6132 32.4706 21.5378 32.4036 21.4776 32.324C21.4173 32.2445 21.3734 32.1539 21.3484 32.0574C21.3234 31.961 21.3177 31.8606 21.3317 31.762C21.3457 31.6634 21.3792 31.5685 21.4301 31.4827C21.481 31.397 21.5484 31.322 21.6285 31.2621C21.7085 31.2022 21.7997 31.1586 21.8967 31.1338L42.49 25.8561C42.686 25.8058 42.894 25.835 43.0683 25.9372C43.2426 26.0394 43.3689 26.2063 43.4194 26.401C43.4699 26.5958 43.4406 26.8025 43.3377 26.9757C43.2349 27.1489 43.067 27.2745 42.8711 27.3247Z" fill="#F2F2F2"/>
<path d="M15.7674 22.6342L9.55825 24.2255C9.46429 24.2495 9.3646 24.2354 9.28105 24.1864C9.1975 24.1374 9.13691 24.0575 9.11259 23.9642L7.68729 18.4714C7.66317 18.378 7.6773 18.279 7.72659 18.1959C7.77589 18.1129 7.85631 18.0527 7.95021 18.0285L14.1593 16.4372C14.2533 16.4132 14.353 16.4273 14.4365 16.4763C14.5201 16.5253 14.5807 16.6052 14.605 16.6985L16.0303 22.1913C16.0544 22.2847 16.0403 22.3837 15.991 22.4668C15.9417 22.5498 15.8613 22.61 15.7674 22.6342Z" fill="#E6E6E6"/>
<path d="M18.6502 34.7357L12.4411 36.327C12.3471 36.351 12.2474 36.337 12.1639 36.288C12.0803 36.239 12.0197 36.1591 11.9954 36.0657L10.5701 30.573C10.546 30.4796 10.5601 30.3805 10.6094 30.2975C10.6587 30.2145 10.7391 30.1543 10.833 30.1301L17.0422 28.5388C17.1361 28.5148 17.2358 28.5289 17.3194 28.5778C17.4029 28.6268 17.4635 28.7068 17.4878 28.8001L18.9131 34.2929C18.9372 34.3862 18.9231 34.4853 18.8738 34.5683C18.8245 34.6514 18.7441 34.7116 18.6502 34.7357Z" fill="#E6E6E6"/>
<path d="M21.5213 45.8412L15.3122 47.4325C15.2182 47.4565 15.1185 47.4424 15.035 47.3935C14.9514 47.3445 14.8908 47.2645 14.8665 47.1712L13.4412 41.6784C13.4171 41.5851 13.4312 41.486 13.4805 41.403C13.5298 41.3199 13.6102 41.2597 13.7041 41.2355L19.9133 39.6442C20.0072 39.6203 20.1069 39.6343 20.1905 39.6833C20.274 39.7323 20.3346 39.8122 20.3589 39.9055L21.7842 45.3983C21.8083 45.4917 21.7942 45.5908 21.7449 45.6738C21.6956 45.7568 21.6152 45.817 21.5213 45.8412Z" fill="#E6E6E6"/>
<path d="M62.3426 10.4062H26.5119C25.297 10.4076 24.1323 10.8878 23.2733 11.7415C22.4143 12.5952 21.9311 13.7527 21.9297 14.9601V56.7723C21.9311 57.9796 22.4143 59.1371 23.2733 59.9908C24.1323 60.8445 25.297 61.3247 26.5119 61.3261H62.3426C63.5575 61.3247 64.7222 60.8445 65.5812 59.9908C66.4402 59.1371 66.9234 57.9796 66.9248 56.7723V14.9601C66.9234 13.7527 66.4402 12.5952 65.5812 11.7415C64.7222 10.8878 63.5575 10.4076 62.3426 10.4062Z" fill="#E6E6E6"/>
<path d="M62.34 11.7148H26.5092C25.644 11.7158 24.8146 12.0578 24.2029 12.6657C23.5912 13.2737 23.2471 14.0979 23.2461 14.9577V56.7699C23.2471 57.6297 23.5912 58.454 24.2029 59.0619C24.8146 59.6699 25.644 60.0118 26.5092 60.0128H62.34C63.2051 60.0118 64.0345 59.6699 64.6462 59.0619C65.2579 58.454 65.602 57.6297 65.603 56.7699V14.9577C65.602 14.098 65.2579 13.2737 64.6462 12.6657C64.0345 12.0578 63.2051 11.7158 62.34 11.7148Z" fill="white"/>
<path d="M56.9497 34.6885H38.8303C38.73 34.6886 38.6307 34.6691 38.538 34.6311C38.4454 34.593 38.3611 34.5372 38.2902 34.4667C38.2193 34.3963 38.163 34.3127 38.1246 34.2206C38.0862 34.1285 38.0664 34.0299 38.0664 33.9302C38.0664 33.8305 38.0862 33.7319 38.1246 33.6398C38.163 33.5477 38.2193 33.4641 38.2902 33.3937C38.3611 33.3233 38.4454 33.2674 38.538 33.2294C38.6307 33.1913 38.73 33.1718 38.8303 33.1719H56.9497C57.1519 33.1721 57.3458 33.2521 57.4887 33.3943C57.6316 33.5365 57.7119 33.7292 57.7119 33.9302C57.7119 34.1312 57.6316 34.3239 57.4887 34.4661C57.3458 34.6083 57.1519 34.6883 56.9497 34.6885Z" fill="#E6E6E6"/>
<path d="M60.0973 37.251H38.8303C38.73 37.2511 38.6307 37.2316 38.538 37.1936C38.4454 37.1555 38.3611 37.0997 38.2902 37.0292C38.2193 36.9588 38.163 36.8752 38.1246 36.7831C38.0862 36.691 38.0664 36.5924 38.0664 36.4927C38.0664 36.393 38.0862 36.2944 38.1246 36.2023C38.163 36.1102 38.2193 36.0266 38.2902 35.9562C38.3611 35.8858 38.4454 35.8299 38.538 35.7919C38.6307 35.7538 38.73 35.7343 38.8303 35.7344H60.0973C60.2997 35.7344 60.4938 35.8143 60.6369 35.9565C60.78 36.0987 60.8604 36.2916 60.8604 36.4927C60.8604 36.6938 60.78 36.8867 60.6369 37.0289C60.4938 37.1711 60.2997 37.251 60.0973 37.251Z" fill="#E6E6E6"/>
<path d="M56.9497 46.1573H38.8303C38.73 46.1574 38.6307 46.1379 38.538 46.0998C38.4454 46.0617 38.3611 46.0059 38.2902 45.9355C38.2193 45.8651 38.163 45.7814 38.1246 45.6894C38.0862 45.5973 38.0664 45.4986 38.0664 45.399C38.0664 45.2993 38.0862 45.2006 38.1246 45.1086C38.163 45.0165 38.2193 44.9329 38.2902 44.8624C38.3611 44.792 38.4454 44.7362 38.538 44.6981C38.6307 44.66 38.73 44.6405 38.8303 44.6406H56.9497C57.1521 44.6406 57.3462 44.7205 57.4893 44.8627C57.6324 45.005 57.7127 45.1978 57.7127 45.399C57.7127 45.6001 57.6324 45.793 57.4893 45.9352C57.3462 46.0774 57.1521 46.1573 56.9497 46.1573Z" fill="#E6E6E6"/>
<path d="M60.0973 48.7159H38.8303C38.73 48.716 38.6307 48.6965 38.538 48.6584C38.4454 48.6203 38.3611 48.5645 38.2902 48.4941C38.2193 48.4236 38.163 48.34 38.1246 48.2479C38.0862 48.1559 38.0664 48.0572 38.0664 47.9576C38.0664 47.8579 38.0862 47.7592 38.1246 47.6672C38.163 47.5751 38.2193 47.4915 38.2902 47.421C38.3611 47.3506 38.4454 47.2948 38.538 47.2567C38.6307 47.2186 38.73 47.1991 38.8303 47.1992H60.0973C60.1976 47.1991 60.2969 47.2186 60.3896 47.2567C60.4822 47.2948 60.5665 47.3506 60.6374 47.421C60.7084 47.4915 60.7646 47.5751 60.803 47.6672C60.8414 47.7592 60.8612 47.8579 60.8612 47.9576C60.8612 48.0572 60.8414 48.1559 60.803 48.2479C60.7646 48.34 60.7084 48.4236 60.6374 48.4941C60.5665 48.5645 60.4822 48.6203 60.3896 48.6584C60.2969 48.6965 60.1976 48.716 60.0973 48.7159Z" fill="#E6E6E6"/>
<path d="M34.7743 38.4114H28.362C28.265 38.4113 28.172 38.373 28.1034 38.3048C28.0348 38.2366 27.9962 38.1442 27.9961 38.0478V32.3753C27.9962 32.2789 28.0348 32.1865 28.1034 32.1183C28.172 32.0502 28.265 32.0118 28.362 32.0117H34.7743C34.8713 32.0118 34.9643 32.0502 35.0329 32.1183C35.1015 32.1865 35.14 32.2789 35.1401 32.3753V38.0478C35.14 38.1442 35.1015 38.2366 35.0329 38.3048C34.9643 38.373 34.8713 38.4113 34.7743 38.4114Z" fill="#6394FF"/>
<path d="M34.7743 49.8841H28.362C28.265 49.884 28.172 49.8456 28.1034 49.7775C28.0348 49.7093 27.9962 49.6169 27.9961 49.5205V43.848C27.9962 43.7516 28.0348 43.6592 28.1034 43.591C28.172 43.5228 28.265 43.4845 28.362 43.4844H34.7743C34.8713 43.4845 34.9643 43.5228 35.0329 43.591C35.1015 43.6592 35.14 43.7516 35.1401 43.848V49.5205C35.14 49.6169 35.1015 49.7093 35.0329 49.7775C34.9643 49.8456 34.8713 49.884 34.7743 49.8841Z" fill="#C8E1F5"/>
<path d="M56.9655 20.9228H43.6068C43.4044 20.9228 43.2103 20.8429 43.0672 20.7007C42.9241 20.5585 42.8438 20.3656 42.8438 20.1645C42.8438 19.9633 42.9241 19.7705 43.0672 19.6282C43.2103 19.486 43.4044 19.4061 43.6068 19.4061H56.9655C57.1679 19.4061 57.3619 19.486 57.505 19.6282C57.6481 19.7705 57.7285 19.9633 57.7285 20.1645C57.7285 20.3656 57.6481 20.5585 57.505 20.7007C57.3619 20.8429 57.1679 20.9228 56.9655 20.9228Z" fill="#CCCCCC"/>
<path d="M60.1131 23.4893H43.6068C43.5066 23.4893 43.4074 23.4697 43.3148 23.4316C43.2222 23.3935 43.1381 23.3376 43.0672 23.2672C42.9964 23.1968 42.9402 23.1132 42.9018 23.0212C42.8635 22.9292 42.8438 22.8306 42.8438 22.731C42.8438 22.6314 42.8635 22.5328 42.9018 22.4408C42.9402 22.3488 42.9964 22.2652 43.0672 22.1948C43.1381 22.1243 43.2222 22.0685 43.3148 22.0304C43.4074 21.9923 43.5066 21.9727 43.6068 21.9727H60.1131C60.3155 21.9727 60.5095 22.0525 60.6526 22.1948C60.7957 22.337 60.8761 22.5299 60.8761 22.731C60.8761 22.9321 60.7957 23.125 60.6526 23.2672C60.5095 23.4094 60.3155 23.4893 60.1131 23.4893Z" fill="#CCCCCC"/>
<path d="M40.6541 27.5801H28.3385C28.2415 27.58 28.1485 27.5416 28.0799 27.4735C28.0113 27.4053 27.9728 27.3129 27.9727 27.2165V17.6644C27.9728 17.568 28.0113 17.4756 28.0799 17.4074C28.1485 17.3392 28.2415 17.3009 28.3385 17.3008H40.6541C40.7511 17.3009 40.8441 17.3392 40.9127 17.4074C40.9813 17.4756 41.0199 17.568 41.02 17.6644V27.2165C41.0199 27.3129 40.9813 27.4053 40.9127 27.4735C40.8441 27.5416 40.7511 27.58 40.6541 27.5801Z" fill="#6C63FF"/>
<path d="M66.1029 57.8912C70.7225 57.8912 74.4674 54.1694 74.4674 49.5784C74.4674 44.9874 70.7225 41.2656 66.1029 41.2656C61.4832 41.2656 57.7383 44.9874 57.7383 49.5784C57.7383 54.1694 61.4832 57.8912 66.1029 57.8912Z" fill="#F05A23"/>
<path d="M70.0958 48.4991H67.1864V45.6077C67.1864 45.3201 67.0715 45.0444 66.8669 44.841C66.6623 44.6377 66.3848 44.5234 66.0954 44.5234C65.806 44.5234 65.5285 44.6377 65.3239 44.841C65.1193 45.0444 65.0044 45.3201 65.0044 45.6077V48.4991H62.0949C61.8056 48.4991 61.5281 48.6134 61.3235 48.8167C61.1189 49.02 61.0039 49.2958 61.0039 49.5834C61.0039 49.871 61.1189 50.1468 61.3235 50.3501C61.5281 50.5534 61.8056 50.6677 62.0949 50.6677H65.0044V53.5591C65.0044 53.8466 65.1193 54.1224 65.3239 54.3258C65.5285 54.5291 65.806 54.6433 66.0954 54.6433C66.3848 54.6433 66.6623 54.5291 66.8669 54.3258C67.0715 54.1224 67.1864 53.8466 67.1864 53.5591V50.6677H70.0958C70.3852 50.6677 70.6627 50.5534 70.8673 50.3501C71.0719 50.1468 71.1869 49.871 71.1869 49.5834C71.1869 49.2958 71.0719 49.02 70.8673 48.8167C70.6627 48.6134 70.3852 48.4991 70.0958 48.4991Z" fill="white"/>
</svg>
