<svg width="252" height="229" viewBox="0 0 252 229" fill="none" xmlns="http://www.w3.org/2000/svg">
<path d="M252 192.73H0V192.856H252V192.73Z" fill="#EBEBEB"/>
<path d="M119.448 170.251H22.1306C21.3682 170.25 20.6375 169.946 20.0989 169.406C19.5603 168.867 19.2578 168.136 19.2578 167.373V30.5726C19.2644 29.8146 19.5699 29.0898 20.1078 28.5557C20.6457 28.0216 21.3726 27.7213 22.1306 27.72H119.448C120.211 27.72 120.943 28.0232 121.483 28.5629C122.023 29.1026 122.326 29.8346 122.326 30.5978V167.373C122.326 168.137 122.023 168.869 121.483 169.408C120.943 169.948 120.211 170.251 119.448 170.251ZM22.1306 27.8208C21.4017 27.8221 20.703 28.1126 20.188 28.6285C19.673 29.1445 19.3838 29.8436 19.3838 30.5726V167.373C19.3838 168.102 19.673 168.801 20.188 169.317C20.703 169.833 21.4017 170.124 22.1306 170.125H119.448C120.177 170.124 120.877 169.833 121.392 169.318C121.908 168.802 122.198 168.103 122.2 167.373V30.5726C122.198 29.8432 121.908 29.144 121.392 28.6282C120.877 28.1125 120.177 27.8221 119.448 27.8208H22.1306Z" fill="#EBEBEB"/>
<path d="M228.466 170.251H131.143C130.381 170.25 129.649 169.946 129.11 169.407C128.571 168.867 128.267 168.136 128.266 167.373V30.5726C128.274 29.8141 128.58 29.0894 129.119 28.5554C129.658 28.0214 130.385 27.7213 131.143 27.72H228.466C229.223 27.7226 229.949 28.0235 230.485 28.5575C231.022 29.0915 231.327 29.8155 231.334 30.5726V167.373C231.334 168.135 231.032 168.865 230.494 169.405C229.957 169.944 229.227 170.249 228.466 170.251ZM131.143 27.8208C130.414 27.8221 129.715 28.1125 129.199 28.6282C128.683 29.144 128.393 29.8432 128.392 30.5726V167.373C128.393 168.103 128.683 168.802 129.199 169.318C129.715 169.833 130.414 170.124 131.143 170.125H228.466C229.195 170.124 229.894 169.833 230.41 169.318C230.926 168.802 231.216 168.103 231.218 167.373V30.5726C231.216 29.8432 230.926 29.144 230.41 28.6282C229.894 28.1125 229.195 27.8221 228.466 27.8208H131.143Z" fill="#EBEBEB"/>
<path d="M226.747 197.528H210.836V197.654H226.747V197.528Z" fill="#EBEBEB"/>
<path d="M169.011 196.162H152.172V196.288H169.011V196.162Z" fill="#EBEBEB"/>
<path d="M231.348 202.21H199.883V202.336H231.348V202.21Z" fill="#EBEBEB"/>
<path d="M36.1294 201.363H26.4375V201.489H36.1294V201.363Z" fill="#EBEBEB"/>
<path d="M55.8912 201.363H40.625V201.489H55.8912V201.363Z" fill="#EBEBEB"/>
<path d="M123.045 199.236H95.5469V199.362H123.045V199.236Z" fill="#EBEBEB"/>
<path d="M75.2635 118.974L219.367 118.974V38.7475L75.2635 38.7475V118.974Z" fill="#E0E0E0"/>
<path d="M67.3499 118.974L218.641 118.974V38.7475L67.3499 38.7475V118.974Z" fill="#F5F5F5"/>
<path d="M216.164 116.505V41.2222L69.8176 41.2222V116.505L216.164 116.505Z" fill="white"/>
<path d="M156.911 116.505L129.281 41.2222H174.878L202.512 116.505H156.911Z" fill="#F5F5F5"/>
<path d="M113.02 116.505L85.3906 41.2222H119.789L147.418 116.505H113.02Z" fill="#F5F5F5"/>
<path d="M27.3018 91.9196H56.2969L56.2969 53.0057H27.3018L27.3018 91.9196Z" fill="#E6E6E6"/>
<path d="M25.2817 91.9196H55.8594L55.8594 53.0057L25.2817 53.0057L25.2817 91.9196Z" fill="#F0F0F0"/>
<path d="M53.3047 89.3541V55.566H27.8527L27.8527 89.3541H53.3047Z" fill="white"/>
<path d="M40.7526 81.396L45.4247 76.7239C46.5496 75.591 47.1809 74.0592 47.1809 72.4626C47.1809 70.8661 46.5496 69.3343 45.4247 68.2013L40.7526 63.5292C40.7064 63.4834 40.6439 63.4576 40.5787 63.4576C40.5136 63.4576 40.4511 63.4834 40.4049 63.5292L35.7328 68.2013C34.6079 69.3343 33.9766 70.8661 33.9766 72.4626C33.9766 74.0592 34.6079 75.591 35.7328 76.7239L40.4049 81.396C40.4511 81.4419 40.5136 81.4676 40.5787 81.4676C40.6439 81.4676 40.7064 81.4419 40.7526 81.396ZM40.5762 64.0484L45.0769 68.544C46.1126 69.5832 46.6941 70.9905 46.6941 72.4576C46.6941 73.9247 46.1126 75.332 45.0769 76.3712L40.5762 80.8719L36.0805 76.3712C35.0449 75.332 34.4634 73.9247 34.4634 72.4576C34.4634 70.9905 35.0449 69.5832 36.0805 68.544L40.5762 64.0484Z" fill="#F0F0F0"/>
<path d="M203.126 190.895H209.945V134.674H203.126V190.895Z" fill="#F0F0F0"/>
<path d="M113.159 192.73H209V190.895H113.159V192.73Z" fill="#F0F0F0"/>
<path d="M203.122 134.674H112.211V190.895H203.122V134.674Z" fill="#FAFAFA"/>
<path d="M191.276 167.525H124.068C122.33 167.525 120.663 166.834 119.435 165.606C118.206 164.377 117.516 162.71 117.516 160.973C117.516 159.235 118.206 157.568 119.435 156.34C120.663 155.111 122.33 154.421 124.068 154.421H191.276C193.014 154.421 194.68 155.111 195.909 156.34C197.138 157.568 197.828 159.235 197.828 160.973C197.828 162.71 197.138 164.377 195.909 165.606C194.68 166.834 193.014 167.525 191.276 167.525ZM124.068 154.854C123.25 154.831 122.435 154.971 121.673 155.268C120.91 155.565 120.215 156.012 119.628 156.582C119.041 157.152 118.575 157.834 118.256 158.588C117.938 159.342 117.773 160.152 117.773 160.97C117.773 161.788 117.938 162.598 118.256 163.352C118.575 164.106 119.041 164.788 119.628 165.358C120.215 165.928 120.91 166.375 121.673 166.672C122.435 166.969 123.25 167.11 124.068 167.086H191.276C192.094 167.11 192.908 166.969 193.671 166.672C194.433 166.375 195.129 165.928 195.716 165.358C196.302 164.788 196.769 164.106 197.087 163.352C197.406 162.598 197.57 161.788 197.57 160.97C197.57 160.152 197.406 159.342 197.087 158.588C196.769 157.834 196.302 157.152 195.716 156.582C195.129 156.012 194.433 155.565 193.671 155.268C192.908 154.971 192.094 154.831 191.276 154.854H124.068Z" fill="#F0F0F0"/>
<path d="M191.276 183.839H124.068C122.33 183.839 120.663 183.149 119.435 181.92C118.206 180.691 117.516 179.025 117.516 177.287C117.516 175.549 118.206 173.883 119.435 172.654C120.663 171.425 122.33 170.735 124.068 170.735H191.276C193.014 170.735 194.68 171.425 195.909 172.654C197.138 173.883 197.828 175.549 197.828 177.287C197.828 179.025 197.138 180.691 195.909 181.92C194.68 183.149 193.014 183.839 191.276 183.839ZM124.068 171.163C123.25 171.14 122.435 171.281 121.673 171.578C120.91 171.874 120.215 172.321 119.628 172.891C119.041 173.462 118.575 174.144 118.256 174.898C117.938 175.651 117.773 176.461 117.773 177.279C117.773 178.098 117.938 178.908 118.256 179.661C118.575 180.415 119.041 181.097 119.628 181.668C120.215 182.238 120.91 182.685 121.673 182.981C122.435 183.278 123.25 183.419 124.068 183.396H191.276C192.094 183.419 192.908 183.278 193.671 182.981C194.433 182.685 195.129 182.238 195.716 181.668C196.302 181.097 196.769 180.415 197.087 179.661C197.406 178.908 197.57 178.098 197.57 177.279C197.57 176.461 197.406 175.651 197.087 174.898C196.769 174.144 196.302 173.462 195.716 172.891C195.129 172.321 194.433 171.874 193.671 171.578C192.908 171.281 192.094 171.14 191.276 171.163H124.068Z" fill="#F0F0F0"/>
<path d="M136.926 159.556H178.415C178.777 159.555 179.123 159.411 179.379 159.155C179.635 158.899 179.779 158.552 179.781 158.19C179.781 157.828 179.637 157.48 179.381 157.223C179.125 156.966 178.778 156.821 178.415 156.82H136.926C136.746 156.82 136.567 156.855 136.401 156.924C136.235 156.993 136.084 157.094 135.956 157.221C135.829 157.348 135.728 157.5 135.659 157.666C135.59 157.832 135.555 158.01 135.555 158.19C135.556 158.553 135.701 158.901 135.958 159.157C136.215 159.413 136.563 159.556 136.926 159.556Z" fill="#EBEBEB"/>
<path d="M191.276 151.2H124.068C122.33 151.2 120.663 150.51 119.435 149.281C118.206 148.052 117.516 146.386 117.516 144.648C117.516 142.91 118.206 141.244 119.435 140.015C120.663 138.786 122.33 138.096 124.068 138.096H191.276C193.014 138.096 194.68 138.786 195.909 140.015C197.138 141.244 197.828 142.91 197.828 144.648C197.828 146.386 197.138 148.052 195.909 149.281C194.68 150.51 193.014 151.2 191.276 151.2ZM124.068 138.545C123.25 138.521 122.435 138.662 121.673 138.959C120.91 139.256 120.215 139.702 119.628 140.272C119.041 140.843 118.575 141.525 118.256 142.279C117.938 143.032 117.773 143.842 117.773 144.661C117.773 145.479 117.938 146.289 118.256 147.043C118.575 147.796 119.041 148.478 119.628 149.049C120.215 149.619 120.91 150.066 121.673 150.363C122.435 150.659 123.25 150.8 124.068 150.777H191.276C192.094 150.8 192.908 150.659 193.671 150.363C194.433 150.066 195.129 149.619 195.716 149.049C196.302 148.478 196.769 147.796 197.087 147.043C197.406 146.289 197.57 145.479 197.57 144.661C197.57 143.842 197.406 143.032 197.087 142.279C196.769 141.525 196.302 140.843 195.716 140.272C195.129 139.702 194.433 139.256 193.671 138.959C192.908 138.662 192.094 138.521 191.276 138.545H124.068Z" fill="#F0F0F0"/>
<path d="M136.929 143.247H178.418C178.781 143.246 179.128 143.101 179.384 142.844C179.64 142.587 179.784 142.239 179.784 141.876C179.783 141.514 179.638 141.168 179.382 140.912C179.127 140.656 178.78 140.512 178.418 140.51H136.929C136.57 140.515 136.227 140.662 135.974 140.917C135.722 141.172 135.579 141.517 135.578 141.876C135.578 142.236 135.72 142.582 135.972 142.838C136.225 143.095 136.569 143.242 136.929 143.247Z" fill="#EBEBEB"/>
<path d="M136.926 175.866H178.415C178.777 175.864 179.123 175.72 179.379 175.464C179.635 175.208 179.779 174.862 179.781 174.5C179.779 174.138 179.635 173.79 179.379 173.534C179.124 173.277 178.777 173.132 178.415 173.129H136.926C136.562 173.13 136.214 173.275 135.958 173.532C135.701 173.789 135.556 174.137 135.555 174.5C135.556 174.863 135.701 175.21 135.958 175.466C136.215 175.722 136.563 175.866 136.926 175.866Z" fill="#EBEBEB"/>
<path d="M110.976 134.674H203.133V131.816H110.976V134.674Z" fill="#F0F0F0"/>
<path d="M211.28 131.816H203.125V134.674H211.28V131.816Z" fill="#E6E6E6"/>
<path d="M43.2031 169.586H67.1129L69.391 129.992C69.407 129.763 69.3755 129.534 69.2984 129.318C69.2213 129.102 69.1004 128.905 68.9431 128.738C68.7859 128.571 68.5958 128.439 68.3849 128.349C68.174 128.26 67.9468 128.215 67.7177 128.218H47.3762C46.8976 128.224 46.4388 128.41 46.0906 128.738C45.7425 129.067 45.5304 129.514 45.4963 129.992L43.2031 169.586Z" fill="#E6E6E6"/>
<path d="M40.7891 169.586H64.6988L66.9769 129.992C66.9929 129.763 66.9614 129.534 66.8843 129.318C66.8073 129.102 66.6863 128.905 66.5291 128.738C66.3718 128.571 66.1818 128.439 65.9709 128.349C65.7599 128.26 65.5328 128.215 65.3036 128.218H44.9471C44.4684 128.224 44.0096 128.41 43.6614 128.738C43.3133 129.067 43.1012 129.514 43.0671 129.992L40.7891 169.586Z" fill="#F5F5F5"/>
<path d="M65.9922 169.591H47.571V164.652H64.203C64.6726 164.648 65.1247 164.83 65.4601 165.159C65.7955 165.488 65.9869 165.936 65.9922 166.406V169.566V169.591Z" fill="#E6E6E6"/>
<path d="M53.0234 169.591H28.2821V166.406C28.2821 165.935 28.469 165.484 28.8017 165.151C29.1344 164.818 29.5856 164.632 30.0562 164.632H51.2242C51.4592 164.628 51.6927 164.672 51.9108 164.759C52.129 164.847 52.3275 164.977 52.4949 165.142C52.6624 165.307 52.7953 165.504 52.886 165.721C52.9768 165.938 53.0235 166.171 53.0234 166.406V169.566V169.591Z" fill="#F5F5F5"/>
<path d="M65.4714 192.73H67.1094V169.591H65.4714V192.73Z" fill="#E6E6E6"/>
<path d="M53.4401 192.73H55.0781V169.591H53.4401V192.73Z" fill="#E6E6E6"/>
<path d="M40.6823 192.73H42.3203V169.591H40.6823V192.73Z" fill="#E6E6E6"/>
<path d="M28.6589 192.73H30.2969L30.2969 169.591H28.6589L28.6589 192.73Z" fill="#E6E6E6"/>
<path d="M73.8047 169.586H97.7144L99.9925 129.992C100.009 129.763 99.977 129.534 99.9 129.318C99.8229 129.102 99.7019 128.905 99.5447 128.738C99.3875 128.571 99.1974 128.439 98.9865 128.349C98.7756 128.26 98.5484 128.215 98.3192 128.218H77.9627C77.484 128.224 77.0252 128.41 76.6771 128.738C76.3289 129.067 76.1168 129.514 76.0828 129.992L73.8047 169.586Z" fill="#E6E6E6"/>
<path d="M71.3906 169.586H95.3004L97.5785 129.992C97.5953 129.763 97.5643 129.533 97.4875 129.317C97.4107 129.101 97.2898 128.903 97.1324 128.736C96.975 128.569 96.7846 128.437 96.5734 128.348C96.3621 128.259 96.1345 128.214 95.9052 128.218H75.5486C75.0705 128.224 74.6123 128.41 74.265 128.739C73.9176 129.067 73.7066 129.515 73.6737 129.992L71.3906 169.586Z" fill="#F5F5F5"/>
<path d="M96.5938 169.591H78.1725V164.652H94.8045C95.2751 164.652 95.7263 164.839 96.059 165.171C96.3917 165.504 96.5786 165.955 96.5786 166.426V169.586L96.5938 169.591Z" fill="#E6E6E6"/>
<path d="M83.625 169.591H58.8836V166.406C58.8836 165.935 59.0705 165.484 59.4033 165.151C59.736 164.818 60.1872 164.632 60.6577 164.632H81.8257C82.2962 164.632 82.7475 164.818 83.0802 165.151C83.4129 165.484 83.5998 165.935 83.5998 166.406V169.566L83.625 169.591Z" fill="#F5F5F5"/>
<path d="M96.0807 192.73H97.7188V169.591H96.0807V192.73Z" fill="#E6E6E6"/>
<path d="M84.0417 192.73H85.6797V169.591H84.0417V192.73Z" fill="#E6E6E6"/>
<path d="M71.2917 192.73H72.9297V169.591H71.2917V192.73Z" fill="#E6E6E6"/>
<path d="M59.2604 192.73H60.8984V169.591H59.2604V192.73Z" fill="#E6E6E6"/>
<path d="M125.994 215.49C179.964 215.49 223.715 212.936 223.715 209.785C223.715 206.634 179.964 204.08 125.994 204.08C72.0244 204.08 28.2734 206.634 28.2734 209.785C28.2734 212.936 72.0244 215.49 125.994 215.49Z" fill="#F5F5F5"/>
<path d="M146.807 71.946C146.74 71.95 146.674 71.9273 146.624 71.8828C146.574 71.8384 146.544 71.7759 146.54 71.7091C146.536 71.6422 146.558 71.5766 146.603 71.5265C146.647 71.4764 146.71 71.446 146.776 71.442L155.309 70.3785C155.376 70.3705 155.443 70.3894 155.496 70.4309C155.549 70.4725 155.583 70.5334 155.591 70.6003C155.599 70.6671 155.581 70.7344 155.539 70.7873C155.497 70.8403 155.436 70.8745 155.37 70.8825L146.842 71.946H146.807Z" fill="#5C67AE"/>
<path d="M155.311 73.6193H155.271L146.799 72.1728C146.766 72.1672 146.734 72.1551 146.706 72.1373C146.677 72.1194 146.652 72.0961 146.633 72.0687C146.614 72.0414 146.6 72.0104 146.592 71.9777C146.585 71.945 146.584 71.9111 146.59 71.878C146.595 71.8449 146.607 71.8132 146.625 71.7848C146.643 71.7564 146.666 71.7318 146.694 71.7124C146.721 71.6929 146.752 71.6791 146.785 71.6716C146.817 71.6642 146.851 71.6632 146.884 71.6688L155.357 73.1204C155.423 73.1264 155.485 73.1587 155.528 73.2102C155.571 73.2617 155.592 73.3282 155.586 73.395C155.58 73.4619 155.548 73.5236 155.496 73.5666C155.445 73.6096 155.378 73.6304 155.311 73.6244V73.6193Z" fill="#5C67AE"/>
<path d="M135.923 59.8097C132.985 58.716 128.489 65.7317 130.379 73.1657C133.6 70.4743 138.06 69.8847 139.724 70.9783C142.133 72.5659 140.096 72.4903 141.341 75.852C142.586 79.2137 153.347 78.5686 149.174 71.064C155.489 58.2675 137.954 52.2195 135.923 59.8097Z" fill="#263238"/>
<path d="M115.326 87.4692L116.455 88.4319C116.665 88.6092 116.83 88.8347 116.934 89.0892C117.038 89.3436 117.08 89.6195 117.055 89.8934L116.828 92.4941C116.785 93.0054 116.619 93.4989 116.346 93.9331C116.072 94.3672 115.698 94.7293 115.256 94.9889L114.696 95.3165C112.715 93.8498 111.672 90.7805 111.672 90.7805L111.274 89.9439C111.188 89.7748 111.136 89.5904 111.121 89.4013C111.107 89.2122 111.13 89.0221 111.189 88.8418C111.248 88.6616 111.342 88.4947 111.465 88.3509C111.589 88.207 111.74 88.0889 111.909 88.0034L113.557 87.192C113.847 87.0634 114.169 87.0212 114.482 87.0703C114.796 87.1195 115.089 87.258 115.326 87.4692Z" fill="#B55B52"/>
<path d="M132.778 91.224C132.621 91.6222 132.505 91.8994 132.369 92.232C132.233 92.5646 132.092 92.8418 131.956 93.1392C131.674 93.739 131.366 94.3186 131.059 94.8982C130.429 96.0523 129.739 97.1727 128.993 98.2548C128.62 98.7991 128.227 99.3334 127.828 99.8626C127.43 100.392 127.002 100.901 126.553 101.405C125.669 102.427 124.716 103.386 123.701 104.278L123.565 104.404C123.444 104.514 123.312 104.612 123.171 104.696C122.584 105.042 121.932 105.263 121.256 105.346C120.529 105.434 119.79 105.346 119.104 105.089C118.177 104.718 117.363 104.11 116.745 103.325C116.32 102.8 115.955 102.228 115.657 101.622C115.396 101.099 115.166 100.562 114.966 100.014C114.605 98.999 114.317 97.9598 114.104 96.9041C113.892 95.8732 113.749 94.8293 113.676 93.7793C113.648 93.3752 113.76 92.9738 113.993 92.6422C114.225 92.3106 114.565 92.0689 114.954 91.9574C115.343 91.8459 115.759 91.8714 116.132 92.0296C116.505 92.1878 116.812 92.4692 117.002 92.8267L117.053 92.9174C117.481 93.7188 117.915 94.5907 118.358 95.3971C118.802 96.2035 119.255 96.9998 119.729 97.7105C119.947 98.0467 120.183 98.3714 120.435 98.6832C120.627 98.9263 120.845 99.1477 121.085 99.3434C121.251 99.4795 121.392 99.4442 121.085 99.2729C120.861 99.176 120.617 99.1362 120.374 99.157C120.185 99.1732 119.999 99.2208 119.825 99.2981L119.291 99.7114C119.996 98.905 120.687 98.0834 121.307 97.1914C121.927 96.2993 122.562 95.3921 123.136 94.4395C123.711 93.487 124.27 92.5294 124.789 91.5415C125.046 91.0375 125.293 90.5335 125.545 90.0547L125.898 89.3138L126.216 88.6385L126.296 88.4621C126.695 87.6528 127.388 87.0269 128.234 86.7132C129.08 86.3995 130.014 86.4218 130.844 86.7755C131.674 87.1292 132.337 87.7873 132.697 88.6147C133.056 89.4421 133.085 90.3759 132.778 91.224Z" fill="#B55B52"/>
<path d="M161.621 195.139C162.402 191.611 162.206 190.774 162.841 188.839C163.171 187.739 163.649 186.69 164.262 185.719C164.816 184.686 163.758 183.864 162.71 183.733C161.888 183.627 161.021 183.592 160.013 183.431L157.836 187.488C158.985 188.95 159.902 192.528 159.499 195.24C159.212 197.2 161.308 196.56 161.621 195.139Z" fill="#263238"/>
<path d="M126.526 111.082C126.526 111.082 125.947 140.954 125.337 157.505C123.734 167.303 157.416 187.695 157.416 187.695C158.137 188.037 160.042 184.303 160.012 183.431C160.012 183.431 145.532 162.096 136.898 156.946C146.449 130.511 143.854 111.082 143.854 111.082H126.526Z" fill="#5C67AE"/>
<path opacity="0.2" d="M143.854 111.082H132.922C132.922 111.082 135.109 140.283 137.544 155.111C146.328 129.619 143.854 111.082 143.854 111.082Z" fill="black"/>
<path opacity="0.2" d="M150.614 170.76C146.466 165.584 141.668 160.176 137.812 157.535C138.362 162.656 138.926 168.835 139.36 175.175C142.984 178.043 146.743 180.719 149.888 182.841C150.41 178.836 150.652 174.799 150.614 170.76Z" fill="black"/>
<path d="M155.306 186.954C155.749 187.271 156.526 187.836 157.09 188.274C157.179 188.344 157.292 188.376 157.404 188.363C157.517 188.349 157.619 188.292 157.69 188.204C158.773 186.716 159.716 185.132 160.507 183.471C160.549 183.389 160.563 183.296 160.548 183.205C160.532 183.114 160.488 183.031 160.421 182.967L159.01 181.566C158.965 181.521 158.911 181.487 158.851 181.465C158.792 181.444 158.728 181.436 158.665 181.442C158.601 181.448 158.54 181.469 158.486 181.501C158.432 181.534 158.385 181.579 158.35 181.632L155.205 186.359C155.172 186.405 155.149 186.456 155.136 186.511C155.123 186.566 155.122 186.622 155.131 186.678C155.14 186.733 155.161 186.786 155.191 186.833C155.221 186.881 155.26 186.922 155.306 186.954Z" fill="#5C67AE"/>
<path opacity="0.3" d="M155.306 186.954C155.749 187.271 156.526 187.836 157.09 188.274C157.179 188.344 157.292 188.376 157.404 188.363C157.517 188.349 157.619 188.292 157.69 188.204C158.773 186.716 159.716 185.132 160.507 183.471C160.549 183.389 160.563 183.296 160.548 183.205C160.532 183.114 160.488 183.031 160.421 182.967L159.01 181.566C158.965 181.521 158.911 181.487 158.851 181.465C158.792 181.444 158.728 181.436 158.665 181.442C158.601 181.448 158.54 181.469 158.486 181.501C158.432 181.534 158.385 181.579 158.35 181.632L155.205 186.359C155.172 186.405 155.149 186.456 155.136 186.511C155.123 186.566 155.122 186.622 155.131 186.678C155.14 186.733 155.161 186.786 155.191 186.833C155.221 186.881 155.26 186.922 155.306 186.954Z" fill="white"/>
<path d="M139.068 212.219C142.752 212.219 142.49 212.164 144.566 212.093C146.346 212.033 146.749 212.249 148.175 212.219C149.365 212.194 149.425 211.055 149.183 209.745C149.062 209.089 148.85 208.283 148.679 207.225H143.085C142.578 208.009 141.901 208.67 141.105 209.157C140.308 209.645 139.412 209.947 138.483 210.042C136.482 210.304 137.591 212.219 139.068 212.219Z" fill="#263238"/>
<path d="M131.727 111.082C131.727 111.082 137.512 142.934 139.634 157.374C141.857 172.534 144.604 197.145 143.092 207.22C143.908 207.724 146.942 207.749 148.686 207.22C148.686 207.22 157.531 172.64 150.143 158.044C154.346 122.563 148.127 120.713 146.413 111.082H131.727Z" fill="#5C67AE"/>
<path d="M142.863 205.128C142.786 205.825 142.658 206.516 142.48 207.194C142.462 207.248 142.457 207.306 142.464 207.362C142.471 207.418 142.49 207.473 142.521 207.521C142.551 207.569 142.591 207.609 142.639 207.64C142.687 207.671 142.741 207.691 142.797 207.698C144.813 208.026 147.837 207.552 148.78 207.386C148.869 207.366 148.952 207.323 149.019 207.26C149.085 207.196 149.133 207.116 149.158 207.028L149.637 205.093C149.655 205.033 149.659 204.97 149.648 204.908C149.638 204.847 149.612 204.789 149.574 204.74C149.536 204.69 149.486 204.651 149.43 204.624C149.373 204.598 149.311 204.586 149.248 204.589L143.321 204.705C143.209 204.713 143.102 204.76 143.019 204.837C142.935 204.914 142.881 205.016 142.863 205.128Z" fill="#5C67AE"/>
<path opacity="0.3" d="M142.863 205.128C142.786 205.825 142.658 206.516 142.48 207.194C142.462 207.248 142.457 207.306 142.464 207.362C142.471 207.418 142.49 207.473 142.521 207.521C142.551 207.569 142.591 207.609 142.639 207.64C142.687 207.671 142.741 207.691 142.797 207.698C144.813 208.026 147.837 207.552 148.78 207.386C148.869 207.366 148.952 207.323 149.019 207.26C149.085 207.196 149.133 207.116 149.158 207.028L149.637 205.093C149.655 205.033 149.659 204.97 149.648 204.908C149.638 204.847 149.612 204.789 149.574 204.74C149.536 204.69 149.486 204.651 149.43 204.624C149.373 204.598 149.311 204.586 149.248 204.589L143.321 204.705C143.209 204.713 143.102 204.76 143.019 204.837C142.935 204.914 142.881 205.016 142.863 205.128Z" fill="white"/>
<path d="M131.217 83.16C127.548 83.8505 126.772 85.3524 124.07 90.9266C124.887 94.5907 129.272 97.8113 129.272 97.8113C129.272 97.8113 137.27 87.9228 131.217 83.16Z" fill="#263238"/>
<path d="M125.402 90.1253C125.341 92.0808 125.533 94.4446 125.971 99.0965C126.268 103.038 125.286 110.532 126.53 111.082H146.413C146.811 105.437 146.665 101.551 150.239 88.9459C150.453 88.2857 150.517 87.5857 150.424 86.8977C150.332 86.2097 150.087 85.5511 149.706 84.9706C149.325 84.3901 148.819 83.9025 148.225 83.5438C147.63 83.1851 146.963 82.9643 146.272 82.8979C145.481 82.8173 144.649 82.7518 143.787 82.7115C140.782 82.4945 137.766 82.4945 134.761 82.7115C133.778 82.7971 132.745 82.9231 131.787 83.0592C130.068 83.3126 128.491 84.1562 127.325 85.4455C126.16 86.7348 125.48 88.3893 125.402 90.1253Z" fill="#263238"/>
<path d="M143.132 72.576C142.346 75.4841 141.378 80.8063 143.268 82.7467C143.268 82.7467 140.516 82.3334 134.675 85.9471C132.982 83.5178 134.237 82.7467 134.237 82.7467C137.538 81.9705 137.633 79.5665 137.235 77.3085L143.132 72.576Z" fill="#B55B52"/>
<path d="M135.922 85.2012C137.847 85.4784 138.442 88.3815 138.442 88.3815C138.442 88.3815 143.064 85.1155 144.525 82.8072C143.944 82.4799 143.38 82.1216 142.837 81.7337C142.837 81.7337 137.046 84.0924 135.922 85.2012Z" fill="white"/>
<path d="M134.098 84.8937C134.098 84.8937 132.586 85.2213 131.805 87.3482C131.366 83.1095 133.377 82.7215 133.377 82.7215C133.905 82.4244 134.525 82.3346 135.116 82.4695C134.691 82.6925 134.357 83.0565 134.172 83.4988C133.986 83.9411 133.96 84.4343 134.098 84.8937Z" fill="white"/>
<path opacity="0.2" d="M140.751 74.4962L137.258 77.2934C137.359 77.8219 137.413 78.3582 137.419 78.8961C138.669 78.7147 140.473 77.3841 140.7 76.0637C140.809 75.5483 140.827 75.0176 140.751 74.4962Z" fill="black"/>
<path d="M147.04 68.7003C145.332 73.1556 144.702 75.0759 141.662 76.8046C137.091 79.4052 131.97 76.6483 132.313 71.8452C132.621 67.5259 135.372 60.9689 140.407 60.3187C141.484 60.1408 142.588 60.2544 143.606 60.6476C144.623 61.0408 145.517 61.6994 146.194 62.5548C146.871 63.4103 147.306 64.4314 147.455 65.5121C147.604 66.5928 147.461 67.6937 147.04 68.7003Z" fill="#B55B52"/>
<path d="M135.922 60.4246C136.285 62.8186 143.663 65.1773 145.064 64.89C143.3 66.4574 144.505 73.3874 148.255 71.2606C149.238 63.1663 144.51 55.9742 135.922 60.4246Z" fill="#263238"/>
<path opacity="0.2" d="M140.617 68.3021C141.228 68.126 141.883 68.1966 142.442 68.4986C141.826 68.555 141.206 68.4882 140.617 68.3021Z" fill="black"/>
<path opacity="0.2" d="M140.578 68.7406C140.864 68.7194 141.151 68.7607 141.419 68.8616C141.687 68.9626 141.93 69.1208 142.13 69.3252C141.577 69.2453 141.047 69.0458 140.578 68.7406Z" fill="black"/>
<path d="M139.612 68.1307C139.486 68.5087 139.183 68.7658 138.936 68.7002C138.689 68.6347 138.593 68.2769 138.719 67.8989C138.845 67.5209 139.153 67.2588 139.4 67.3243C139.647 67.3898 139.722 67.7477 139.612 68.1307Z" fill="#263238"/>
<path d="M134.924 66.9867C134.798 67.3697 134.496 67.6217 134.249 67.5612C134.002 67.5008 133.906 67.1328 134.032 66.7548C134.158 66.3768 134.465 66.1198 134.712 66.1853C134.959 66.2508 135.07 66.6087 134.924 66.9867Z" fill="#263238"/>
<path d="M134.816 66.2306L134 65.7266C134 65.7266 134.222 66.5683 134.816 66.2306Z" fill="#263238"/>
<path d="M136.009 67.9493C135.38 68.7293 134.655 69.4269 133.852 70.0258C134.003 70.2146 134.195 70.367 134.413 70.4717C134.631 70.5764 134.87 70.6307 135.112 70.6306L136.009 67.9493Z" fill="#A02724"/>
<path d="M136.811 72.6012C136.592 72.5802 136.374 72.5431 136.161 72.4903C136.146 72.487 136.132 72.4805 136.12 72.4713C136.108 72.4621 136.098 72.4504 136.091 72.4371C136.083 72.4237 136.079 72.4089 136.078 72.3937C136.077 72.3786 136.08 72.3634 136.085 72.3492C136.094 72.3193 136.115 72.294 136.142 72.2781C136.169 72.2623 136.201 72.2571 136.231 72.2635C136.714 72.3923 137.219 72.4107 137.709 72.3173C138.199 72.2239 138.663 72.0212 139.064 71.7242C139.075 71.7131 139.087 71.7043 139.102 71.6982C139.116 71.6922 139.131 71.6891 139.147 71.6891C139.162 71.6891 139.178 71.6922 139.192 71.6982C139.206 71.7043 139.219 71.7131 139.23 71.7242C139.251 71.7467 139.263 71.7765 139.263 71.8074C139.263 71.8383 139.251 71.8681 139.23 71.8906C138.539 72.4174 137.677 72.6704 136.811 72.6012Z" fill="#263238"/>
<path d="M147.059 72.5105C146.799 72.8859 146.463 73.2027 146.073 73.4405C145.684 73.6783 145.248 73.832 144.796 73.8915C143.672 73.9872 143.42 72.6718 143.989 71.5025C144.493 70.4491 145.713 69.1337 146.716 69.5823C147.719 70.0308 147.79 71.5227 147.059 72.5105Z" fill="#B55B52"/>
<path d="M141.171 66.1903C141.142 66.1792 141.115 66.1623 141.093 66.1407C141.07 66.119 141.052 66.0931 141.04 66.0643C140.945 65.7972 140.785 65.5576 140.575 65.3669C140.365 65.1762 140.111 65.0401 139.836 64.9706C139.806 64.9667 139.778 64.9565 139.753 64.9407C139.728 64.9248 139.706 64.9037 139.69 64.8789C139.674 64.854 139.663 64.8259 139.659 64.7965C139.654 64.7671 139.656 64.7371 139.664 64.7085C139.68 64.647 139.718 64.5936 139.771 64.559C139.825 64.5244 139.889 64.5112 139.952 64.5221C140.301 64.6038 140.625 64.7715 140.893 65.01C141.162 65.2485 141.367 65.5503 141.489 65.8879C141.508 65.9467 141.504 66.0108 141.476 66.0664C141.449 66.122 141.401 66.1646 141.343 66.1853C141.288 66.2069 141.227 66.2087 141.171 66.1903Z" fill="#263238"/>
<path d="M134.12 64.4666C134.092 64.4613 134.065 64.4499 134.042 64.4334C134.018 64.4169 133.999 64.3956 133.984 64.3709C133.969 64.3448 133.959 64.316 133.955 64.286C133.951 64.2561 133.953 64.2257 133.961 64.1966C133.969 64.1675 133.983 64.1403 134.002 64.1166C134.02 64.0928 134.043 64.073 134.07 64.0584C134.386 63.8527 134.746 63.7221 135.12 63.6767C135.495 63.6312 135.875 63.6722 136.232 63.7963C136.259 63.8086 136.284 63.8264 136.304 63.8486C136.324 63.8708 136.339 63.897 136.349 63.9254C136.358 63.9538 136.361 63.9839 136.359 64.0137C136.356 64.0435 136.347 64.0725 136.333 64.0987C136.303 64.1539 136.255 64.1964 136.196 64.2178C136.138 64.2392 136.073 64.2381 136.015 64.2146C135.732 64.1205 135.431 64.0916 135.135 64.13C134.84 64.1684 134.556 64.2731 134.307 64.4364C134.251 64.4708 134.184 64.4816 134.12 64.4666Z" fill="#263238"/>
<path d="M139.481 67.3747L138.664 66.8707C138.664 66.8707 138.886 67.7074 139.481 67.3747Z" fill="#263238"/>
<path d="M152.145 88.0387C152.321 88.4268 152.442 88.704 152.578 89.0215C152.714 89.339 152.825 89.6414 152.946 89.9539C153.183 90.5688 153.385 91.1938 153.586 91.8187C153.981 93.0736 154.307 94.3489 154.564 95.639C154.7 96.2842 154.806 96.9394 154.912 97.5895C155.018 98.2397 155.088 98.91 155.139 99.5753C155.257 100.916 155.286 102.263 155.224 103.607V103.824C155.219 103.994 155.197 104.163 155.159 104.328C155 104.991 154.707 105.613 154.297 106.158C153.856 106.745 153.278 107.215 152.614 107.528C151.704 107.938 150.703 108.1 149.711 107.997C149.037 107.939 148.372 107.804 147.73 107.594C147.172 107.421 146.626 107.215 146.092 106.979C145.112 106.534 144.165 106.019 143.259 105.437C142.369 104.872 141.517 104.249 140.709 103.572C140.399 103.311 140.187 102.952 140.11 102.554C140.033 102.156 140.095 101.743 140.286 101.386C140.477 101.028 140.785 100.746 141.158 100.588C141.531 100.43 141.948 100.405 142.337 100.518L142.438 100.548C143.315 100.795 144.242 101.087 145.129 101.329C146.016 101.571 146.903 101.798 147.745 101.949C148.163 102.025 148.566 102.09 148.934 102.12C149.243 102.152 149.553 102.152 149.862 102.12C150.073 102.12 150.144 101.969 149.811 102.075C149.584 102.163 149.386 102.311 149.237 102.504C149.113 102.653 149.017 102.824 148.955 103.008L148.879 103.678C148.793 102.609 148.677 101.541 148.486 100.462C148.294 99.3838 148.062 98.3102 147.78 97.2367C147.498 96.1632 147.191 95.0947 146.838 94.0363C146.666 93.5323 146.48 92.9779 146.293 92.4588L146.011 91.6877L145.744 90.9922L145.674 90.8107C145.41 89.9725 145.47 89.0663 145.839 88.2694C146.209 87.4725 146.863 86.8422 147.673 86.5019C148.483 86.1615 149.391 86.1356 150.219 86.4292C151.047 86.7227 151.735 87.3146 152.15 88.0891L152.145 88.0387Z" fill="#B55B52"/>
<path d="M146.453 82.9433C149.693 83.4473 150.989 84.4251 153.635 90.9317C152.435 93.3559 146.81 95.6794 146.81 95.6794C146.81 95.6794 142.405 87.696 146.453 82.9433Z" fill="#263238"/>
<path d="M110.882 148.468L110.02 144.799C107.853 135.551 110.453 126.207 112.968 117.175C115.156 109.333 117.217 101.929 115.725 95.5836L116.869 95.3165C118.427 101.954 116.325 109.499 114.097 117.492C111.623 126.383 109.057 135.576 111.164 144.532L112.026 148.201L110.882 148.468Z" fill="#5C67AE"/>
<path d="M109.641 95.0712C111.225 75.2518 96.4426 57.9007 76.6231 56.3165C56.8037 54.7324 39.4526 69.5149 37.8684 89.3344C36.2842 109.154 51.0668 126.505 70.8863 128.089C90.7057 129.673 108.057 114.891 109.641 95.0712Z" fill="#5C67AE"/>
<path opacity="0.2" d="M109.641 95.0712C111.225 75.2518 96.4426 57.9007 76.6231 56.3165C56.8037 54.7324 39.4526 69.5149 37.8684 89.3344C36.2842 109.154 51.0668 126.505 70.8863 128.089C90.7057 129.673 108.057 114.891 109.641 95.0712Z" fill="black"/>
<path d="M77.6576 121.388C74.4878 121.388 71.3824 120.494 68.6975 118.809C66.0125 117.124 63.8568 114.717 62.4774 111.863C61.098 109.009 60.5509 105.824 60.8987 102.674C61.2466 99.5233 62.4754 96.5345 64.4441 94.0503C66.4129 91.5661 69.0419 89.687 72.0297 88.6286C75.0175 87.5702 78.2431 87.3753 81.3367 88.0662C84.4302 88.7572 87.2664 90.306 89.5199 92.535C91.7735 94.7641 93.3532 97.5832 94.0779 100.669C94.6562 103.144 94.6681 105.718 94.1127 108.198C93.5572 110.678 92.4488 113.001 90.8701 114.993C89.2914 116.985 87.2833 118.595 84.9955 119.702C82.7076 120.81 80.1993 121.386 77.6576 121.388ZM77.6576 88.825C74.3987 88.8249 71.2206 89.8393 68.5644 91.7274C65.9082 93.6155 63.9056 96.2837 62.8346 99.3615C61.7636 102.439 61.6772 105.774 62.5875 108.903C63.4978 112.033 65.3596 114.801 67.9146 116.824C70.4695 118.847 73.5908 120.024 76.8453 120.193C80.0999 120.362 83.3261 119.513 86.0765 117.765C88.8268 116.017 90.9647 113.456 92.1935 110.437C93.4223 107.419 93.681 104.093 92.9338 100.921C92.1188 97.4806 90.1677 94.4154 87.3959 92.2206C84.624 90.0258 81.1932 88.8295 77.6576 88.825Z" fill="white"/>
<path d="M74.8303 61.1554L87.2388 114.04C87.6557 115.813 88.7595 117.348 90.3075 118.307C91.8556 119.266 93.7212 119.571 95.4943 119.156L131.5 110.709C132.936 110.368 134.224 109.575 135.176 108.447C136.127 107.32 136.692 105.916 136.787 104.444C137.267 97.1246 136.098 89.7909 133.366 82.9836C130.635 76.1763 126.409 70.0691 121.002 65.1125C115.595 60.1559 109.145 56.4763 102.126 54.3452C95.1075 52.214 87.7 51.6856 80.4499 52.799C79.5162 52.946 78.6229 53.2841 77.8258 53.7921C77.0287 54.3001 76.345 54.9672 75.8176 55.7515C75.2901 56.5359 74.9302 57.4206 74.7603 58.3505C74.5904 59.2803 74.6143 60.2352 74.8303 61.1554Z" fill="#5C67AE"/>
<path opacity="0.4" d="M74.8303 61.1554L87.2388 114.04C87.6557 115.813 88.7595 117.348 90.3075 118.307C91.8556 119.266 93.7212 119.571 95.4943 119.156L131.5 110.709C132.936 110.368 134.224 109.575 135.176 108.447C136.127 107.32 136.692 105.916 136.787 104.444C137.267 97.1246 136.098 89.7909 133.366 82.9836C130.635 76.1763 126.409 70.0691 121.002 65.1125C115.595 60.1559 109.145 56.4763 102.126 54.3452C95.1075 52.214 87.7 51.6856 80.4499 52.799C79.5162 52.946 78.6229 53.2841 77.8258 53.7921C77.0287 54.3001 76.345 54.9672 75.8176 55.7515C75.2901 56.5359 74.9302 57.4206 74.7603 58.3505C74.5904 59.2803 74.6143 60.2352 74.8303 61.1554Z" fill="white"/>
<path d="M120.003 157.248L85.9775 165.206C85.5654 165.301 85.1331 165.249 84.7556 165.058C84.3781 164.868 84.0793 164.551 83.9111 164.163L80.8871 157.147C80.7838 156.906 80.7347 156.644 80.7431 156.382C80.7516 156.119 80.8175 155.862 80.9361 155.627C81.0548 155.393 81.2233 155.187 81.4299 155.025C81.6365 154.863 81.8761 154.747 82.132 154.688L118.758 146.089C119.014 146.03 119.28 146.028 119.537 146.082C119.795 146.137 120.037 146.247 120.247 146.405C120.458 146.563 120.631 146.765 120.755 146.997C120.879 147.229 120.951 147.485 120.965 147.748L121.384 155.373C121.411 155.798 121.287 156.219 121.035 156.562C120.782 156.905 120.417 157.148 120.003 157.248Z" fill="#5C67AE"/>
<path d="M117.538 162.792L90.6599 169.102C90.2401 169.199 89.7994 169.143 89.4177 168.943C89.0359 168.743 88.7382 168.413 88.5783 168.013L86.144 161.925C86.0479 161.685 86.0049 161.426 86.0179 161.168C86.0308 160.909 86.0995 160.656 86.2191 160.426C86.3387 160.197 86.5065 159.996 86.711 159.837C86.9155 159.678 87.1519 159.565 87.404 159.506L116.187 152.712C116.439 152.652 116.701 152.648 116.955 152.699C117.208 152.75 117.448 152.855 117.657 153.007C117.866 153.159 118.04 153.355 118.167 153.581C118.293 153.806 118.369 154.057 118.39 154.315L118.924 160.867C118.966 161.301 118.848 161.736 118.593 162.09C118.338 162.444 117.963 162.694 117.538 162.792Z" fill="#5C67AE"/>
<path d="M114.882 167.938L95.3469 172.524C94.9179 172.623 94.4675 172.562 94.0804 172.353C93.6933 172.143 93.3962 171.799 93.2452 171.385L91.3199 166.093C91.2327 165.854 91.1972 165.6 91.2157 165.346C91.2343 165.093 91.3064 164.846 91.4275 164.623C91.5485 164.399 91.7156 164.204 91.9178 164.05C92.1199 163.896 92.3525 163.787 92.6001 163.729L113.43 158.841C113.678 158.782 113.936 158.777 114.186 158.825C114.436 158.873 114.673 158.974 114.881 159.121C115.089 159.268 115.264 159.457 115.394 159.676C115.523 159.895 115.605 160.14 115.633 160.393L116.258 165.987C116.309 166.425 116.197 166.866 115.943 167.226C115.689 167.585 115.311 167.839 114.882 167.938Z" fill="#5C67AE"/>
<path d="M104.33 98.28C103.375 94.2311 100.853 90.7263 97.3177 88.5342C93.7821 86.3422 89.5214 85.642 85.4702 86.5872L85.2031 85.4482C89.5571 84.4304 94.137 85.1819 97.9375 87.5376C101.738 89.8933 104.448 93.6607 105.474 98.0129L104.33 98.28Z" fill="#5C67AE"/>
<path opacity="0.2" d="M83.2118 58.3279L65.8742 64.26L65.6172 65.6914L67.0989 66.7095L66.8167 68.2719L68.0767 69.5571L68.0666 70.9531L85.1976 65.0866L85.7016 63.6804L84.1845 62.4103L84.3357 60.7471L83.0203 59.845L83.2118 58.3279Z" fill="white"/>
<path d="M100.437 116.036C96.1297 116.031 91.9876 114.379 88.8586 111.42C85.7295 108.46 83.8502 104.416 83.6054 100.116C83.3607 95.8161 84.769 91.5852 87.542 88.2896C90.315 84.9941 94.2429 82.8832 98.5215 82.3893C102.8 81.8955 107.106 83.0558 110.557 85.6329C114.008 88.21 116.343 92.0088 117.084 96.2516C117.825 100.494 116.917 104.86 114.544 108.455C112.172 112.049 108.515 114.601 104.323 115.587C103.049 115.886 101.745 116.036 100.437 116.036ZM100.497 83.4674C98.1293 83.4667 95.7919 84.0008 93.6593 85.0297C91.5267 86.0587 89.654 87.556 88.1809 89.4099C86.7079 91.2638 85.6725 93.4264 85.1522 95.7364C84.6318 98.0464 84.6398 100.444 85.1756 102.75C85.6462 104.757 86.5073 106.65 87.7097 108.324C88.9122 109.997 90.4325 111.417 92.1838 112.503C93.9351 113.589 95.883 114.319 97.9165 114.652C99.95 114.985 102.029 114.914 104.035 114.443C106.041 113.973 107.935 113.112 109.608 111.909C111.282 110.707 112.702 109.186 113.788 107.435C114.873 105.684 115.604 103.736 115.937 101.702C116.269 99.6688 116.199 97.5897 115.728 95.5836C114.916 92.1474 112.97 89.085 110.204 86.8904C107.438 84.6959 104.013 83.4971 100.482 83.4876L100.497 83.4674Z" fill="#5C67AE"/>
<path d="M94.846 105.18L105.884 142.566L63.4619 155.096L50.9375 112.674L77.7301 104.761L94.846 105.18Z" fill="#5C67AE"/>
<path opacity="0.8" d="M94.846 105.18L105.884 142.566L63.4619 155.096L50.9375 112.674L77.7301 104.761L94.846 105.18Z" fill="white"/>
<path d="M94.8502 105.18L85.3549 111.596L77.7344 104.761L94.8502 105.18Z" fill="#5C67AE"/>
<path d="M64.5106 113.717C64.7202 114.445 65.0145 115.145 65.3875 115.804C65.7768 116.463 66.2364 117.078 66.7584 117.639C67.8118 118.788 69.097 119.826 70.3519 120.94C71.6357 122.042 72.8526 123.22 73.9959 124.468C74.5704 125.098 75.1147 125.753 75.6439 126.423C76.1731 127.094 76.6519 127.724 77.1862 128.364C79.2576 130.919 81.5307 133.338 83.5719 136.05C84.6097 137.411 85.5334 138.856 86.3338 140.369C87.1339 141.899 87.7497 143.518 88.1683 145.192C88.2265 145.393 88.2026 145.608 88.1019 145.791C88.0013 145.974 87.8321 146.109 87.6316 146.168C87.4311 146.226 87.2157 146.202 87.0328 146.101C86.8499 146 86.7145 145.831 86.6563 145.631C85.5991 142.589 84.0122 139.758 81.9691 137.269C79.9531 134.704 77.7507 132.229 75.6792 129.568C75.1752 128.918 74.646 128.223 74.1672 127.588C73.6884 126.953 73.1592 126.328 72.6099 125.728C71.5177 124.524 70.3565 123.385 69.1323 122.316C67.9075 121.217 66.6123 120.164 65.4027 118.863C64.7951 118.201 64.2595 117.476 63.805 116.701C63.3586 115.905 63.0084 115.06 62.7617 114.181C62.7142 113.954 62.7543 113.718 62.8739 113.519C62.9936 113.321 63.184 113.175 63.4068 113.111C63.6296 113.047 63.8683 113.07 64.075 113.175C64.2816 113.28 64.4408 113.46 64.5207 113.677L64.5106 113.717Z" fill="#5C67AE"/>
<path d="M105.096 178.245C103.591 178.243 102.117 177.818 100.843 177.018C99.5681 176.217 98.5451 175.074 97.8906 173.719C97.2362 172.364 96.9768 170.851 97.1423 169.356C97.3078 167.86 97.8914 166.441 98.8262 165.261C99.761 164.082 101.009 163.19 102.428 162.687C103.846 162.185 105.378 162.092 106.847 162.42C108.315 162.748 109.662 163.483 110.732 164.541C111.803 165.598 112.553 166.937 112.898 168.402C113.171 169.578 113.175 170.801 112.91 171.979C112.644 173.158 112.117 174.261 111.366 175.207C110.615 176.153 109.66 176.918 108.573 177.444C107.486 177.969 106.294 178.243 105.086 178.245H105.096ZM105.126 163.392C104.595 163.392 104.066 163.453 103.549 163.573C102.232 163.882 101.036 164.575 100.113 165.563C99.1892 166.552 98.5797 167.792 98.3612 169.127C98.1427 170.462 98.325 171.832 98.885 173.063C99.445 174.294 100.358 175.332 101.507 176.045C102.657 176.758 103.992 177.113 105.344 177.067C106.696 177.021 108.004 176.575 109.103 175.785C110.201 174.996 111.041 173.898 111.515 172.631C111.99 171.365 112.078 169.986 111.769 168.669C111.416 167.17 110.569 165.834 109.364 164.877C108.158 163.919 106.666 163.396 105.126 163.392Z" fill="#5C67AE"/>
<path d="M137.333 97.9826L138.81 97.8415C139.084 97.8155 139.36 97.8549 139.616 97.9566C139.872 98.0582 140.1 98.2192 140.281 98.4262L141.99 100.392C142.328 100.78 142.568 101.243 142.69 101.743C142.812 102.243 142.812 102.765 142.69 103.265L142.539 103.89C140.105 104.293 137.177 102.937 137.177 102.937L136.3 102.645C136.118 102.589 135.949 102.499 135.803 102.378C135.657 102.257 135.536 102.109 135.447 101.941C135.359 101.773 135.304 101.59 135.287 101.401C135.27 101.212 135.29 101.021 135.347 100.84L135.907 99.0914C136.013 98.7892 136.204 98.5239 136.457 98.3273C136.71 98.1306 137.014 98.011 137.333 97.9826Z" fill="#B55B52"/>
</svg>
