<svg width="210" height="166" viewBox="0 0 210 166" fill="none" xmlns="http://www.w3.org/2000/svg">
<g clip-path="url(#clip0_348_8865)">
<path d="M19.87 63.6081H10.8828C10.6394 63.6078 10.4061 63.511 10.234 63.339C10.0619 63.1669 9.96513 62.9336 9.96484 62.6902V33.078C9.96513 32.8347 10.0619 32.6014 10.234 32.4293C10.4061 32.2572 10.6394 32.1604 10.8828 32.1602H19.87C20.1134 32.1604 20.3467 32.2572 20.5188 32.4293C20.6908 32.6014 20.7877 32.8347 20.7879 33.078V62.6902C20.7877 62.9336 20.6908 63.1669 20.5188 63.339C20.3467 63.511 20.1134 63.6078 19.87 63.6081Z" fill="#6C63FF"/>
<path d="M36.2606 63.6079H27.2734C27.0301 63.6076 26.7967 63.5109 26.6247 63.3388C26.4526 63.1667 26.3558 62.9334 26.3555 62.69V21.3271C26.3558 21.0837 26.4526 20.8504 26.6247 20.6783C26.7967 20.5062 27.0301 20.4095 27.2734 20.4092H36.2606C36.504 20.4095 36.7373 20.5062 36.9094 20.6783C37.0815 20.8504 37.1783 21.0837 37.1786 21.3271V62.69C37.1783 62.9334 37.0815 63.1667 36.9094 63.3388C36.7373 63.5109 36.504 63.6076 36.2606 63.6079Z" fill="#6C63FF"/>
<path d="M52.6473 63.6081H43.6601C43.4168 63.6078 43.1835 63.511 43.0114 63.339C42.8393 63.1669 42.7425 62.9336 42.7422 62.6902V33.078C42.7425 32.8347 42.8393 32.6014 43.0114 32.4293C43.1835 32.2572 43.4168 32.1604 43.6601 32.1602H52.6473C52.8907 32.1604 53.124 32.2572 53.2961 32.4293C53.4682 32.6014 53.565 32.8347 53.5653 33.078V62.6902C53.565 62.9336 53.4682 63.1669 53.2961 63.339C53.124 63.511 52.8907 63.6078 52.6473 63.6081Z" fill="#6C63FF"/>
<path d="M69.038 63.608H60.0508C59.813 63.6132 59.5828 63.5238 59.4107 63.3596C59.2387 63.1953 59.1387 62.9695 59.1328 62.7317V16.6471C59.1387 16.4093 59.2387 16.1836 59.4107 16.0193C59.5828 15.8551 59.813 15.7657 60.0508 15.7708H69.038C69.2758 15.7657 69.5059 15.8551 69.678 16.0193C69.85 16.1836 69.95 16.4093 69.9559 16.6471V62.7317C69.95 62.9695 69.85 63.1953 69.678 63.3596C69.5059 63.5238 69.2758 63.6132 69.038 63.608Z" fill="#6C63FF"/>
<path d="M85.4266 63.6081H76.4394C76.1961 63.6078 75.9628 63.511 75.7907 63.339C75.6186 63.1669 75.5218 62.9336 75.5215 62.6902V8.33951C75.5218 8.09615 75.6186 7.86284 75.7907 7.69077C75.9628 7.51869 76.1961 7.4219 76.4394 7.42163H85.4266C85.67 7.4219 85.9033 7.51869 86.0754 7.69077C86.2475 7.86284 86.3443 8.09615 86.3446 8.33951V62.6902C86.3443 62.9336 86.2475 63.1669 86.0754 63.339C85.9033 63.511 85.67 63.6078 85.4266 63.6081Z" fill="#6C63FF"/>
<path d="M15.3769 28.4494C16.4016 28.4494 17.2323 27.6187 17.2323 26.594C17.2323 25.5693 16.4016 24.7386 15.3769 24.7386C14.3522 24.7386 13.5215 25.5693 13.5215 26.594C13.5215 27.6187 14.3522 28.4494 15.3769 28.4494Z" fill="#3F3D56"/>
<path d="M31.7695 16.3894C32.7942 16.3894 33.6248 15.5587 33.6248 14.534C33.6248 13.5093 32.7942 12.6786 31.7695 12.6786C30.7447 12.6786 29.9141 13.5093 29.9141 14.534C29.9141 15.5587 30.7447 16.3894 31.7695 16.3894Z" fill="#3F3D56"/>
<path d="M48.1542 28.4494C49.1789 28.4494 50.0096 27.6187 50.0096 26.594C50.0096 25.5693 49.1789 24.7386 48.1542 24.7386C47.1295 24.7386 46.2988 25.5693 46.2988 26.594C46.2988 27.6187 47.1295 28.4494 48.1542 28.4494Z" fill="#3F3D56"/>
<path d="M64.5448 10.5139C65.5695 10.5139 66.4002 9.68319 66.4002 8.65849C66.4002 7.63379 65.5695 6.8031 64.5448 6.8031C63.5201 6.8031 62.6895 7.63379 62.6895 8.65849C62.6895 9.68319 63.5201 10.5139 64.5448 10.5139Z" fill="#3F3D56"/>
<path d="M80.9355 3.71078C81.9602 3.71078 82.7909 2.88009 82.7909 1.85539C82.7909 0.830686 81.9602 0 80.9355 0C79.9108 0 79.0801 0.830686 79.0801 1.85539C79.0801 2.88009 79.9108 3.71078 80.9355 3.71078Z" fill="#3F3D56"/>
<path d="M95.9583 63.9527H0.144734C0.106348 63.9527 0.0695342 63.9374 0.0423914 63.9103C0.0152486 63.8831 0 63.8463 0 63.8079C0 63.7696 0.0152486 63.7327 0.0423914 63.7056C0.0695342 63.6785 0.106348 63.6632 0.144734 63.6632H95.9583C95.9967 63.6632 96.0335 63.6785 96.0607 63.7056C96.0878 63.7327 96.1031 63.7696 96.1031 63.8079C96.1031 63.8463 96.0878 63.8831 96.0607 63.9103C96.0335 63.9374 95.9967 63.9527 95.9583 63.9527Z" fill="#CBCBCB"/>
<path d="M15.2783 26.7099L15.1055 26.4778L31.7666 14.0737L48.1028 26.2588L64.6627 8.27943L64.6923 8.26727L80.7635 1.63428L80.874 1.90189L64.8323 8.52258L48.1389 26.6468L31.7665 14.4347L15.2783 26.7099Z" fill="#3F3D56"/>
</g>
<path d="M205.207 114.042H198.108C197.956 114.042 197.806 114.008 197.669 113.942C197.533 113.876 197.413 113.78 197.318 113.662C197.225 113.546 197.16 113.41 197.126 113.265C197.093 113.121 197.093 112.97 197.126 112.825C197.793 109.881 197.76 106.822 197.032 103.892C196.976 103.668 196.999 103.431 197.097 103.223C197.196 103.014 197.364 102.845 197.573 102.746C200.538 101.358 203.262 101.394 205.667 102.854C205.793 102.929 205.901 103.031 205.984 103.153C206.066 103.274 206.122 103.412 206.145 103.557C206.655 106.742 206.675 109.986 206.203 113.177C206.17 113.417 206.051 113.637 205.867 113.796C205.684 113.955 205.45 114.042 205.207 114.042Z" fill="#6C63FF"/>
<path d="M205.099 109.389H199.67C199.535 109.389 199.406 109.335 199.311 109.24C199.216 109.144 199.162 109.015 199.162 108.88C199.162 108.745 199.216 108.616 199.311 108.52C199.406 108.425 199.535 108.371 199.67 108.37H205.099C205.234 108.371 205.363 108.425 205.458 108.52C205.554 108.616 205.607 108.745 205.607 108.88C205.607 109.015 205.554 109.144 205.458 109.24C205.363 109.335 205.234 109.389 205.099 109.389Z" fill="white"/>
<path d="M205.099 107.603H199.67C199.535 107.603 199.406 107.549 199.311 107.453C199.216 107.358 199.162 107.228 199.162 107.093C199.162 106.959 199.216 106.829 199.311 106.734C199.406 106.638 199.535 106.584 199.67 106.584H205.099C205.234 106.584 205.363 106.638 205.458 106.734C205.554 106.829 205.607 106.959 205.607 107.093C205.607 107.228 205.554 107.358 205.458 107.453C205.363 107.549 205.234 107.603 205.099 107.603Z" fill="white"/>
<path d="M63.0249 113.33C83.8616 113.33 100.753 96.4342 100.753 75.5923C100.753 54.7503 83.8616 37.8546 63.0249 37.8546C42.1883 37.8546 25.2969 54.7503 25.2969 75.5923C25.2969 96.4342 42.1883 113.33 63.0249 113.33Z" fill="#F2F2F2"/>
<path d="M106.78 112.213C110.726 112.213 113.924 109.014 113.924 105.068C113.924 101.121 110.726 97.9221 106.78 97.9221C102.835 97.9221 99.6367 101.121 99.6367 105.068C99.6367 109.014 102.835 112.213 106.78 112.213Z" fill="#F2F2F2"/>
<path d="M142.722 128.291C144.325 128.291 145.625 126.991 145.625 125.388C145.625 123.785 144.325 122.485 142.722 122.485C141.12 122.485 139.82 123.785 139.82 125.388C139.82 126.991 141.12 128.291 142.722 128.291Z" fill="#F2F2F2"/>
<path d="M165.131 136.805C163.907 127.451 158.048 118.264 149.102 115.274C152.684 124.888 152.751 135.459 149.291 145.117C147.943 148.837 146.056 152.834 147.371 156.566C148.188 158.888 150.163 160.656 152.366 161.755C154.568 162.855 157.008 163.37 159.417 163.874L159.893 164.263C163.657 155.612 166.355 146.16 165.131 136.805Z" fill="#389C13"/>
<path d="M149.015 115.452C154.25 121.245 157.528 128.54 158.382 136.302C158.555 137.966 158.586 139.669 158.232 141.313C157.876 142.912 157.097 144.387 155.978 145.583C154.957 146.72 153.781 147.765 153.054 149.13C152.287 150.569 152.268 152.198 152.809 153.718C153.47 155.578 154.76 157.089 156.073 158.523C157.531 160.114 159.071 161.745 159.7 163.864C159.776 164.12 160.17 163.987 160.093 163.731C158.999 160.044 155.402 157.97 153.671 154.654C152.864 153.107 152.517 151.307 153.255 149.664C153.899 148.227 155.111 147.149 156.155 146.007C157.251 144.808 158.089 143.494 158.515 141.913C158.951 140.296 158.986 138.588 158.857 136.927C158.535 133.162 157.623 129.472 156.155 125.99C154.501 122.008 152.179 118.338 149.288 115.138C149.109 114.94 148.837 115.255 149.015 115.452Z" fill="white"/>
<path d="M158.254 133.787C159.536 133.466 160.663 132.701 161.433 131.626C162.203 130.552 162.567 129.238 162.458 127.92C162.435 127.654 162.02 127.677 162.043 127.944C162.146 129.171 161.808 130.394 161.089 131.393C160.369 132.392 159.317 133.101 158.121 133.393C157.861 133.456 157.995 133.85 158.254 133.787Z" fill="white"/>
<path d="M156.57 145.075C154.241 143.704 152.514 141.506 151.734 138.918C151.657 138.662 151.263 138.795 151.34 139.051C152.157 141.743 153.959 144.027 156.385 145.448C156.617 145.583 156.8 145.21 156.57 145.075Z" fill="white"/>
<path d="M154.115 122.404C153.645 122.632 153.125 122.738 152.604 122.715C152.082 122.692 151.574 122.54 151.125 122.272C150.896 122.133 150.712 122.507 150.941 122.644C151.437 122.938 151.999 123.106 152.575 123.133C153.152 123.159 153.726 123.045 154.248 122.798C154.299 122.779 154.341 122.741 154.366 122.692C154.39 122.643 154.394 122.587 154.379 122.535C154.361 122.483 154.323 122.44 154.274 122.415C154.225 122.391 154.168 122.387 154.115 122.404Z" fill="white"/>
<path d="M122 132.17C122.141 132.261 122.282 132.351 122.423 132.445C124.311 133.669 126.096 135.045 127.761 136.559C127.891 136.674 128.022 136.792 128.149 136.911C132.122 140.6 135.375 144.995 137.743 149.872C138.684 151.814 139.476 153.825 140.112 155.886C140.99 158.734 141.715 161.891 143.431 164.214C143.608 164.458 143.799 164.691 144.004 164.912L159.381 164.814C159.416 164.796 159.451 164.782 159.486 164.764L160.1 164.788C160.075 164.679 160.046 164.567 160.021 164.459C160.006 164.395 159.989 164.332 159.974 164.269C159.963 164.227 159.953 164.185 159.945 164.147C159.942 164.133 159.938 164.119 159.935 164.108C159.927 164.07 159.916 164.035 159.909 164C159.751 163.372 159.588 162.745 159.42 162.118C159.42 162.115 159.42 162.115 159.417 162.111C158.126 157.336 156.426 152.627 154.066 148.326C153.995 148.196 153.924 148.063 153.846 147.934C152.771 146.001 151.54 144.159 150.165 142.427C149.409 141.481 148.606 140.573 147.758 139.708C145.564 137.478 143.033 135.606 140.257 134.162C134.723 131.285 128.331 130.21 122.448 132.027C122.298 132.074 122.15 132.12 122 132.17Z" fill="#50DC1B"/>
<path d="M122.037 132.365C129.704 133.837 136.712 137.688 142.067 143.372C143.206 144.596 144.256 145.937 144.963 147.462C145.641 148.954 145.907 150.601 145.734 152.23C145.602 153.753 145.292 155.295 145.533 156.823C145.788 158.433 146.753 159.746 148.1 160.634C149.747 161.721 151.687 162.15 153.598 162.504C155.72 162.897 157.931 163.272 159.708 164.585C159.923 164.744 160.158 164.4 159.943 164.241C156.85 161.957 152.729 162.467 149.351 160.862C147.776 160.113 146.416 158.885 146.015 157.129C145.665 155.593 145.984 154.002 146.13 152.462C146.283 150.844 146.162 149.291 145.55 147.772C144.924 146.218 143.925 144.833 142.822 143.585C140.299 140.773 137.349 138.375 134.081 136.48C130.364 134.296 126.3 132.764 122.067 131.95C121.805 131.9 121.777 132.315 122.037 132.365Z" fill="white"/>
<path d="M140.449 141.44C141.28 140.412 141.719 139.122 141.687 137.8C141.655 136.478 141.154 135.211 140.275 134.224C140.096 134.025 139.778 134.294 139.957 134.493C140.778 135.41 141.244 136.591 141.272 137.822C141.299 139.053 140.885 140.253 140.105 141.206C139.936 141.413 140.28 141.646 140.449 141.44Z" fill="white"/>
<path d="M145.901 151.467C143.216 151.775 140.514 151.059 138.334 149.463C138.118 149.305 137.884 149.648 138.099 149.807C140.372 151.463 143.185 152.202 145.978 151.875C146.244 151.844 146.166 151.436 145.901 151.467Z" fill="white"/>
<path d="M130.294 134.843C130.056 135.308 129.705 135.706 129.275 136.002C128.844 136.297 128.346 136.482 127.827 136.538C127.561 136.566 127.639 136.974 127.904 136.946C128.478 136.882 129.027 136.678 129.503 136.352C129.98 136.026 130.369 135.588 130.638 135.077C130.667 135.031 130.678 134.976 130.668 134.922C130.658 134.868 130.627 134.821 130.583 134.788C130.538 134.758 130.482 134.746 130.428 134.756C130.374 134.766 130.326 134.797 130.294 134.843Z" fill="white"/>
<path d="M195.751 100.247L193.672 80.1131L193.123 71.8268L198.944 70.774C198.944 70.774 199.815 76.4705 200.578 79.8134C201.33 83.1122 199.575 99.8046 199.529 100.245C199.956 100.627 200.257 101.13 200.393 101.688C200.528 102.245 200.491 102.83 200.287 103.366C200.082 103.902 199.72 104.363 199.248 104.689C198.776 105.014 198.216 105.189 197.642 105.189C197.069 105.189 196.509 105.015 196.037 104.69C195.564 104.365 195.201 103.904 194.996 103.369C194.791 102.833 194.754 102.248 194.889 101.69C195.023 101.133 195.324 100.629 195.751 100.247Z" fill="#876A27"/>
<path d="M171.967 162.066H169.006L167.598 150.642L171.968 150.642L171.967 162.066Z" fill="#876A27"/>
<path d="M172.721 164.936L163.174 164.936V164.815C163.174 163.83 163.565 162.884 164.262 162.187C164.959 161.49 165.904 161.098 166.89 161.098H166.89L168.634 159.775L171.888 161.099L172.722 161.099L172.721 164.936Z" fill="#2F2E41"/>
<path d="M198.065 162.066H195.104L193.695 150.642L198.066 150.642L198.065 162.066Z" fill="#876A27"/>
<path d="M198.821 164.936L189.273 164.936V164.815C189.274 163.83 189.665 162.884 190.362 162.187C191.059 161.49 192.004 161.098 192.99 161.098H192.99L194.734 159.775L197.988 161.099L198.821 161.099L198.821 164.936Z" fill="#2F2E41"/>
<path d="M193.56 100.924L196.05 124.589C196.05 124.589 199.366 148.285 198.743 151.555C198.12 154.824 198.899 155.291 198.899 155.291L193.218 154.887C193.218 154.887 193.373 152.862 192.439 151.928C191.505 150.994 191.972 148.192 191.972 148.192L180.952 109.643L174.259 129.883C174.259 129.883 173.169 152.147 173.013 152.458C172.858 152.77 172.391 156.973 172.391 156.973H166.632C166.632 156.973 167.41 154.482 166.32 153.704C165.231 152.925 164.297 153.548 165.231 152.147C166.165 150.746 166.476 149.033 166.165 148.255C165.853 147.476 165.853 144.362 165.853 144.362C165.853 144.362 166.32 102.325 168.966 100.924C171.613 99.5224 193.56 100.924 193.56 100.924Z" fill="#2F2E41"/>
<path d="M181.766 53.0072C185.149 53.0072 187.892 50.264 187.892 46.8801C187.892 43.4962 185.149 40.7531 181.766 40.7531C178.383 40.7531 175.641 43.4962 175.641 46.8801C175.641 50.264 178.383 53.0072 181.766 53.0072Z" fill="#876A27"/>
<path d="M199.925 73.9862L193.901 76.1473L192.066 76.805L190.727 59.6942L195.323 62.1325C195.331 62.1382 195.337 62.145 195.343 62.1528C196.139 63.0321 196.805 64.0208 197.322 65.0889C199.842 70.2144 199.925 73.9862 199.925 73.9862Z" fill="#FAE251"/>
<path d="M158.424 98.8012C158.424 98.8012 164.547 79.7718 164.654 79.5437C165.456 73.4519 167.763 70.7648 168.109 71.0565L174.062 73.1195C174.062 73.1195 172.291 78.7286 171.092 82.0603C169.947 85.2438 162.1 99.9421 161.88 100.326C162.117 100.848 162.189 101.431 162.088 101.995C161.987 102.56 161.716 103.08 161.313 103.488C160.909 103.895 160.392 104.171 159.828 104.278C159.265 104.384 158.682 104.318 158.158 104.086C157.633 103.855 157.191 103.469 156.89 102.981C156.589 102.493 156.443 101.925 156.472 101.352C156.501 100.779 156.703 100.229 157.052 99.7731C157.4 99.3176 157.879 98.9787 158.424 98.8012Z" fill="#876A27"/>
<path d="M176.922 60.7962C176.922 60.7962 171.767 58.2693 169.768 63.2322C168.459 66.5791 167.839 68.0389 166.965 71.5249C166.965 71.5249 172.219 72.3134 173.904 75.2832L176.922 60.7962Z" fill="#FAE251"/>
<path d="M195.677 103.503C183.814 105.954 168.094 101.741 168.094 101.741L172.287 83.5574L170.796 64.5284C170.614 62.2013 171.939 60.02 174.001 59.2471L176.847 58.1807L179.2 54.8115L185.92 55.0321L188.607 58.5692L190.727 59.6942L195.323 62.1326L195.343 62.1427V62.1528L193.901 76.1474L193.031 84.5854C193.031 84.5854 195.673 94.0756 195.131 95.3342C194.589 96.5908 195.06 95.9838 195.192 96.6555C195.323 97.3274 195.726 97.3699 195.786 98.6932C195.849 100.015 195.677 103.503 195.677 103.503Z" fill="#FAE251"/>
<path d="M188.411 44.6985C187.926 44.2208 188.655 42.9562 188.518 42.2901C188.36 41.5264 187.518 41.5041 187.318 40.7505C187.102 39.9399 186.238 39.4986 185.44 39.2417C183.393 38.5867 181.21 38.4866 179.112 38.9518C178.183 39.1785 177.269 39.4602 176.374 39.7953C175.756 40.0128 176.352 39.4209 175.734 39.6385C175.5 39.6906 175.294 39.8276 175.155 40.0229C175.044 40.233 175.193 40.569 175.427 40.5265C174.673 40.8592 173.918 41.1919 173.164 41.5247C173.587 41.968 174.01 42.4113 174.433 42.8546C173.832 42.6834 173.191 43.4006 173.428 43.9794C173.523 44.1621 173.662 44.3188 173.831 44.4362C174 44.5535 174.196 44.6278 174.4 44.6528C175.08 44.7851 174.564 45.4319 175.257 45.4193C175.949 45.4067 180.775 43.9876 181.111 44.5927C181.351 45.0236 181.325 45.5943 181.667 45.9493C182.104 46.4035 182.869 46.2374 183.426 45.9417C183.983 45.6461 184.548 45.2397 185.175 45.3106C185.829 45.3846 186.324 46.5939 186.485 47.2325C186.646 47.8711 186.544 48.543 186.442 49.1936C186.307 50.0481 184.958 50.9025 184.824 51.7569C186.32 52.1709 187.926 50.8537 188.518 48.563C188.459 47.115 189.442 45.7163 188.411 44.6985Z" fill="#2F2E41"/>
<path d="M93.1857 124.272C75.1535 124.273 59.4643 110.818 57.1465 92.4662L57.5895 92.4101C59.8786 110.536 75.3768 123.825 93.1861 123.826C94.6992 123.826 96.2108 123.73 97.712 123.54C117.354 121.058 131.315 103.055 128.834 83.4076L129.277 83.3516C131.789 103.243 117.654 121.47 97.768 123.983C96.2481 124.176 94.7177 124.272 93.1857 124.272Z" fill="#3F3D56"/>
<path d="M94.1535 131.742H87.0536C86.9019 131.742 86.7521 131.708 86.6154 131.642C86.4788 131.576 86.3588 131.48 86.2645 131.361C86.1713 131.246 86.1056 131.11 86.0722 130.965C86.0389 130.82 86.0388 130.67 86.0719 130.525C86.7456 127.551 86.7058 124.459 85.9558 121.503C85.9046 121.299 85.9192 121.084 85.9974 120.889C86.0756 120.693 86.2135 120.528 86.3914 120.415C88.8476 118.893 91.5222 118.941 94.5683 120.561C94.7068 120.634 94.8266 120.738 94.9183 120.864C95.01 120.991 95.0711 121.138 95.097 121.292C95.6014 124.466 95.6191 127.698 95.1493 130.877C95.1159 131.117 94.9966 131.337 94.8135 131.496C94.6304 131.655 94.396 131.742 94.1535 131.742Z" fill="#6C63FF"/>
<path d="M61.7835 93.7805H54.6835C54.5318 93.7808 54.382 93.7467 54.2454 93.6809C54.1087 93.6151 53.9887 93.5191 53.8944 93.4003C53.8013 93.2844 53.7355 93.149 53.7022 93.0042C53.6688 92.8593 53.6687 92.7088 53.7018 92.5639C54.378 89.5794 54.3355 86.477 53.5779 83.5122C53.5299 83.317 53.5415 83.1119 53.6111 82.9233C53.6807 82.7347 53.8052 82.5713 53.9684 82.4541C57.6192 79.8277 60.4944 79.9039 62.514 82.681C62.6051 82.8076 62.6656 82.9536 62.6907 83.1074C63.2304 86.3524 63.2602 89.6618 62.7792 92.9159C62.7458 93.1561 62.6265 93.376 62.4434 93.535C62.2603 93.6939 62.0259 93.7811 61.7835 93.7805Z" fill="#CCCCCC"/>
<path d="M90.8373 125.076H88.3949C88.26 125.076 88.1308 125.022 88.0355 124.927C87.9402 124.831 87.8867 124.702 87.8867 124.567C87.8867 124.432 87.9402 124.303 88.0355 124.207C88.1308 124.112 88.26 124.058 88.3949 124.057H90.8373C90.9723 124.057 91.1019 124.111 91.1974 124.207C91.2929 124.302 91.3465 124.432 91.3465 124.567C91.3465 124.702 91.2929 124.832 91.1974 124.927C91.1019 125.023 90.9723 125.076 90.8373 125.076Z" fill="white"/>
<path d="M93.8236 127.089H88.3949C88.26 127.089 88.1308 127.035 88.0355 126.939C87.9402 126.844 87.8867 126.714 87.8867 126.58C87.8867 126.445 87.9402 126.315 88.0355 126.22C88.1308 126.124 88.26 126.07 88.3949 126.07H93.8236C93.9585 126.07 94.0877 126.124 94.183 126.22C94.2783 126.315 94.3318 126.445 94.3318 126.58C94.3318 126.714 94.2783 126.844 94.183 126.939C94.0877 127.035 93.9585 127.089 93.8236 127.089Z" fill="white"/>
<path d="M59.5814 86.6686H57.139C57.0042 86.6684 56.8749 86.6146 56.7796 86.5191C56.6844 86.4236 56.6309 86.2942 56.6309 86.1593C56.6309 86.0244 56.6844 85.895 56.7796 85.7995C56.8749 85.704 57.0042 85.6502 57.139 85.6499H59.5814C59.7163 85.6502 59.8456 85.704 59.9408 85.7995C60.0361 85.895 60.0896 86.0244 60.0896 86.1593C60.0896 86.2942 60.0361 86.4236 59.9408 86.5191C59.8456 86.6146 59.7163 86.6684 59.5814 86.6686Z" fill="white"/>
<path d="M59.5814 88.4551H57.139C57.0042 88.4549 56.8749 88.4011 56.7796 88.3056C56.6844 88.2101 56.6309 88.0807 56.6309 87.9458C56.6309 87.8109 56.6844 87.6815 56.7796 87.586C56.8749 87.4905 57.0042 87.4367 57.139 87.4364H59.5814C59.7163 87.4367 59.8456 87.4905 59.9408 87.586C60.0361 87.6815 60.0896 87.8109 60.0896 87.9458C60.0896 88.0807 60.0361 88.2101 59.9408 88.3056C59.8456 88.4011 59.7163 88.4549 59.5814 88.4551Z" fill="white"/>
<path d="M59.5814 90.2415H57.139C57.0042 90.2412 56.8749 90.1874 56.7796 90.0919C56.6844 89.9965 56.6309 89.8671 56.6309 89.7321C56.6309 89.5972 56.6844 89.4678 56.7796 89.3723C56.8749 89.2768 57.0042 89.2231 57.139 89.2228H59.5814C59.7163 89.2231 59.8456 89.2768 59.9408 89.3723C60.0361 89.4678 60.0896 89.5972 60.0896 89.7321C60.0896 89.8671 60.0361 89.9965 59.9408 90.0919C59.8456 90.1874 59.7163 90.2412 59.5814 90.2415Z" fill="white"/>
<path d="M157.34 102.171H134.644C134.036 102.17 133.452 101.928 133.022 101.498C132.592 101.068 132.35 100.484 132.35 99.8758V85.8937C132.35 85.2853 132.592 84.702 133.022 84.2718C133.452 83.8416 134.036 83.5996 134.644 83.5989H157.34C157.948 83.5996 158.531 83.8416 158.961 84.2718C159.391 84.702 159.633 85.2853 159.634 85.8937V99.8758C159.633 100.484 159.391 101.068 158.961 101.498C158.531 101.928 157.948 102.17 157.34 102.171Z" fill="#E6E6E6"/>
<path d="M148.324 100.37H136.241C135.671 100.369 135.125 100.142 134.722 99.7394C134.319 99.3365 134.092 98.7902 134.092 98.2204V87.5489C134.092 86.9791 134.319 86.4328 134.722 86.0299C135.125 85.627 135.671 85.4004 136.241 85.3998H155.746C156.315 85.4004 156.862 85.627 157.264 86.03C157.667 86.4329 157.894 86.9791 157.894 87.5489V90.7965C157.892 93.3346 156.882 95.7678 155.088 97.5625C153.294 99.3572 150.861 100.367 148.324 100.37Z" fill="white"/>
<path d="M153.799 91.2434H138.185C138.05 91.2434 137.92 91.1898 137.825 91.0942C137.729 90.9987 137.676 90.8692 137.676 90.7341C137.676 90.599 137.729 90.4694 137.825 90.3739C137.92 90.2784 138.05 90.2247 138.185 90.2247H153.799C153.934 90.2247 154.063 90.2784 154.159 90.3739C154.254 90.4694 154.308 90.599 154.308 90.7341C154.308 90.8692 154.254 90.9987 154.159 91.0942C154.063 91.1898 153.934 91.2434 153.799 91.2434Z" fill="#6C63FF"/>
<path d="M140.628 93.256H138.186C138.051 93.2558 137.922 93.202 137.827 93.1065C137.731 93.011 137.678 92.8816 137.678 92.7467C137.678 92.6118 137.731 92.4824 137.827 92.3869C137.922 92.2914 138.051 92.2376 138.186 92.2373H140.628C140.763 92.2376 140.892 92.2914 140.988 92.3869C141.083 92.4824 141.136 92.6118 141.136 92.7467C141.136 92.8816 141.083 93.011 140.988 93.1065C140.892 93.202 140.763 93.2558 140.628 93.256Z" fill="#6C63FF"/>
<path d="M144.953 95.2686H138.185C138.05 95.2686 137.92 95.2149 137.825 95.1194C137.729 95.0239 137.676 94.8943 137.676 94.7592C137.676 94.6242 137.729 94.4946 137.825 94.3991C137.92 94.3035 138.05 94.2499 138.185 94.2499H144.953C145.088 94.2499 145.218 94.3035 145.313 94.3991C145.409 94.4946 145.462 94.6242 145.462 94.7592C145.462 94.8943 145.409 95.0239 145.313 95.1194C145.218 95.2149 145.088 95.2686 144.953 95.2686Z" fill="#6C63FF"/>
<path d="M131.557 88.1227C134.209 88.1227 136.358 85.9726 136.358 83.3204C136.358 80.6681 134.209 78.5181 131.557 78.5181C128.905 78.5181 126.756 80.6681 126.756 83.3204C126.756 85.9726 128.905 88.1227 131.557 88.1227Z" fill="#3F3D56"/>
<path d="M77.2109 46.7889C77.5288 45.1752 78.1612 43.64 79.0722 42.2708C79.9832 40.9016 81.1549 39.7254 82.5204 38.8091C85.2781 36.9587 88.6578 36.2799 91.9159 36.9219C93.5291 37.2398 95.064 37.8725 96.4328 38.7837C97.8016 39.6949 98.9776 40.8669 99.8936 42.2327C100.81 43.5986 101.448 45.1315 101.771 46.7439C102.095 48.3564 102.098 50.0169 101.78 51.6306L101.342 51.5443C101.961 48.4016 101.307 45.1417 99.5227 42.4816C97.7387 39.8216 94.9714 37.9794 91.8296 37.3602C88.6877 36.7411 85.4286 37.3957 82.7692 39.1801C80.1099 40.9645 78.2681 43.7325 77.6491 46.8752L77.2109 46.7889Z" fill="#3F3D56"/>
<path d="M81.9633 54.6901L74.8694 54.984C74.7179 54.9906 74.5668 54.9628 74.4275 54.9027C74.2883 54.8425 74.1644 54.7516 74.0653 54.6368C73.9674 54.5249 73.8961 54.3924 73.8568 54.249C73.8175 54.1057 73.8111 53.9553 73.8382 53.8091C74.3826 50.8399 74.224 47.7845 73.375 44.8877C73.3095 44.6661 73.3228 44.4287 73.4127 44.2159C73.5025 44.0031 73.6634 43.828 73.8679 43.7205C76.7735 42.2106 79.4961 42.134 81.9595 43.4927C82.0886 43.5629 82.2009 43.6604 82.2885 43.7784C82.376 43.8964 82.4369 44.0321 82.4666 44.176C83.1078 47.337 83.2616 50.5776 82.9225 53.7851C82.899 54.0265 82.7889 54.2511 82.6125 54.4175C82.4362 54.5839 82.2056 54.6808 81.9633 54.6901Z" fill="#6C63FF"/>
<path d="M81.6638 50.046L76.2397 50.2707C76.1729 50.2736 76.1061 50.2632 76.0433 50.2402C75.9805 50.2172 75.9228 50.182 75.8735 50.1367C75.8243 50.0914 75.7844 50.0369 75.7563 49.9761C75.7281 49.9154 75.7122 49.8498 75.7094 49.7829C75.7067 49.716 75.7171 49.6493 75.7401 49.5864C75.7632 49.5236 75.7984 49.4659 75.8437 49.4167C75.889 49.3675 75.9436 49.3277 76.0043 49.2995C76.0651 49.2714 76.1307 49.2556 76.1976 49.2529L81.6217 49.0281C81.6885 49.0254 81.7552 49.0358 81.818 49.0588C81.8808 49.0818 81.9384 49.117 81.9876 49.1623C82.0368 49.2076 82.0766 49.2622 82.1047 49.3228C82.1329 49.3835 82.1488 49.4492 82.1515 49.516C82.1543 49.5828 82.1439 49.6496 82.1209 49.7124C82.0979 49.7752 82.0627 49.8328 82.0174 49.882C81.9721 49.9313 81.9176 49.9711 81.8569 49.9992C81.7962 50.0273 81.7306 50.0432 81.6638 50.046Z" fill="white"/>
<path d="M81.5911 48.2612L76.167 48.4859C76.0321 48.4915 75.9005 48.4433 75.8011 48.3518C75.7017 48.2603 75.6427 48.1331 75.6372 47.9981C75.6316 47.8631 75.6798 47.7314 75.7713 47.632C75.8627 47.5326 75.9899 47.4737 76.1249 47.4681L81.549 47.2434C81.6839 47.2378 81.8155 47.286 81.9149 47.3775C82.0143 47.469 82.0732 47.5962 82.0788 47.7312C82.0844 47.8662 82.0362 47.9979 81.9447 48.0973C81.8532 48.1967 81.726 48.2556 81.5911 48.2612Z" fill="white"/>
<path d="M128.389 52.4427H105.693C105.084 52.442 104.501 52.2 104.071 51.7698C103.641 51.3396 103.399 50.7563 103.398 50.1479V36.1658C103.399 35.5574 103.641 34.9741 104.071 34.5439C104.501 34.1137 105.084 33.8717 105.693 33.871H128.389C128.997 33.8717 129.58 34.1137 130.01 34.5439C130.44 34.9741 130.682 35.5574 130.683 36.1658V50.1479C130.682 50.7563 130.44 51.3396 130.01 51.7698C129.58 52.2 128.997 52.442 128.389 52.4427Z" fill="#E6E6E6"/>
<path d="M119.372 50.6418H107.289C106.72 50.6412 106.174 50.4145 105.771 50.0116C105.368 49.6087 105.141 49.0624 105.141 48.4926V37.8211C105.141 37.2513 105.368 36.7051 105.771 36.3022C106.174 35.8993 106.72 35.6726 107.289 35.672H126.795C127.364 35.6726 127.91 35.8993 128.313 36.3022C128.716 36.7051 128.943 37.2514 128.943 37.8211V41.0687C128.94 43.6068 127.931 46.0401 126.137 47.8347C124.343 49.6294 121.91 50.6389 119.372 50.6418Z" fill="white"/>
<path d="M124.848 41.5154H109.234C109.099 41.5154 108.969 41.4617 108.874 41.3662C108.778 41.2707 108.725 41.1411 108.725 41.0061C108.725 40.871 108.778 40.7414 108.874 40.6459C108.969 40.5504 109.099 40.4967 109.234 40.4967H124.848C124.983 40.4967 125.112 40.5504 125.208 40.6459C125.303 40.7414 125.357 40.871 125.357 41.0061C125.357 41.1411 125.303 41.2707 125.208 41.3662C125.112 41.4617 124.983 41.5154 124.848 41.5154Z" fill="#6C63FF"/>
<path d="M111.677 43.5281H109.235C109.1 43.5279 108.971 43.4741 108.875 43.3786C108.78 43.2831 108.727 43.1537 108.727 43.0188C108.727 42.8839 108.78 42.7545 108.875 42.659C108.971 42.5635 109.1 42.5097 109.235 42.5094H111.677C111.812 42.5097 111.941 42.5635 112.037 42.659C112.132 42.7545 112.185 42.8839 112.185 43.0188C112.185 43.1537 112.132 43.2831 112.037 43.3786C111.941 43.4741 111.812 43.5279 111.677 43.5281Z" fill="#6C63FF"/>
<path d="M116.002 45.5408H109.234C109.099 45.5408 108.969 45.4872 108.874 45.3916C108.778 45.2961 108.725 45.1666 108.725 45.0315C108.725 44.8964 108.778 44.7668 108.874 44.6713C108.969 44.5758 109.099 44.5221 109.234 44.5221H116.002C116.137 44.5224 116.266 44.5762 116.361 44.6717C116.457 44.7672 116.51 44.8966 116.51 45.0315C116.51 45.1664 116.457 45.2958 116.361 45.3913C116.266 45.4868 116.137 45.5406 116.002 45.5408Z" fill="#6C63FF"/>
<path d="M106.096 54.8632C107.496 52.6107 106.805 49.6496 104.553 48.2494C102.301 46.8492 99.3407 47.5401 97.9409 49.7927C96.5411 52.0452 97.2318 55.0063 99.4838 56.4065C101.736 57.8067 104.696 57.1158 106.096 54.8632Z" fill="#3F3D56"/>
<path d="M209.794 165.14H143.832C143.778 165.14 143.726 165.119 143.687 165.08C143.649 165.042 143.627 164.989 143.627 164.935C143.627 164.881 143.649 164.828 143.687 164.79C143.726 164.751 143.778 164.73 143.832 164.73H209.794C209.849 164.73 209.901 164.751 209.939 164.79C209.978 164.828 209.999 164.881 209.999 164.935C209.999 164.989 209.978 165.042 209.939 165.08C209.901 165.119 209.849 165.14 209.794 165.14Z" fill="#CCCCCC"/>
<path d="M38.0609 89.7919C36.0911 84.5834 36.2706 78.8054 38.5598 73.7292C40.8491 68.653 45.0606 64.6943 50.2678 62.724C55.4751 60.7537 61.2516 60.9332 66.3265 63.223C71.4014 65.5129 75.3591 69.7254 77.3289 74.934L76.9112 75.0921C75.9566 72.5679 74.5143 70.2566 72.6667 68.2899C70.8191 66.3233 68.6023 64.74 66.1429 63.6303C63.6835 62.5206 61.0297 61.9063 58.333 61.8225C55.6362 61.7387 52.9494 62.187 50.4259 63.1418C47.9024 64.0966 45.5916 65.5393 43.6255 67.3874C41.6593 69.2355 40.0764 71.4528 38.967 73.9128C37.8576 76.3728 37.2434 79.0273 37.1596 81.7247C37.0759 84.4222 37.5241 87.1097 38.4786 89.6338L38.0609 89.7919Z" fill="#3F3D56"/>
<path d="M56.4243 68.9943H49.3243C49.1726 68.9946 49.0228 68.9606 48.8862 68.8947C48.7495 68.8289 48.6295 68.733 48.5352 68.6141C48.4421 68.4983 48.3763 68.3629 48.343 68.218C48.3096 68.0732 48.3095 67.9226 48.3426 67.7777C49.0147 64.8105 48.9767 61.7265 48.2316 58.7767C48.1788 58.568 48.195 58.3477 48.2778 58.149C48.3606 57.9502 48.5056 57.7836 48.691 57.6742C51.2629 56.1767 54.0094 56.2224 56.854 57.8104C56.9886 57.8838 57.1047 57.9871 57.1934 58.1122C57.2822 58.2374 57.3411 58.3812 57.3659 58.5326C57.8722 61.7103 57.8904 64.9466 57.42 68.1298C57.3866 68.37 57.2673 68.5899 57.0842 68.7488C56.9011 68.9078 56.6667 68.995 56.4243 68.9943Z" fill="#6C63FF"/>
<path d="M53.1068 62.1058H50.6644C50.5296 62.1055 50.4003 62.0517 50.305 61.9562C50.2098 61.8607 50.1562 61.7313 50.1562 61.5964C50.1562 61.4615 50.2098 61.3321 50.305 61.2366C50.4003 61.1411 50.5296 61.0873 50.6644 61.087H53.1068C53.2417 61.0873 53.3709 61.1411 53.4662 61.2366C53.5615 61.3321 53.615 61.4615 53.615 61.5964C53.615 61.7313 53.5615 61.8607 53.4662 61.9562C53.3709 62.0517 53.2417 62.1055 53.1068 62.1058Z" fill="white"/>
<path d="M56.0942 64.1185H50.6655C50.5304 64.1185 50.4009 64.0648 50.3054 63.9693C50.2099 63.8738 50.1562 63.7442 50.1563 63.6091C50.1562 63.474 50.2099 63.3444 50.3054 63.2489C50.4009 63.1534 50.5304 63.0997 50.6655 63.0997H56.0942C56.2291 63.1 56.3583 63.1538 56.4536 63.2493C56.5489 63.3448 56.6024 63.4742 56.6024 63.6091C56.6024 63.744 56.5489 63.8734 56.4536 63.9689C56.3583 64.0644 56.2291 64.1182 56.0942 64.1185Z" fill="white"/>
<path d="M33.0644 89.5105H10.3684C9.76017 89.5098 9.17703 89.2678 8.74693 88.8376C8.31683 88.4074 8.0749 87.8241 8.07422 87.2157V73.2335C8.0749 72.6251 8.31683 72.0418 8.74693 71.6116C9.17703 71.1814 9.76017 70.9394 10.3684 70.9387H33.0644C33.6727 70.9394 34.2558 71.1814 34.6859 71.6116C35.116 72.0418 35.358 72.6251 35.3587 73.2335V87.2157C35.358 87.8241 35.116 88.4074 34.6859 88.8376C34.2558 89.2678 33.6727 89.5098 33.0644 89.5105Z" fill="#E6E6E6"/>
<path d="M24.0483 87.7097H11.9651C11.3955 87.709 10.8493 87.4824 10.4465 87.0795C10.0437 86.6766 9.81706 86.1303 9.81641 85.5605V74.889C9.81706 74.3192 10.0437 73.7729 10.4465 73.37C10.8493 72.9671 11.3955 72.7405 11.9651 72.7399H31.4704C32.0401 72.7405 32.5862 72.9671 32.989 73.37C33.3918 73.7729 33.6184 74.3192 33.619 74.889V78.1366C33.6162 80.6746 32.6069 83.1079 30.8126 84.9026C29.0184 86.6973 26.5857 87.7068 24.0483 87.7097Z" fill="white"/>
<path d="M29.5233 78.5833H13.9096C13.7746 78.5833 13.645 78.5296 13.5495 78.4341C13.454 78.3386 13.4004 78.209 13.4004 78.0739C13.4004 77.9388 13.454 77.8093 13.5495 77.7138C13.645 77.6182 13.7746 77.5646 13.9096 77.5646H29.5233C29.6584 77.5646 29.7879 77.6182 29.8834 77.7138C29.9789 77.8093 30.0326 77.9388 30.0326 78.0739C30.0326 78.209 29.9789 78.3386 29.8834 78.4341C29.7879 78.5296 29.6584 78.5833 29.5233 78.5833Z" fill="#6C63FF"/>
<path d="M16.351 80.5958H13.9086C13.7737 80.5955 13.6444 80.5417 13.5492 80.4462C13.4539 80.3507 13.4004 80.2213 13.4004 80.0864C13.4004 79.9515 13.4539 79.8221 13.5492 79.7266C13.6444 79.6311 13.7737 79.5773 13.9086 79.577H16.351C16.4858 79.5773 16.6151 79.6311 16.7104 79.7266C16.8056 79.8221 16.8591 79.9515 16.8591 80.0864C16.8591 80.2213 16.8056 80.3507 16.7104 80.4462C16.6151 80.5417 16.4858 80.5955 16.351 80.5958Z" fill="#6C63FF"/>
<path d="M20.6767 82.6086H13.9086C13.7737 82.6083 13.6444 82.5545 13.5492 82.459C13.4539 82.3635 13.4004 82.2341 13.4004 82.0992C13.4004 81.9643 13.4539 81.8349 13.5492 81.7394C13.6444 81.6439 13.7737 81.5901 13.9086 81.5898H20.6767C20.8118 81.5898 20.9413 81.6435 21.0368 81.739C21.1323 81.8346 21.186 81.9641 21.186 82.0992C21.186 82.2343 21.1323 82.3639 21.0368 82.4594C20.9413 82.5549 20.8118 82.6086 20.6767 82.6086Z" fill="#6C63FF"/>
<path d="M42.0256 91.4845C43.4255 89.2319 42.7347 86.2708 40.4827 84.8706C38.2308 83.4704 35.2704 84.1614 33.8706 86.4139C32.4707 88.6664 33.1615 91.6275 35.4135 93.0277C37.6654 94.4279 40.6258 93.737 42.0256 91.4845Z" fill="#3F3D56"/>
<path d="M80.7593 82.3922H73.6594C73.5077 82.3925 73.3579 82.3585 73.2212 82.2926C73.0846 82.2268 72.9646 82.1309 72.8703 82.012C72.7771 81.8962 72.7114 81.7608 72.678 81.6159C72.6447 81.4711 72.6446 81.3205 72.6777 81.1756C73.3486 78.2136 73.3119 75.1351 72.5706 72.19C72.518 71.9783 72.5358 71.7553 72.6214 71.5547C72.707 71.3541 72.8556 71.1869 73.0448 71.0784C76.4938 69.1036 79.2249 69.1581 81.3941 71.2451C81.5461 71.394 81.6462 71.5879 81.6795 71.798C82.2066 75.0179 82.2321 78.3 81.7551 81.5277C81.7217 81.7679 81.6024 81.9878 81.4193 82.1467C81.2362 82.3057 81.0017 82.3929 80.7593 82.3922Z" fill="#FF6584"/>
<path d="M77.8881 75.7271H75.4457C75.3108 75.7268 75.1815 75.673 75.0863 75.5775C74.991 75.482 74.9375 75.3527 74.9375 75.2177C74.9375 75.0828 74.991 74.9534 75.0863 74.8579C75.1815 74.7624 75.3108 74.7087 75.4457 74.7084H77.8881C78.0229 74.7087 78.1522 74.7624 78.2475 74.8579C78.3427 74.9534 78.3962 75.0828 78.3962 75.2177C78.3962 75.3527 78.3427 75.482 78.2475 75.5775C78.1522 75.673 78.0229 75.7268 77.8881 75.7271Z" fill="white"/>
<path d="M80.8735 77.7397H75.4448C75.3097 77.7397 75.1802 77.686 75.0847 77.5905C74.9892 77.495 74.9355 77.3654 74.9355 77.2303C74.9355 77.0952 74.9892 76.9657 75.0847 76.8701C75.1802 76.7746 75.3097 76.7209 75.4448 76.7209H80.8735C81.0084 76.7212 81.1376 76.775 81.2329 76.8705C81.3282 76.966 81.3817 77.0954 81.3817 77.2303C81.3817 77.3652 81.3282 77.4946 81.2329 77.5901C81.1376 77.6856 81.0084 77.7394 80.8735 77.7397Z" fill="white"/>
<defs>
<clipPath id="clip0_348_8865">
<rect width="87.6539" height="69.1726" fill="white"/>
</clipPath>
</defs>
</svg>
