<svg width="206" height="191" viewBox="0 0 206 191" fill="none" xmlns="http://www.w3.org/2000/svg">
<path d="M110.911 190.181C163.428 190.181 206.001 147.607 206.001 95.0903C206.001 42.5734 163.428 0 110.911 0C58.3937 0 15.8203 42.5734 15.8203 95.0903C15.8203 147.607 58.3937 190.181 110.911 190.181Z" fill="#DCE4F2"/>
<path d="M143.426 72.4034C142.608 71.9462 141.777 71.4565 140.943 70.9324C133.497 66.2555 128.602 60.6474 128.602 60.6474C128.602 60.6474 135.779 62.6221 143.225 67.2991C144.186 67.9025 145.103 68.5214 145.974 69.1417C145.226 68.327 144.472 67.4615 143.729 66.5477C138.206 59.752 135.394 52.89 135.394 52.89C135.394 52.89 141.536 57.0459 147.059 63.8415C147.323 64.167 147.581 64.4926 147.833 64.8175C147.454 64.0048 147.08 63.1649 146.719 62.3011C143.008 53.431 141.98 45.4127 141.98 45.4127C141.98 45.4127 146.967 51.7754 150.677 60.6453C151.287 62.1035 151.824 63.5382 152.296 64.9187C152.042 63.3705 151.821 61.7305 151.66 60.0279C150.734 50.2529 152.12 42.1265 152.12 42.1265C152.12 42.1265 155.006 49.8484 155.931 59.6235C156.067 61.0558 156.153 62.4523 156.201 63.7935C156.422 62.1543 156.704 60.4317 157.062 58.6636C159.113 48.5347 162.878 40.7494 162.878 40.7494C162.878 40.7494 163.318 49.3861 161.267 59.5149C161.093 60.3775 160.905 61.2225 160.71 62.0478C161.073 61.2831 161.456 60.51 161.862 59.733C166.853 50.1725 173.233 43.6408 173.233 43.6408C173.233 43.6408 171.521 52.6095 166.53 62.17C166.213 62.7767 165.891 63.3711 165.565 63.9526C166.01 63.4613 166.468 62.9684 166.939 62.4755C174.077 55.0027 181.415 50.4265 181.415 50.4265C181.415 50.4265 177.179 57.9663 170.041 65.4391C168.787 66.7518 167.528 67.9744 166.302 69.0993C167.454 68.3535 168.677 67.6067 169.961 66.8816C178.476 62.0716 186.435 60.0403 186.435 60.0403C186.435 60.0403 180.586 65.8074 172.071 70.6175C170.547 71.4779 169.042 72.2489 167.597 72.9359C169.01 72.5303 170.507 72.147 172.065 71.811C181.464 69.7843 189.535 70.2384 189.535 70.2384C189.535 70.2384 182.368 73.9784 172.97 76.0051C172.054 76.2024 171.152 76.3761 170.268 76.5291C170.679 76.5501 171.093 76.5758 171.511 76.6067C180.244 77.2533 187.165 79.9168 187.165 79.9168C187.165 79.9168 179.928 81.5322 171.195 80.8857C170.012 80.7982 168.863 80.6734 167.76 80.5235C168.793 80.8903 169.853 81.299 170.926 81.7544C178.987 85.176 184.684 89.9245 184.684 89.9245C184.684 89.9245 177.311 89.1255 169.25 85.7041C168.316 85.3076 167.414 84.8932 166.549 84.4707C166.613 84.5221 166.677 84.5737 166.741 84.6257C172.417 89.2468 175.954 94.2991 175.954 94.2991C175.954 94.2991 170.29 91.8589 164.614 87.2379C159.684 83.2234 156.367 78.8844 155.581 77.8142C155.309 78.1082 155.159 78.2623 155.159 78.2623C155.159 78.2623 155.203 78.0306 155.298 77.604C154.234 77.5835 148.608 77.3907 142.277 75.5777C135.242 73.5629 130.003 70.3106 130.003 70.3106C130.003 70.3106 136.17 70.3247 143.205 72.3394C143.279 72.3603 143.352 72.382 143.426 72.4034Z" fill="#F7F1EB"/>
<path d="M142.706 115.833C142.699 115.833 142.693 115.832 142.687 115.831C142.63 115.821 142.593 115.767 142.603 115.71C144.631 104.57 147.956 93.725 152.488 83.4761C154.526 78.867 156.84 74.312 159.365 69.9375C159.394 69.8877 159.457 69.8708 159.507 69.8994C159.557 69.9281 159.574 69.9917 159.545 70.0414C157.024 74.4094 154.714 78.9579 152.678 83.5601C148.153 93.794 144.832 104.624 142.808 115.748C142.799 115.798 142.755 115.833 142.706 115.833Z" fill="#F7F1EB"/>
<path d="M182.23 56.0318C182.23 56.0318 179.304 63.9242 173.577 72.1934C173.09 72.8976 172.597 73.5812 172.105 74.2437C172.724 73.6995 173.364 73.1558 174.025 72.6168C182.163 65.9859 190.378 62.5972 190.378 62.5972C190.378 62.5972 185.4 69.9593 177.263 76.5901C176.746 77.0109 176.23 77.4186 175.715 77.8133C176.302 77.5452 176.9 77.2802 177.511 77.0205C186.766 73.0817 195.087 71.81 195.087 71.81C195.087 71.81 188.401 76.9243 179.146 80.8632C177.52 81.555 175.924 82.1642 174.396 82.6991C175.712 82.475 177.093 82.277 178.519 82.1221C187.983 81.094 195.881 82.3365 195.881 82.3365C195.881 82.3365 188.434 85.2457 178.971 86.2738C177.278 86.4578 175.635 86.5688 174.079 86.6274C175.499 86.808 176.984 87.0405 178.507 87.3391C187.691 89.1392 194.734 92.6476 194.734 92.6476C194.734 92.6476 186.887 93.2374 177.704 91.4373C176.809 91.262 175.936 91.0703 175.086 90.8674C175.446 91.0441 175.806 91.2265 176.169 91.4149C183.729 95.3496 188.895 100.392 188.895 100.392C188.895 100.392 181.801 99.0541 174.241 95.1194C173.217 94.5866 172.237 94.0335 171.308 93.4754C172.091 94.2004 172.882 94.9734 173.667 95.7932C179.56 101.951 182.829 108.387 182.829 108.387C182.829 108.387 176.543 104.838 170.65 98.6806C169.967 97.9672 169.32 97.2501 168.709 96.5397C168.746 96.6103 168.783 96.6808 168.821 96.752C172.12 103.066 173.341 108.943 173.341 108.943C173.341 108.943 169.214 104.584 165.915 98.2704C163.049 92.7854 161.751 87.6306 161.459 86.3715C161.103 86.5301 165.167 77.003 170.144 69.8162C175.871 61.5465 182.23 56.0318 182.23 56.0318Z" fill="#E6D0BE"/>
<path d="M135.744 115.833C135.727 115.833 135.709 115.829 135.693 115.819C135.643 115.791 135.626 115.727 135.654 115.677C141.131 106.078 148.017 97.6053 156.121 90.4956C159.094 87.8879 162.266 85.4362 165.551 83.2087C165.599 83.1765 165.663 83.1889 165.696 83.2364C165.728 83.2839 165.715 83.3485 165.668 83.3807C162.39 85.6034 159.224 88.0498 156.258 90.6519C148.171 97.7463 141.3 106.201 135.835 115.78C135.816 115.814 135.781 115.833 135.744 115.833Z" fill="#E6D0BE"/>
<path d="M184.15 137.284H87.1797V100.401H170.783L184.15 118.732V137.284Z" fill="#F7F1EB"/>
<path d="M165.016 120.161H115.484V124.81H165.016V120.161Z" fill="#E6D0BE"/>
<path d="M166.358 116.616H113.6L113.569 116.572L102.113 100.215C102.08 100.168 102.091 100.104 102.138 100.071C102.185 100.038 102.25 100.049 102.283 100.096L113.708 116.408H165.959L154.788 100.461C154.756 100.414 154.767 100.349 154.814 100.316C154.861 100.283 154.926 100.295 154.959 100.342L166.358 116.616Z" fill="white"/>
<path d="M173.68 162.448H130.222L118.766 122.348H162.224L173.68 162.448Z" fill="white"/>
<path d="M173.677 162.448H130.219L139.384 142.398H182.842L173.677 162.448Z" fill="#F7F1EB"/>
<path d="M196.597 182.268H153.139L139.391 142.169H182.849L196.597 182.268Z" fill="white"/>
<path d="M167.892 142.273H139.393C139.336 142.273 139.289 142.226 139.289 142.169C139.289 142.112 139.336 142.065 139.393 142.065H167.892C167.949 142.065 167.996 142.112 167.996 142.169C167.996 142.226 167.949 142.273 167.892 142.273Z" fill="#F2E6DC"/>
<path d="M154.138 126.234H140.135C140.078 126.234 140.031 126.187 140.031 126.13C140.031 126.072 140.078 126.026 140.135 126.026H154.138C154.195 126.026 154.242 126.072 154.242 126.13C154.242 126.187 154.195 126.234 154.138 126.234Z" fill="#F2E6DC"/>
<path d="M137.322 126.234H125.635C125.578 126.234 125.531 126.187 125.531 126.13C125.531 126.072 125.578 126.026 125.635 126.026H137.322C137.379 126.026 137.426 126.072 137.426 126.13C137.426 126.187 137.379 126.234 137.322 126.234Z" fill="#F2E6DC"/>
<path d="M159.86 130.816H143.963C143.906 130.816 143.859 130.77 143.859 130.712C143.859 130.655 143.906 130.608 143.963 130.608H159.86C159.918 130.608 159.964 130.655 159.964 130.712C159.964 130.77 159.918 130.816 159.86 130.816Z" fill="#F2E6DC"/>
<path d="M141.569 130.816H126.784C126.726 130.816 126.68 130.77 126.68 130.712C126.68 130.655 126.726 130.608 126.784 130.608H141.569C141.626 130.608 141.673 130.655 141.673 130.712C141.673 130.77 141.626 130.816 141.569 130.816Z" fill="#F2E6DC"/>
<path d="M161.24 135.399H153.635C153.578 135.399 153.531 135.352 153.531 135.295C153.531 135.238 153.578 135.191 153.635 135.191H161.24C161.297 135.191 161.344 135.238 161.344 135.295C161.344 135.352 161.297 135.399 161.24 135.399Z" fill="#F2E6DC"/>
<path d="M150.092 135.399H128.166C128.109 135.399 128.062 135.352 128.062 135.295C128.062 135.238 128.109 135.191 128.166 135.191H150.092C150.149 135.191 150.196 135.238 150.196 135.295C150.196 135.352 150.149 135.399 150.092 135.399Z" fill="#F2E6DC"/>
<path d="M177.054 149.147H164.526C164.468 149.147 164.422 149.1 164.422 149.043C164.422 148.986 164.468 148.939 164.526 148.939H177.054C177.112 148.939 177.158 148.986 177.158 149.043C177.158 149.1 177.112 149.147 177.054 149.147Z" fill="#F2E6DC"/>
<path d="M161.246 149.147H148.557C148.5 149.147 148.453 149.1 148.453 149.043C148.453 148.986 148.5 148.939 148.557 148.939H161.246C161.303 148.939 161.35 148.986 161.35 149.043C161.35 149.1 161.303 149.147 161.246 149.147Z" fill="#F2E6DC"/>
<path d="M182.777 153.729H173.448C173.39 153.729 173.344 153.683 173.344 153.626C173.344 153.568 173.39 153.522 173.448 153.522H182.777C182.834 153.522 182.881 153.568 182.881 153.626C182.881 153.683 182.834 153.729 182.777 153.729Z" fill="#F2E6DC"/>
<path d="M169.897 153.729H149.698C149.64 153.729 149.594 153.683 149.594 153.626C149.594 153.568 149.64 153.522 149.698 153.522H169.897C169.955 153.522 170.001 153.568 170.001 153.626C170.001 153.683 169.955 153.729 169.897 153.729Z" fill="#F2E6DC"/>
<path d="M184.16 158.312H165.026C164.968 158.312 164.922 158.266 164.922 158.208C164.922 158.151 164.968 158.104 165.026 158.104H184.16C184.217 158.104 184.264 158.151 184.264 158.208C184.264 158.266 184.217 158.312 184.16 158.312Z" fill="#F2E6DC"/>
<path d="M161.636 158.312H151.073C151.015 158.312 150.969 158.266 150.969 158.208C150.969 158.151 151.015 158.104 151.073 158.104H161.636C161.694 158.104 161.74 158.151 161.74 158.208C161.74 158.266 161.694 158.312 161.636 158.312Z" fill="#F2E6DC"/>
<path d="M83.9117 53.2066C83.7221 54.7617 78.2848 57.8984 71.7673 57.1033C65.2498 56.3083 60.1201 51.8826 60.3098 50.3275C60.4994 48.7724 65.9367 48.1562 72.4542 48.9512C78.9717 49.7463 84.1014 51.6515 83.9117 53.2066Z" fill="#8B865C"/>
<path d="M29.6719 188.357L45.1938 128.78L97.2948 129.832L110.231 188.45H76.148L71.1131 167.886L66.1337 188.357H29.6719Z" fill="#363E44"/>
<path d="M58.6477 39.4897C60.9754 37.7648 61.2194 34.1494 59.1927 31.4144C57.166 28.6793 53.6361 27.8604 51.3084 29.5852C48.9807 31.3101 48.7367 34.9255 50.7634 37.6605C52.7901 40.3956 56.32 41.2145 58.6477 39.4897Z" fill="#84524D"/>
<path d="M93.2133 35.5046C94.9516 32.5783 94.3418 29.0068 91.8514 27.5273C89.3609 26.0479 85.9327 27.2207 84.1944 30.147C82.4561 33.0732 83.0658 36.6448 85.5563 38.1242C88.0468 39.6037 91.4749 38.4308 93.2133 35.5046Z" fill="#84524D"/>
<path d="M83.5262 13.6642L58.309 14.9721C56.5893 15.0613 55.2676 16.5276 55.3568 18.2473L56.0817 32.224C56.1709 33.9437 57.6373 35.2654 59.3569 35.1762L84.5741 33.8682C86.2938 33.779 87.6155 32.3127 87.5263 30.5931L86.8014 16.6163C86.7122 14.8967 85.2458 13.575 83.5262 13.6642Z" fill="#363E44"/>
<path d="M71.2624 74.8686C65.1843 74.5898 60.483 69.4366 60.7618 63.3585L61.8897 38.7679L83.9004 39.7773L82.7727 64.368C82.4936 70.4461 77.3404 75.1473 71.2624 74.8686Z" fill="#84524D"/>
<path d="M87.0607 33.0717C87.5599 42.8825 81.196 51.1801 72.8466 51.605C64.497 52.03 57.3236 44.4213 56.8243 34.6106C56.3251 24.7998 62.689 19.1967 71.0385 18.7717C79.3879 18.3469 86.5613 23.2611 87.0607 33.0717Z" fill="#84524D"/>
<path d="M72.1746 51.7865C68.3323 51.7865 64.6612 50.1241 61.7713 47.059C61.709 46.9929 61.7122 46.8889 61.7782 46.8267C61.8439 46.7644 61.9482 46.7675 62.0103 46.8336C65.003 50.0078 68.8478 51.6439 72.8375 51.4411C76.8268 51.238 80.486 49.2198 83.1408 45.7581C83.1961 45.6861 83.2991 45.6723 83.3711 45.7277C83.443 45.7829 83.4566 45.8861 83.4014 45.958C80.687 49.4974 76.9411 51.5612 72.8541 51.7691C72.627 51.7808 72.4005 51.7865 72.1746 51.7865Z" fill="#363E44"/>
<path d="M87.0581 37.9999C87.0482 37.9999 87.0385 37.9991 87.0285 37.9973C86.9391 37.981 86.88 37.8956 86.8963 37.8062C87.1762 36.2655 87.2771 34.6754 87.1959 33.0801C87.1235 31.6574 86.9069 30.2499 86.5523 28.8968C86.5293 28.8091 86.5818 28.7192 86.6696 28.6962C86.7568 28.6732 86.8473 28.7258 86.8703 28.8135C87.2304 30.1884 87.4505 31.6183 87.5241 33.0635C87.6064 34.6841 87.5039 36.2995 87.2194 37.8652C87.2053 37.9444 87.1361 37.9999 87.0581 37.9999Z" fill="#363E44"/>
<path d="M57.2892 39.4049C57.2178 39.4049 57.1519 39.3578 57.1314 39.2856C56.7031 37.7816 56.4445 36.2115 56.3634 34.619C56.2886 33.1463 56.3667 31.6739 56.5955 30.2426C56.6098 30.1533 56.6929 30.0918 56.7838 30.1063C56.8733 30.1206 56.9342 30.2049 56.9199 30.2944C56.6947 31.703 56.6178 33.1524 56.6916 34.6021C56.7714 36.1697 57.0257 37.7152 57.4474 39.1953C57.4722 39.2825 57.4216 39.3734 57.3344 39.3983C57.3195 39.4029 57.3042 39.4049 57.2892 39.4049Z" fill="#363E44"/>
<path d="M69.5236 34.6543C69.5236 34.6543 68.229 35.3495 66.4859 35.5768C65.6936 35.6801 64.5076 33.9908 64.5076 33.9908C64.5076 33.9908 62.6743 35.1004 62.1381 34.8133C60.3139 33.8365 59.1875 32.3366 59.1875 32.3366C59.1875 32.3366 60.2955 31.748 61.83 31.4768C62.721 31.3192 64.8023 33.2994 64.8023 33.2994C64.8023 33.2994 67.1167 32.4276 67.9138 33.0569C68.9388 33.8661 69.5236 34.6543 69.5236 34.6543Z" fill="white"/>
<path d="M67.9171 33.0574C67.1193 32.4259 66.0568 31.7841 64.8034 31.5032C63.7555 31.2683 62.7217 31.3192 61.8312 31.4766C61.3052 32.5412 61.4057 33.8342 62.1326 34.8118C62.6683 35.0986 63.262 35.3427 63.9099 35.4879C64.806 35.6888 65.6924 35.6813 66.4875 35.5766C66.6596 35.462 66.8241 35.3299 66.9764 35.1786C67.5677 34.5905 67.879 33.8295 67.9171 33.0574Z" fill="#363E44"/>
<path d="M74.6172 34.544C74.6172 34.544 76.2267 35.1324 78.1702 35.0267C78.8559 34.9894 79.9938 33.403 79.9938 33.403C79.9938 33.403 81.9072 33.7741 82.5259 33.2345C83.821 32.1044 84.5385 30.8323 84.5385 30.8323C84.5385 30.8323 83.5592 30.4758 82.2115 30.3671C81.2173 30.2869 79.4612 31.9733 79.4612 31.9733C79.4612 31.9733 76.9995 31.7754 76.3365 32.4013C75.2133 33.4613 74.6172 34.544 74.6172 34.544Z" fill="white"/>
<path d="M78.8646 30.7758C77.8463 31.1567 76.9993 31.7752 76.3359 32.4019C76.4135 33.2777 76.844 34.1187 77.6021 34.6888C77.7814 34.8236 77.9703 34.9365 78.1656 35.0286C78.8518 34.9915 79.5801 34.8683 80.2955 34.6007C81.1815 34.2692 81.9361 33.7578 82.5548 33.2179C82.9004 32.2682 82.7726 31.2083 82.2238 30.3664C81.2288 30.2856 80.0291 30.3402 78.8646 30.7758Z" fill="#363E44"/>
<path d="M72.991 39.5868C72.9417 39.5868 72.8929 39.5648 72.8605 39.5227C72.8053 39.4508 72.8186 39.3476 72.8906 39.2924C73.3336 38.9514 73.5615 38.6146 73.5677 38.2912C73.573 38.024 73.4301 37.8254 73.249 37.5738C73.0585 37.3086 72.8423 37.0082 72.7478 36.553C72.6627 36.143 72.6992 35.7068 72.8563 35.2567C72.8862 35.171 72.9803 35.126 73.0654 35.1557C73.1511 35.1856 73.1963 35.2792 73.1664 35.3648C73.0292 35.7579 72.9967 36.1353 73.0695 36.4861C73.1495 36.873 73.3356 37.1317 73.5157 37.3819C73.7151 37.6592 73.9033 37.9211 73.8959 38.2976C73.8876 38.7257 73.6167 39.148 73.0908 39.5528C73.0611 39.5758 73.026 39.5868 72.991 39.5868Z" fill="#363E44"/>
<path d="M70.637 43.0334C70.0446 43.0334 69.1595 42.9158 68.2959 42.3576C67.7479 42.0034 67.2806 41.5139 66.9445 40.9417C66.8986 40.8635 66.9248 40.7628 67.0028 40.7168C67.0811 40.6708 67.1817 40.6971 67.2277 40.7751C67.5381 41.3033 67.9692 41.755 68.4743 42.0816C69.4407 42.7063 70.4387 42.7328 70.9476 42.6928C71.036 42.6858 71.1171 42.7533 71.1242 42.8438C71.1313 42.9343 71.0637 43.0133 70.9732 43.0204C70.8765 43.028 70.7635 43.0334 70.637 43.0334Z" fill="#363E44"/>
<path d="M115.492 98.5326C115.492 98.5326 116.468 78.5122 117.734 67.9363C119.063 56.8293 122.643 40.6243 124.904 41.1543C126.191 41.4562 126.16 43.7672 125.666 49.9386C126.003 49.6516 127.238 49.0347 128.387 49.5106C130.086 50.2148 129.894 51.744 129.941 51.8862C130.047 51.7797 131.324 50.6305 132.542 50.9092C133.913 51.2233 134.518 52.2528 134.717 53.3388C134.989 53.0826 136.323 52.187 137.478 52.5136C138.98 52.9381 139.419 54.6095 139.247 55.8868C138.931 58.23 137.909 64.6111 137.8 68.055C137.584 74.8316 140.049 98.9997 137.148 108.712C130.047 103.56 115.492 98.5326 115.492 98.5326Z" fill="#84524D"/>
<path d="M135.195 60.1156C135.04 60.1156 134.888 60.0967 134.743 60.0603C133.892 59.8477 133.431 58.8705 133.375 57.9462C132.801 59.1698 131.643 59.7964 130.463 59.4839C129.567 59.2469 128.821 58.0297 128.782 56.8448C128.095 58.1235 126.671 58.835 125.811 58.578C125.284 58.4202 124.886 58.0932 124.628 57.6064C123.686 55.8291 124.81 52.2549 125.415 50.3347C125.458 50.1973 125.499 50.0679 125.536 49.9478C125.553 49.893 125.611 49.8622 125.666 49.8793C125.721 49.8963 125.752 49.9545 125.735 50.0093C125.697 50.1296 125.656 50.2593 125.613 50.3969C125.018 52.2881 123.91 55.8085 124.811 57.509C125.042 57.9448 125.399 58.2375 125.871 58.3788C126.717 58.6324 128.214 57.7755 128.753 56.4138C128.777 56.3529 128.841 56.3201 128.904 56.3357C128.968 56.3512 129.009 56.4099 129.002 56.475C128.874 57.6785 129.61 59.043 130.516 59.2828C131.702 59.5967 132.823 58.907 133.306 57.5667C133.331 57.5001 133.398 57.4618 133.467 57.4756C133.536 57.4894 133.583 57.5507 133.58 57.6215C133.536 58.5478 133.946 59.6467 134.793 59.8584C135.632 60.0682 136.836 59.6621 137.467 57.8275C137.485 57.7732 137.544 57.7442 137.599 57.7629C137.653 57.7816 137.682 57.8407 137.663 57.895C137.123 59.4682 136.103 60.1156 135.195 60.1156Z" fill="#363E44"/>
<path d="M121.062 57.8614C121.861 57.1074 126.174 53.0824 127.418 53.9739C128.879 55.0213 125.239 62.2315 124.95 62.7978L121.062 57.8614Z" fill="#84524D"/>
<path d="M124.952 62.9018C124.936 62.9018 124.92 62.8982 124.905 62.8904C124.854 62.8643 124.834 62.8017 124.86 62.7506C126.215 60.096 128.482 54.8629 127.36 54.0584C126.473 53.4222 123.563 55.6448 121.136 57.937C121.094 57.9765 121.029 57.9745 120.989 57.9328C120.95 57.891 120.952 57.8252 120.993 57.7859C122.54 56.3249 126.27 53.0206 127.481 53.8894C128.97 54.9566 125.713 61.5368 125.045 62.8451C125.027 62.881 124.99 62.9018 124.952 62.9018Z" fill="#373E44"/>
<path d="M98.5392 134.587L101.227 143.694C101.227 143.694 71.6653 156.534 40.3125 144.889L42.8505 136.23L98.5392 134.587Z" fill="#8BA78D"/>
<path d="M92.3621 146.945C92.316 146.945 92.2737 146.914 92.2616 146.867L90.3705 139.55C90.3561 139.495 90.3896 139.438 90.4452 139.424C90.5009 139.41 90.5574 139.443 90.5717 139.498L92.4628 146.815C92.4773 146.871 92.4438 146.927 92.3882 146.942C92.3795 146.944 92.3708 146.945 92.3621 146.945Z" fill="#363E44"/>
<path d="M96.7137 143.737C96.6676 143.737 96.6253 143.706 96.6132 143.659L94.7221 136.343C94.7077 136.287 94.7411 136.23 94.7967 136.216C94.8522 136.202 94.909 136.235 94.9233 136.291L96.8144 143.607C96.8288 143.663 96.7954 143.72 96.7398 143.734C96.7311 143.736 96.7223 143.737 96.7137 143.737Z" fill="#363E44"/>
<path d="M68.5893 59.6556C95.1518 57.9849 116.827 77.6037 116.827 77.6037L139.296 85.218C139.296 85.218 143.065 117.201 131.607 120.602C117.275 124.857 101.939 103.065 101.939 103.065C101.939 103.065 102.693 134.306 98.9854 136.824C86.8922 145.035 49.5301 145.615 42.0381 138.414C38.5193 135.032 38.2206 123.14 38.2206 123.14C38.2206 123.14 0 121.05 0 105.672C0 82.06 42.4643 61.2988 68.5893 59.6556Z" fill="#8BA78D"/>
<path d="M45.6041 137.542C45.2628 137.542 44.932 137.414 44.6187 137.158C43.2702 136.061 42.1951 132.48 41.7426 127.58C41.7373 127.523 41.7794 127.472 41.8366 127.467C41.8938 127.462 41.9444 127.504 41.9497 127.561C42.397 132.406 43.4439 135.934 44.7499 136.997C45.0654 137.254 45.3967 137.365 45.7354 137.327C46.0281 137.294 46.2892 137.116 46.5114 136.798C48.7229 133.631 46.7218 117.648 44.9379 110.347C44.9243 110.292 44.9585 110.235 45.0142 110.222C45.0697 110.208 45.1261 110.242 45.1398 110.298C45.921 113.495 46.9295 119.279 47.4209 124.991C47.8007 129.405 47.9808 135.057 46.6817 136.917C46.4239 137.286 46.1133 137.494 45.7585 137.534C45.7069 137.539 45.6554 137.542 45.6041 137.542Z" fill="#363E44"/>
<path d="M39.4164 100.72C39.359 100.72 39.3125 100.674 39.3125 100.616V86.8601C39.3125 86.8028 39.359 86.7562 39.4164 86.7562C39.4739 86.7562 39.5203 86.8028 39.5203 86.8601V100.616C39.5203 100.674 39.4739 100.72 39.4164 100.72Z" fill="#363E44"/>
<path d="M101.936 103.169C101.883 103.169 101.838 103.129 101.832 103.076L99.774 83.8854C99.7679 83.8283 99.8092 83.7771 99.8663 83.7709C99.924 83.7647 99.9747 83.8062 99.9807 83.8632L102.039 103.054C102.045 103.111 102.004 103.162 101.947 103.168C101.943 103.168 101.939 103.169 101.936 103.169Z" fill="#363E44"/>
<path d="M101.129 110.669L70.9844 107.426L69.0085 125.787L99.1527 129.031L101.129 110.669Z" fill="white"/>
<path d="M88.2087 96.925L61.0234 110.346L69.1985 126.905L96.3837 113.484L88.2087 96.925Z" fill="#F2E6DC"/>
<path d="M43.5937 101.492C43.5937 101.492 78.903 107.09 78.0071 110.375C77.3231 112.883 70.1689 110.793 69.025 110.642C71.9852 111.636 80.246 113.335 79.5747 115.885C78.9029 118.437 67.5144 115.708 67.4003 115.728C69.492 116.149 78.5321 117.36 78.0817 119.781C77.4844 122.991 66.967 120.286 65.4944 120.173C65.5995 120.428 72.9663 121.068 72.5576 123.438C72.1844 125.603 64.9175 124.656 62.6659 124.258C58.9208 123.57 38.2188 123.14 38.2188 123.14L43.5937 101.492Z" fill="#84524D"/>
<path d="M64.4556 108.438C64.4472 108.438 64.4386 108.437 64.4301 108.435C64.3743 108.42 64.3408 108.364 64.3547 108.308L64.8175 106.48C64.8316 106.424 64.8885 106.391 64.9437 106.405C64.9995 106.419 65.0331 106.476 65.0191 106.531L64.5563 108.359C64.5444 108.406 64.5021 108.438 64.4556 108.438Z" fill="#363E44"/>
<path d="M63.2916 113.078C63.2831 113.078 63.2745 113.077 63.266 113.075C63.2103 113.061 63.1767 113.005 63.1907 112.949L63.6536 111.121C63.6677 111.065 63.7242 111.031 63.7798 111.046C63.8355 111.06 63.8692 111.116 63.8552 111.172L63.3923 113C63.3802 113.047 63.3379 113.078 63.2916 113.078Z" fill="#363E44"/>
<path d="M62.151 117.817C62.1424 117.817 62.1339 117.816 62.1254 117.814C62.0697 117.8 62.036 117.743 62.0501 117.687L62.5128 115.859C62.527 115.804 62.5836 115.77 62.6391 115.784C62.6948 115.798 62.7284 115.855 62.7144 115.91L62.2517 117.739C62.2396 117.786 62.1973 117.817 62.151 117.817Z" fill="#363E44"/>
<path d="M61.026 122.093C61.0175 122.093 61.0089 122.092 61.0004 122.09C60.9447 122.076 60.911 122.019 60.9251 121.964L61.3879 120.135C61.4022 120.08 61.459 120.046 61.5142 120.06C61.5699 120.074 61.6036 120.131 61.5895 120.186L61.1267 122.015C61.1147 122.062 61.0723 122.093 61.026 122.093Z" fill="#363E44"/>
<path d="M114.293 106.533C114.238 106.533 114.192 106.489 114.189 106.433C113.599 91.7056 116.471 77.8009 116.501 77.6621C116.512 77.6059 116.568 77.5702 116.624 77.5817C116.68 77.5934 116.716 77.6485 116.704 77.7047C116.675 77.8433 113.807 91.7239 114.397 106.425C114.399 106.482 114.355 106.53 114.297 106.532C114.296 106.533 114.295 106.533 114.293 106.533Z" fill="#363E44"/>
<path d="M43.6722 101.521C43.6668 101.521 43.6614 101.52 43.656 101.52C37.9558 100.621 32.3043 99.1671 26.8588 97.1978C22.7762 95.7213 18.7469 93.9318 14.8834 91.8788C14.8326 91.8519 14.8133 91.7889 14.8403 91.7383C14.8673 91.6877 14.93 91.6684 14.9808 91.6953C18.836 93.7437 22.8561 95.5293 26.9295 97.0024C32.3626 98.9672 38.0011 100.418 43.6884 101.314C43.7451 101.323 43.7839 101.376 43.7749 101.433C43.7667 101.484 43.7225 101.521 43.6722 101.521Z" fill="#363E44"/>
<path d="M60.3047 50.4031C61.069 51.3683 64.823 55.3139 71.5138 56.2537C78.0953 57.1783 82.876 53.9903 83.9056 53.2678C83.4079 58.2942 82.9103 63.3206 82.4126 68.347C81.3493 69.0257 76.1227 72.2047 69.4235 70.7358C64.4056 69.6356 61.3691 66.5433 60.3163 65.3611C60.3163 60.1854 60.3047 55.5789 60.3047 50.4031Z" fill="#8BA78D"/>
<path d="M78.9087 68.7724C78.9054 68.7724 78.9019 68.7722 78.8985 68.7719C78.8414 68.7663 78.7996 68.7155 78.8052 68.6584L80.0991 55.3905C80.1047 55.3334 80.156 55.2914 80.2126 55.2972C80.2698 55.3028 80.3116 55.3536 80.306 55.4106L79.012 68.6786C79.0068 68.7323 78.9616 68.7724 78.9087 68.7724Z" fill="#363E44"/>
<path d="M76.5415 65.6539C76.5382 65.6539 76.5348 65.6537 76.5313 65.6534C76.4742 65.6479 76.4324 65.5969 76.438 65.5399L77.3607 56.0779C77.3662 56.0209 77.4174 55.9788 77.4742 55.9846C77.5314 55.9902 77.5732 56.041 77.5675 56.0981L76.6448 65.56C76.6396 65.6138 76.5944 65.6539 76.5415 65.6539Z" fill="#363E44"/>
<path d="M177.395 137.184H168.438V127.809C168.438 126.23 169.54 124.84 171.069 124.475L171.111 123.115H174.775V124.475C176.298 124.845 177.395 126.233 177.395 127.807V137.184ZM168.645 136.976H177.187V127.807C177.187 126.302 176.12 124.978 174.649 124.66L174.567 124.642V123.323H171.312L171.272 124.642L171.193 124.66C169.714 124.979 168.645 126.302 168.645 127.809L168.645 136.976Z" fill="white"/>
<path d="M176.145 131.103H169.695V135.887H176.145V131.103Z" fill="#E6D0BE"/>
<path d="M188.177 137.184H179.219V127.809C179.219 126.23 180.321 124.84 181.85 124.475L181.892 123.115H185.556L185.556 124.475C187.08 124.845 188.177 126.233 188.177 127.807V137.184ZM179.427 136.976H187.969V127.807C187.969 126.302 186.901 124.978 185.43 124.66L185.348 124.642L185.348 123.323H182.094L182.053 124.642L181.974 124.66C180.495 124.979 179.426 126.302 179.426 127.809L179.427 136.976Z" fill="white"/>
<path d="M186.926 130.149H180.477V135.886H186.926V130.149Z" fill="white"/>
<path d="M198.958 137.184H190V127.809C190 126.23 191.102 124.84 192.632 124.475L192.673 123.115H196.337V124.475C197.861 124.845 198.958 126.233 198.958 127.807V137.184ZM190.208 136.976H198.75V127.807C198.75 126.302 197.682 124.978 196.211 124.66L196.129 124.642V123.323H192.875L192.834 124.642L192.755 124.66C191.276 124.979 190.208 126.302 190.208 127.809L190.208 136.976Z" fill="white"/>
<path d="M197.707 130.149H191.258V135.886H197.707V130.149Z" fill="#E6D0BE"/>
<path d="M114.03 36.2085C120.483 36.2085 125.715 30.9766 125.715 24.5227C125.715 18.0688 120.483 12.8369 114.03 12.8369C107.576 12.8369 102.344 18.0688 102.344 24.5227C102.344 30.9766 107.576 36.2085 114.03 36.2085Z" fill="#1B1856"/>
<path d="M121.061 48.8219C127.515 48.8219 132.747 43.59 132.747 37.1361C132.747 30.6822 127.515 25.4503 121.061 25.4503C114.607 25.4503 109.375 30.6822 109.375 37.1361C109.375 43.59 114.607 48.8219 121.061 48.8219Z" fill="#8BA78D"/>
<path d="M106.756 48.8219C113.21 48.8219 118.442 43.59 118.442 37.1361C118.442 30.6822 113.21 25.4503 106.756 25.4503C100.302 25.4503 95.0703 30.6822 95.0703 37.1361C95.0703 43.59 100.302 48.8219 106.756 48.8219Z" fill="#D87355"/>
<path d="M137.581 54.4988H90.2422V7.1601H137.581V54.4988ZM90.45 54.2909H137.373V7.36794H90.45V54.2909Z" fill="white"/>
<path d="M191.662 54.6017H144.117V7.05713H191.662V54.6017ZM144.325 54.3938H191.454V7.26498H144.325V54.3938Z" fill="white"/>
<path d="M158.17 30.8058C158.17 25.8671 161.854 21.7918 166.624 21.1717V12.0507C156.83 12.7015 149.086 20.8469 149.086 30.8058C149.086 33.7279 149.753 36.4943 150.942 38.9612L158.856 34.3922C158.415 33.2822 158.17 32.073 158.17 30.8058Z" fill="#1B1856"/>
<path d="M186.693 30.8058C186.693 21.0839 179.314 13.0863 169.852 12.1057V21.2852C174.279 22.1923 177.609 26.1101 177.609 30.8058C177.609 31.9484 177.41 33.044 177.048 34.0623L184.981 38.6423C186.077 36.2562 186.693 33.6037 186.693 30.8058Z" fill="#8BA78D"/>
<path d="M167.89 40.5243C164.948 40.5243 162.313 39.2152 160.531 37.1498L152.594 41.7325C156.004 46.4986 161.582 49.608 167.89 49.608C174.323 49.608 180 46.3751 183.39 41.4474L175.475 36.8782C173.694 39.1001 170.959 40.5243 167.89 40.5243Z" fill="#D87355"/>
</svg>
