<svg width="139" height="80" viewBox="0 0 139 80" fill="none" xmlns="http://www.w3.org/2000/svg">
<path d="M65.7811 13.9409C68.2741 14.0234 70.2269 16.1108 70.142 18.6037C70.0571 21.0967 67.9722 23.0472 65.4792 22.9647C62.9862 22.8821 61.0357 20.7925 61.1182 18.3018C61.2008 15.8089 63.2905 13.856 65.7811 13.9409Z" fill="#1B1856"/>
<path d="M68.8991 56.6219C70.201 57.3578 70.6633 59.0088 69.9274 60.3107C69.1939 61.6126 67.5429 62.0749 66.241 61.3414C64.9391 60.6055 64.4768 58.9545 65.2103 57.6526C65.9462 56.3507 67.5972 55.8884 68.8991 56.6219Z" fill="#1B1856"/>
<path d="M62.6275 65.6148C63.9436 67.2681 63.6747 69.6715 62.0237 70.9875C60.3727 72.3036 57.967 72.0347 56.651 70.3838C55.3349 68.7328 55.6038 66.3271 57.2571 65.011C58.9081 63.6949 61.3114 63.9638 62.6299 65.6148H62.6275Z" fill="#1B1856"/>
<path d="M60.1979 7.03058C61.2781 9.70752 59.9832 12.7524 57.3063 13.8326C54.6294 14.9105 51.5845 13.6156 50.5043 10.9387C49.4264 8.26409 50.7213 5.21922 53.3982 4.13901C56.0728 3.0588 59.1177 4.35363 60.1979 7.03058Z" fill="#1B1856"/>
<path d="M55.2642 23.8893C55.9812 24.5544 55.9789 25.6394 55.2595 26.3163C54.5401 26.9908 53.3774 27.0002 52.6627 26.3375C51.9457 25.6724 51.9481 24.5874 52.6675 23.9105C53.3868 23.2336 54.5496 23.2242 55.2642 23.8893Z" fill="#1B1856"/>
<path d="M50.1108 56.3098C51.7877 56.956 52.6226 58.8405 51.9764 60.5151C51.3325 62.192 49.4481 63.0269 47.7711 62.3807C46.0918 61.7368 45.2569 59.8523 45.9032 58.1754C46.5494 56.4985 48.4339 55.6612 50.1084 56.3074L50.1108 56.3098Z" fill="#1B1856"/>
<path d="M50.5322 71.2252C52.0252 73.0979 51.7186 75.8267 49.8459 77.322C47.9732 78.815 45.2444 78.5084 43.7491 76.6357C42.2561 74.763 42.5627 72.0342 44.4354 70.5388C46.3081 69.0459 49.0369 69.3525 50.5322 71.2252Z" fill="#1B1856"/>
<path d="M47.6838 17.345C49.0187 17.8592 49.6815 19.3568 49.1673 20.6894C48.6531 22.022 47.1578 22.6871 45.8229 22.1729C44.4903 21.6588 43.8252 20.1611 44.3394 18.8285C44.8535 17.4959 46.3512 16.8308 47.6838 17.345Z" fill="#1B1856"/>
<path d="M46.7851 3.059C47.7945 5.55906 46.5846 8.40346 44.0845 9.41055C41.5821 10.42 38.7377 9.21008 37.7306 6.70766C36.7212 4.20761 37.9311 1.36321 40.4335 0.356114C42.9336 -0.653342 45.778 0.55659 46.7851 3.059Z" fill="#1B1856"/>
<path d="M39.0539 57.5347C41.0186 58.2895 41.9974 60.4971 41.2403 62.4594C40.4856 64.4217 38.278 65.4005 36.3157 64.6457C34.3534 63.8886 33.3746 61.6834 34.1293 59.7211C34.884 57.7564 37.0916 56.7776 39.0539 57.5347Z" fill="#1B1856"/>
<path d="M36.7233 14.1722C38.721 14.8279 39.813 16.9812 39.1573 18.9789C38.504 20.979 36.3507 22.0686 34.353 21.4129C32.3529 20.7596 31.2633 18.6063 31.9166 16.6086C32.5723 14.6085 34.7256 13.5189 36.7233 14.1722Z" fill="#1B1856"/>
<path d="M37.3744 71.4303C39.0561 73.5388 38.7117 76.612 36.6032 78.2913C34.4947 79.9729 31.4215 79.6286 29.7422 77.52C28.0629 75.4115 28.4073 72.3383 30.5158 70.659C32.6243 68.9774 35.6952 69.3241 37.3744 71.4303Z" fill="#1B1856"/>
<path d="M32.9586 4.16059C33.8525 6.38234 32.7794 8.91069 30.5576 9.80458C28.3359 10.7008 25.8075 9.62533 24.9136 7.40358C24.0198 5.18184 25.0929 2.65584 27.3146 1.7596C29.5364 0.865708 32.0624 1.93884 32.9586 4.16059Z" fill="#1B1856"/>
<path d="M27.3995 57.1732C28.1613 57.4209 28.5764 58.244 28.3264 59.0058C28.0787 59.7676 27.2556 60.1827 26.4938 59.9327C25.732 59.6851 25.3169 58.8643 25.5669 58.1001C25.8145 57.3383 26.6353 56.9232 27.3995 57.1732Z" fill="#1B1856"/>
<path d="M25.8626 18.4624C27.5701 19.0214 28.5018 20.8587 27.9404 22.5663C27.3815 24.2739 25.5442 25.2055 23.8366 24.6442C22.129 24.0852 21.1997 22.2479 21.7587 20.5403C22.3177 18.8327 24.155 17.9035 25.8626 18.4624Z" fill="#1B1856"/>
<path d="M24.8182 66.4687C26.7003 68.8273 26.3111 72.2637 23.9526 74.1458C21.5941 76.0279 18.1553 75.6411 16.2732 73.2826C14.3911 70.9217 14.7802 67.4853 17.1388 65.6032C19.4973 63.721 22.9361 64.1078 24.8182 66.4687Z" fill="#1B1856"/>
<path d="M19.7846 49.9825C20.853 50.3315 21.4332 51.4802 21.0842 52.5462C20.7351 53.6146 19.5865 54.1948 18.5204 53.8458C17.4544 53.4967 16.8718 52.3481 17.2209 51.282C17.5699 50.216 18.7186 49.6334 19.7846 49.9825Z" fill="#1B1856"/>
<path d="M20.2633 10.1625C21.0534 12.1201 20.1053 14.3489 18.1477 15.139C16.1901 15.9291 13.9613 14.981 13.1712 13.0234C12.3811 11.0635 13.3292 8.83701 15.2868 8.0469C17.2444 7.25679 19.4732 8.20492 20.2633 10.1625Z" fill="#1B1856"/>
<path d="M18.3176 27.298C19.794 27.7815 20.5983 29.3711 20.1124 30.8452C19.6289 32.3217 18.0416 33.1259 16.5652 32.6424C15.0887 32.1589 14.2845 30.5693 14.768 29.0952C15.2538 27.6164 16.8411 26.8145 18.3176 27.298Z" fill="#1B1856"/>
<path d="M16.0929 38.822C17.416 39.256 18.1354 40.6782 17.7038 42.0013C17.2698 43.3221 15.8476 44.0438 14.5245 43.6098C13.2013 43.1758 12.482 41.7536 12.916 40.4305C13.3499 39.1097 14.7721 38.388 16.0929 38.822Z" fill="#1B1856"/>
<path d="M11.5582 60.1163C11.9545 61.0998 11.478 62.2201 10.4945 62.6164C9.51101 63.0126 8.39306 62.5362 7.99683 61.555C7.59823 60.5715 8.07466 59.4512 9.05817 59.055C10.0417 58.6564 11.1596 59.1352 11.5582 60.1163Z" fill="#1B1856"/>
<path d="M10.7016 20.7502C11.3951 22.4695 10.5649 24.4271 8.84312 25.1205C7.12374 25.8139 5.16615 24.9837 4.47274 23.262C3.77933 21.5426 4.60954 19.585 6.33127 18.8916C8.05065 18.1982 10.0082 19.0308 10.7016 20.7502Z" fill="#1B1856"/>
<path d="M6.23434 47.7627C6.73907 49.0151 6.13292 50.4396 4.88054 50.9444C3.63051 51.4491 2.20359 50.8453 1.69887 49.5929C1.19414 48.3405 1.80028 46.916 3.05267 46.4112C4.3027 45.9065 5.72961 46.5103 6.23434 47.7627Z" fill="#1B1856"/>
<path d="M5.77704 34.1327C6.39498 35.6658 5.65439 37.4135 4.11898 38.0314C2.58357 38.6517 0.838253 37.9088 0.217957 36.3757C-0.39998 34.8403 0.340601 33.095 1.87601 32.4747C3.41142 31.8544 5.15674 32.5973 5.77704 34.1327Z" fill="#1B1856"/>
<path d="M103.076 34.4722C101.352 34.4722 99.6327 35.4132 98.8261 36.7812V34.7835H95.8921V51.4725H98.8898V42.2176C98.8898 39.2765 100.446 37.2246 102.675 37.2246C103.248 37.2246 104.138 37.3425 104.916 37.6727L105.211 37.7977V34.9627L105.097 34.9014C104.602 34.6373 103.829 34.4745 103.076 34.4745V34.4722Z" fill="#1B1856"/>
<path d="M135.783 34.782L131.198 47.0228H131.175L125.814 34.782H122.651L129.719 50.6149C129.606 50.8861 129.498 51.162 129.389 51.4356C128.646 53.3083 127.943 55.0796 126.078 55.0796C125.545 55.0796 124.8 54.9121 124.078 54.6291L123.788 54.5159V57.2282L123.915 57.2825C124.632 57.5938 125.639 57.7966 126.479 57.7966C129.946 57.7966 131.245 54.5607 132.623 51.1337L139 34.782H135.786H135.783Z" fill="#1B1856"/>
<path d="M60.0333 34.1638C55.2596 34.1638 51.3774 38.0483 51.3774 42.8196C51.3774 47.5909 55.262 51.4755 60.0333 51.4755C63.656 51.4755 66.9249 49.19 68.1679 45.789L68.2622 45.5319H65.1018L65.0475 45.6286C64.0287 47.44 62.1088 48.565 60.0356 48.565C57.3587 48.565 55.0167 46.6853 54.4318 44.0814H68.5995L68.6207 43.914C68.6679 43.539 68.6915 43.1687 68.6915 42.8149C68.6915 38.0412 64.807 34.1591 60.0356 34.1591L60.0333 34.1638ZM60.0333 37.0719C62.5428 37.0719 64.7857 38.7346 65.5216 41.1285H54.5473C55.2832 38.7346 57.5262 37.0719 60.0356 37.0719H60.0333Z" fill="#1B1856"/>
<path d="M84.6021 34.1638C79.8284 34.1638 75.9463 38.0483 75.9463 42.8196C75.9463 47.5909 79.8308 51.4755 84.6021 51.4755C88.2248 51.4755 91.4938 49.19 92.7367 45.789L92.8311 45.5319H89.6706L89.6164 45.6286C88.5975 47.44 86.6776 48.565 84.6045 48.565C81.9275 48.565 79.5855 46.6853 79.0006 44.0814H93.1684L93.1896 43.914C93.2367 43.539 93.2603 43.1687 93.2603 42.8149C93.2603 38.0412 89.3758 34.1591 84.6045 34.1591L84.6021 34.1638ZM79.1138 41.1285C79.8497 38.7346 82.0926 37.0719 84.6021 37.0719C87.1116 37.0719 89.3522 38.7346 90.0905 41.1285H79.1162H79.1138Z" fill="#1B1856"/>
<path d="M114.044 34.1638C109.27 34.1638 105.388 38.0483 105.388 42.8196C105.388 47.5909 109.272 51.4755 114.044 51.4755C117.666 51.4755 120.935 49.19 122.178 45.789L122.272 45.5319H119.112L119.058 45.6286C118.039 47.44 116.119 48.565 114.046 48.565C111.369 48.565 109.027 46.6853 108.442 44.0814H122.61L122.631 43.914C122.678 43.539 122.702 43.1687 122.702 42.8149C122.702 38.0412 118.817 34.1591 114.046 34.1591L114.044 34.1638ZM108.558 41.1285C109.293 38.7346 111.536 37.0719 114.046 37.0719C116.555 37.0719 118.798 38.7346 119.534 41.1285H108.56H108.558Z" fill="#1B1856"/>
<path d="M38.7259 31.1282C42.193 31.1282 45.2992 33.1967 46.6364 36.3972L46.6553 36.4444H50.0422L50.0139 36.3453C48.5421 31.3877 43.9005 27.923 38.7259 27.923C32.2328 27.923 26.9497 33.2061 26.9497 39.6992C26.9497 46.1922 32.2328 51.4754 38.7259 51.4754C43.9005 51.4754 48.5421 48.013 50.0139 43.053L50.0422 42.954H46.6553L46.6364 43.0011C45.2992 46.2017 42.193 48.2701 38.7259 48.2701C33.9994 48.2701 30.155 44.4257 30.155 39.6992C30.155 34.9727 33.9994 31.1282 38.7259 31.1282Z" fill="#1B1856"/>
<path d="M73.859 27.7412H70.8613V51.4729H73.859V27.7412Z" fill="#1B1856"/>
</svg>
