<svg width="79" height="84" viewBox="0 0 79 84" fill="none" xmlns="http://www.w3.org/2000/svg">
<path d="M57.7023 14.9237C60.7114 14.9237 63.1507 12.467 63.1507 9.43646C63.1507 6.40594 60.7114 3.94922 57.7023 3.94922C54.6932 3.94922 52.2539 6.40594 52.2539 9.43646C52.2539 12.467 54.6932 14.9237 57.7023 14.9237Z" fill="#0C0C0C"/>
<path d="M44.0513 10.2532C46.8626 10.2532 49.1416 7.95797 49.1416 5.12662C49.1416 2.29527 46.8626 0 44.0513 0C41.24 0 38.9609 2.29527 38.9609 5.12662C38.9609 7.95797 41.24 10.2532 44.0513 10.2532Z" fill="#0C0C0C"/>
<path d="M30.1617 10.6221C32.6585 10.6221 34.6827 8.58356 34.6827 6.06887C34.6827 3.55418 32.6585 1.51562 30.1617 1.51562C27.6648 1.51562 25.6406 3.55418 25.6406 6.06887C25.6406 8.58356 27.6648 10.6221 30.1617 10.6221Z" fill="#0C0C0C"/>
<path d="M17.4266 16.1795C19.6276 16.1795 21.4118 14.3826 21.4118 12.1659C21.4118 9.94929 19.6276 8.15234 17.4266 8.15234C15.2256 8.15234 13.4414 9.94929 13.4414 12.1659C13.4414 14.3826 15.2256 16.1795 17.4266 16.1795Z" fill="#0C0C0C"/>
<path d="M7.91754 26.635C9.85245 26.635 11.421 25.0553 11.421 23.1066C11.421 21.1579 9.85245 19.5781 7.91754 19.5781C5.98262 19.5781 4.41406 21.1579 4.41406 23.1066C4.41406 25.0553 5.98262 26.635 7.91754 26.635Z" fill="#0C0C0C"/>
<path d="M3.12479 40.1574C4.85056 40.1574 6.24958 38.7484 6.24958 37.0103C6.24958 35.2723 4.85056 33.8633 3.12479 33.8633C1.39902 33.8633 0 35.2723 0 37.0103C0 38.7484 1.39902 40.1574 3.12479 40.1574Z" fill="#0C0C0C"/>
<path d="M4.14017 53.6761C5.54867 53.6761 6.69049 52.5261 6.69049 51.1076C6.69049 49.689 5.54867 48.5391 4.14017 48.5391C2.73166 48.5391 1.58984 49.689 1.58984 51.1076C1.58984 52.5261 2.73166 53.6761 4.14017 53.6761Z" fill="#0C0C0C"/>
<path d="M10.193 65.8833C11.2985 65.8833 12.1946 64.9808 12.1946 63.8674C12.1946 62.7541 11.2985 61.8516 10.193 61.8516C9.08756 61.8516 8.19141 62.7541 8.19141 63.8674C8.19141 64.9808 9.08756 65.8833 10.193 65.8833Z" fill="#0C0C0C"/>
<g opacity="0.2">
<path d="M71.0894 65.5295C73.0243 65.5295 74.5929 63.9498 74.5929 62.0011C74.5929 60.0524 73.0243 58.4727 71.0894 58.4727C69.1545 58.4727 67.5859 60.0524 67.5859 62.0011C67.5859 63.9498 69.1545 65.5295 71.0894 65.5295Z" fill="#0C0C0C"/>
<path d="M75.8748 51.2472C77.6006 51.2472 78.9996 49.8383 78.9996 48.1002C78.9996 46.3621 77.6006 44.9531 75.8748 44.9531C74.149 44.9531 72.75 46.3621 72.75 48.1002C72.75 49.8383 74.149 51.2472 75.8748 51.2472Z" fill="#0C0C0C"/>
<path d="M74.8589 36.5667C76.2674 36.5667 77.4092 35.4167 77.4092 33.9982C77.4092 32.5796 76.2674 31.4297 74.8589 31.4297C73.4504 31.4297 72.3086 32.5796 72.3086 33.9982C72.3086 35.4167 73.4504 36.5667 74.8589 36.5667Z" fill="#0C0C0C"/>
<path d="M68.8063 23.2544C69.9118 23.2544 70.8079 22.3519 70.8079 21.2385C70.8079 20.1252 69.9118 19.2227 68.8063 19.2227C67.7008 19.2227 66.8047 20.1252 66.8047 21.2385C66.8047 22.3519 67.7008 23.2544 68.8063 23.2544Z" fill="#0C0C0C"/>
</g>
<path d="M21.4145 79.0936C24.5601 79.0936 27.1102 76.5254 27.1102 73.3573C27.1102 70.1892 24.5601 67.621 21.4145 67.621C18.2688 67.621 15.7188 70.1892 15.7188 73.3573C15.7188 76.5254 18.2688 79.0936 21.4145 79.0936Z" fill="#0C0C0C"/>
<path d="M34.981 83.3118C37.7923 83.3118 40.0713 81.0166 40.0713 78.1852C40.0713 75.3539 37.7923 73.0586 34.981 73.0586C32.1696 73.0586 29.8906 75.3539 29.8906 78.1852C29.8906 81.0166 32.1696 83.3118 34.981 83.3118Z" fill="#0C0C0C"/>
<path d="M49.1382 82.1729C51.6351 82.1729 53.6592 80.1343 53.6592 77.6197C53.6592 75.105 51.6351 73.0664 49.1382 73.0664C46.6413 73.0664 44.6172 75.105 44.6172 77.6197C44.6172 80.1343 46.6413 82.1729 49.1382 82.1729Z" fill="#0C0C0C"/>
<path d="M62.1688 75.4061C64.3698 75.4061 66.154 73.6092 66.154 71.3925C66.154 69.1759 64.3698 67.3789 62.1688 67.3789C59.9678 67.3789 58.1836 69.1759 58.1836 71.3925C58.1836 73.6092 59.9678 75.4061 62.1688 75.4061Z" fill="#0C0C0C"/>
<path d="M71.1421 65.0761C72.912 65.0761 74.3468 63.6311 74.3468 61.8486C74.3468 60.0661 72.912 58.6211 71.1421 58.6211C69.3723 58.6211 67.9375 60.0661 67.9375 61.8486C67.9375 63.6311 69.3723 65.0761 71.1421 65.0761Z" fill="#0C0C0C"/>
<path d="M68.6185 26.1764C71.7172 26.1764 74.2292 23.6465 74.2292 20.5257C74.2292 17.4049 71.7172 14.875 68.6185 14.875C65.5198 14.875 63.0078 17.4049 63.0078 20.5257C63.0078 23.6465 65.5198 26.1764 68.6185 26.1764Z" fill="#0C0C0C"/>
<path d="M36.9176 22.9934C39.1115 22.9934 40.89 21.2023 40.89 18.9928C40.89 16.7833 39.1115 14.9922 36.9176 14.9922C34.7238 14.9922 32.9453 16.7833 32.9453 18.9928C32.9453 21.2023 34.7238 22.9934 36.9176 22.9934Z" fill="#0C0C0C"/>
<path d="M25.9396 26.7869C27.8133 26.7869 29.3323 25.2571 29.3323 23.37C29.3323 21.4829 27.8133 19.9531 25.9396 19.9531C24.0658 19.9531 22.5469 21.4829 22.5469 23.37C22.5469 25.2571 24.0658 26.7869 25.9396 26.7869Z" fill="#0C0C0C"/>
<path d="M18.5566 35.4557C20.1757 35.4557 21.4882 34.1339 21.4882 32.5033C21.4882 30.8726 20.1757 29.5508 18.5566 29.5508C16.9375 29.5508 15.625 30.8726 15.625 32.5033C15.625 34.1339 16.9375 35.4557 18.5566 35.4557Z" fill="#0C0C0C"/>
<path d="M16.7852 47.0258C18.2349 47.0258 19.4102 45.8421 19.4102 44.382C19.4102 42.9219 18.2349 41.7383 16.7852 41.7383C15.3354 41.7383 14.1602 42.9219 14.1602 44.382C14.1602 45.8421 15.3354 47.0258 16.7852 47.0258Z" fill="#0C0C0C"/>
<path d="M21.2178 57.583C22.3887 57.583 23.3379 56.627 23.3379 55.4477C23.3379 54.2685 22.3887 53.3125 21.2178 53.3125C20.0469 53.3125 19.0977 54.2685 19.0977 55.4477C19.0977 56.627 20.0469 57.583 21.2178 57.583Z" fill="#0C0C0C"/>
<path d="M29.6046 63.6292C30.4411 63.6292 31.1193 62.9462 31.1193 62.1037C31.1193 61.2611 30.4411 60.5781 29.6046 60.5781C28.768 60.5781 28.0898 61.2611 28.0898 62.1037C28.0898 62.9462 28.768 63.6292 29.6046 63.6292Z" fill="#0C0C0C"/>
<path d="M40.8942 68.3255C43.088 68.3255 44.8665 66.5343 44.8665 64.3248C44.8665 62.1154 43.088 60.3242 40.8942 60.3242C38.7003 60.3242 36.9219 62.1154 36.9219 64.3248C36.9219 66.5343 38.7003 68.3255 40.8942 68.3255Z" fill="#0C0C0C"/>
<path d="M52.549 65.4627C54.4227 65.4627 55.9417 63.9329 55.9417 62.0458C55.9417 60.1587 54.4227 58.6289 52.549 58.6289C50.6752 58.6289 49.1562 60.1587 49.1562 62.0458C49.1562 63.9329 50.6752 65.4627 52.549 65.4627Z" fill="#0C0C0C"/>
<path d="M59.847 57.5844C61.2014 57.5844 62.2994 56.4785 62.2994 55.1144C62.2994 53.7503 61.2014 52.6445 59.847 52.6445C58.4925 52.6445 57.3945 53.7503 57.3945 55.1144C57.3945 56.4785 58.4925 57.5844 59.847 57.5844Z" fill="#0C0C0C"/>
<path d="M48.6776 23.3156C50.1672 23.3156 51.3748 22.0994 51.3748 20.5992C51.3748 19.099 50.1672 17.8828 48.6776 17.8828C47.188 17.8828 45.9805 19.099 45.9805 20.5992C45.9805 22.0994 47.188 23.3156 48.6776 23.3156Z" fill="#0C0C0C"/>
<path d="M55.0151 24.7211C54.2938 25.4605 54.335 26.5995 55.1078 27.2662C55.8806 27.933 57.0914 27.8759 57.8127 27.1391C58.534 26.3997 58.4928 25.2607 57.7199 24.594C56.9471 23.9272 55.7364 23.9843 55.0151 24.7211Z" fill="#0C0C0C"/>
</svg>
