<svg width="208" height="163" viewBox="0 0 208 163" fill="none" xmlns="http://www.w3.org/2000/svg">
<g clip-path="url(#clip0_347_8763)">
<path d="M200.472 10.1091H198.381V10.4577H200.472V10.1091Z" fill="#E6E6E6"/>
<path d="M194.156 10.4577H189.931V10.1091H194.156V10.4577ZM185.706 10.4577H181.481V10.1091H185.706L185.706 10.4577ZM177.255 10.4577H173.03V10.1091H177.255V10.4577ZM168.805 10.4577H164.579V10.1091H168.805V10.4577ZM160.354 10.4577H156.129V10.1091H160.354V10.4577ZM151.903 10.4577H147.678V10.1091H151.903V10.4577ZM143.453 10.4577H139.228V10.1091H143.453V10.4577ZM135.002 10.4577H130.777V10.1091H135.002V10.4577ZM126.552 10.4577H122.326V10.1091H126.552V10.4577ZM118.101 10.4577H113.876V10.1091H118.101V10.4577ZM109.65 10.4577H105.425V10.1091H109.65V10.4577ZM101.2 10.4577H96.9744V10.1091H101.2V10.4577ZM92.7491 10.4577H88.5238V10.1091H92.7491V10.4577ZM84.2985 10.4577H80.0731V10.1091H84.2985V10.4577ZM75.8478 10.4577H71.6226V10.1091H75.8478V10.4577ZM67.3972 10.4577H63.1719V10.1091H67.3972V10.4577Z" fill="#3F3D56"/>
<path d="M58.945 10.1091H56.8535V10.4577H58.945V10.1091Z" fill="#E6E6E6"/>
<path d="M131.801 42.5277H129.709V42.8763H131.801V42.5277Z" fill="#E6E6E6"/>
<path d="M125.546 42.8763H121.383V42.5277H125.546V42.8763ZM117.221 42.8763H113.058V42.5277H117.221V42.8763ZM108.895 42.8763H104.733V42.5277H108.895V42.8763ZM100.57 42.8763H96.4079V42.5277H100.57V42.8763ZM92.2453 42.8763H88.0827V42.5277H92.2453V42.8763ZM83.9201 42.8763H79.7576V42.5277H83.9201V42.8763ZM75.5951 42.8763H71.4325V42.5277H75.5951L75.5951 42.8763ZM67.27 42.8763H63.1074V42.5277H67.27V42.8763Z" fill="#3F3D56"/>
<path d="M58.945 42.5277H56.8535V42.8763H58.945V42.5277Z" fill="#E6E6E6"/>
<path d="M91.0154 57.8656H88.9238V58.2142H91.0154V57.8656Z" fill="#E6E6E6"/>
<path d="M84.6417 58.2142H80.3591V57.8656H84.6417V58.2142ZM76.0764 58.2142H71.7938V57.8656H76.0764V58.2142ZM67.5111 58.2142H63.2285V57.8656H67.5111V58.2142Z" fill="#1E1E1E"/>
<path d="M58.945 57.8656H56.8535V58.2142H58.945V57.8656Z" fill="#E6E6E6"/>
<path d="M200.532 13.947V73.6462C200.528 76.6498 199.334 79.5294 197.21 81.6532C195.086 83.7771 192.206 84.9718 189.203 84.9753H67.8941C66.3038 84.9764 64.7312 84.6416 63.2793 83.9928C61.8274 83.3441 60.5289 82.3959 59.4688 81.2105V80.6772C60.4893 81.9049 61.7661 82.8946 63.2095 83.5769C64.6529 84.2591 66.228 84.6174 67.8245 84.6267L88.806 63.6452C89.0811 63.37 89.4077 63.1517 89.7671 63.0028C90.1266 62.8539 90.5119 62.7772 90.901 62.7772C91.2901 62.7772 91.6754 62.8539 92.0348 63.0028C92.3943 63.1517 92.7209 63.37 92.996 63.6452L104.147 74.793L130.288 48.6559C130.563 48.3807 130.89 48.1624 131.249 48.0135C131.609 47.8646 131.994 47.7879 132.383 47.7879C132.772 47.7879 133.157 47.8646 133.517 48.0135C133.876 48.1624 134.203 48.3807 134.478 48.6559L149.812 63.9868L199.838 13.9644L200.183 13.954L200.344 13.9505L200.532 13.947Z" fill="#6C63FF"/>
<path d="M189.317 85.0555H68.0088C65.0052 85.052 62.1256 83.8574 60.0017 81.7335C57.8778 79.6096 56.6831 76.73 56.6797 73.7263V11.3291C56.6831 8.32548 57.8778 5.44586 60.0017 3.32197C62.1256 1.19809 65.0052 0.00339987 68.0088 0H189.317C192.321 0.00339895 195.201 1.19809 197.325 3.32197C199.448 5.44586 200.643 8.32548 200.646 11.3291V73.7263C200.643 76.73 199.448 79.6096 197.325 81.7335C195.201 83.8574 192.321 85.052 189.317 85.0555ZM68.0088 0.348588C65.0976 0.351882 62.3066 1.50981 60.248 3.56835C58.1895 5.62688 57.0316 8.4179 57.0283 11.3291V73.7263C57.0316 76.6375 58.1895 79.4286 60.248 81.4871C62.3066 83.5456 65.0976 84.7036 68.0088 84.7069H189.317C192.229 84.7036 195.02 83.5456 197.078 81.4871C199.137 79.4286 200.295 76.6375 200.298 73.7263V11.3291C200.295 8.4179 199.137 5.62688 197.078 3.56835C195.02 1.50981 192.229 0.351881 189.317 0.348588H68.0088Z" fill="#3F3D56"/>
<path d="M68.1332 85.0044L67.8867 84.7579L88.9217 63.723C89.4777 63.1681 90.2312 62.8565 91.0168 62.8565C91.8023 62.8565 92.5558 63.1681 93.1119 63.723L104.263 74.8742L130.404 48.7337C130.96 48.1788 131.713 47.8672 132.499 47.8672C133.284 47.8672 134.038 48.1788 134.594 48.7337L149.928 64.068L200.35 13.646L200.597 13.8924L149.928 64.5609L134.347 48.9802C134.105 48.7374 133.816 48.5448 133.499 48.4134C133.182 48.282 132.842 48.2144 132.499 48.2144C132.155 48.2144 131.815 48.282 131.498 48.4134C131.181 48.5448 130.893 48.7374 130.65 48.9802L104.263 75.3671L92.8654 63.9694C92.3747 63.4799 91.7098 63.205 91.0167 63.205C90.3236 63.205 89.6588 63.4799 89.1681 63.9694L68.1332 85.0044Z" fill="#3F3D56"/>
<path d="M91.0163 60.4801C92.3639 60.4801 93.4564 59.3876 93.4564 58.04C93.4564 56.6923 92.3639 55.5999 91.0163 55.5999C89.6686 55.5999 88.5762 56.6923 88.5762 58.04C88.5762 59.3876 89.6686 60.4801 91.0163 60.4801Z" fill="#3F3D56"/>
<path d="M131.801 45.1422C133.149 45.1422 134.242 44.0497 134.242 42.7021C134.242 41.3544 133.149 40.262 131.801 40.262C130.454 40.262 129.361 41.3544 129.361 42.7021C129.361 44.0497 130.454 45.1422 131.801 45.1422Z" fill="#3F3D56"/>
<path d="M200.473 12.7235C201.821 12.7235 202.913 11.631 202.913 10.2834C202.913 8.93574 201.821 7.84326 200.473 7.84326C199.126 7.84326 198.033 8.93574 198.033 10.2834C198.033 11.631 199.126 12.7235 200.473 12.7235Z" fill="#3F3D56"/>
<path d="M54.051 158.246H49.7773L49.1387 141.762L54.0517 141.763L54.051 158.246Z" fill="#FFB8B8"/>
<path d="M55.1412 162.389L41.3613 162.389V162.214C41.3613 161.51 41.5 160.812 41.7696 160.162C42.0391 159.511 42.4342 158.92 42.9323 158.422C43.4303 157.924 44.0216 157.529 44.6723 157.259C45.3231 156.99 46.0205 156.851 46.7249 156.851H46.7252L55.1415 156.851L55.1412 162.389Z" fill="#2F2E41"/>
<path d="M78.1241 158.246H82.3974L83.0364 141.762L78.123 141.763L78.1241 158.246Z" fill="#FFB8B8"/>
<path d="M77.0332 156.851L85.4494 156.851H85.4498C86.1541 156.851 86.8516 156.99 87.5023 157.259C88.1531 157.529 88.7443 157.924 89.2424 158.422C89.7404 158.92 90.1355 159.511 90.4051 160.162C90.6746 160.812 90.8133 161.51 90.8133 162.214V162.389L77.0334 162.389L77.0332 156.851Z" fill="#2F2E41"/>
<path d="M78.2333 156.134C77.8767 156.133 77.531 156.011 77.2528 155.788C76.9746 155.565 76.7802 155.254 76.7015 154.906L66.1092 108.705C66.0859 108.587 66.022 108.482 65.9286 108.407C65.8353 108.332 65.7185 108.292 65.5988 108.295H65.5962C65.4761 108.293 65.359 108.333 65.2659 108.409C65.1727 108.485 65.1094 108.592 65.0872 108.71L55.36 154.6C55.2841 154.951 55.0906 155.265 54.8116 155.491C54.5325 155.717 54.1846 155.841 53.8254 155.843H49.1917C48.9779 155.843 48.7664 155.799 48.5701 155.714C48.3738 155.63 48.1969 155.506 48.0502 155.35C47.9036 155.195 47.7903 155.011 47.7173 154.81C47.6443 154.609 47.6132 154.395 47.6258 154.182L51.0771 96.0178L52.4659 95.6069L52.492 95.6073L79.7718 95.8459L85.5819 153.946C85.6022 154.153 85.581 154.362 85.5196 154.561C85.4581 154.76 85.3577 154.945 85.2241 155.104C85.0906 155.264 84.9265 155.396 84.7416 155.491C84.5566 155.587 84.3545 155.645 84.1469 155.661L78.359 156.129C78.3168 156.132 78.2749 156.134 78.2333 156.134Z" fill="#2F2E41"/>
<path d="M66.9699 42.3674C71.6984 42.3674 75.5316 38.5342 75.5316 33.8057C75.5316 29.0772 71.6984 25.244 66.9699 25.244C62.2414 25.244 58.4082 29.0772 58.4082 33.8057C58.4082 38.5342 62.2414 42.3674 66.9699 42.3674Z" fill="#A0616A"/>
<path d="M61.7255 102.395C60.2235 102.413 58.7274 102.203 57.2888 101.77C56.0094 101.385 54.8224 100.741 53.801 99.8792C52.7796 99.0175 51.9453 97.9558 51.3496 96.7595C51.1608 96.3996 51.1189 95.9804 51.2328 95.5902C52.177 92.3675 56.74 75.6159 53.8287 62.299C53.4177 60.4491 53.3836 58.5353 53.7282 56.6719C54.0729 54.8085 54.7893 53.0335 55.8348 51.453C56.856 49.8848 58.1825 48.5384 59.7352 47.494C61.288 46.4496 63.0352 45.7287 64.8727 45.3741L64.8728 45.3738C65.3556 45.2795 65.8412 45.2022 66.3156 45.1437C68.3467 44.8937 70.408 45.0957 72.3519 45.7353C74.2959 46.3749 76.0744 47.4362 77.5603 48.8433C79.0903 50.2781 80.2842 52.0334 81.0565 53.9836C81.8288 55.9337 82.1605 58.0305 82.0277 60.1238L79.7901 96.0297C79.7747 96.2989 79.6895 96.5594 79.543 96.7857C79.3964 97.012 79.1935 97.1963 78.9542 97.3206C76.3773 98.671 68.6362 102.395 61.7255 102.395Z" fill="#FAE251"/>
<path d="M53.2318 96.4992C53.722 96.2553 54.1527 95.9069 54.4936 95.4785C54.8345 95.0501 55.0773 94.5522 55.205 94.0199C55.3327 93.4875 55.3421 92.9336 55.2325 92.3972C55.123 91.8609 54.8971 91.355 54.571 90.9153L57.3712 63.5372H51.3196L49.0943 90.2705C48.392 90.8675 47.933 91.7013 47.8044 92.614C47.6758 93.5267 47.8865 94.4549 48.3965 95.2226C48.9065 95.9904 49.6804 96.5444 50.5716 96.7797C51.4628 97.0149 52.4093 96.9151 53.2318 96.4992Z" fill="#A0616A"/>
<path d="M57.7979 50.576C58.9796 50.8134 60.0345 51.4731 60.7652 52.4317C61.496 53.3902 61.8527 54.5821 61.7687 55.7845L60.9347 67.7212C60.92 67.9305 60.8584 68.1338 60.7542 68.316C60.6501 68.4981 60.5062 68.6544 60.3333 68.7732C60.1604 68.892 59.9629 68.9703 59.7555 69.0022C59.5481 69.034 59.3362 69.0187 59.1356 68.9573L49.0878 65.8815C48.9048 65.8254 48.7353 65.7324 48.5899 65.608C48.4444 65.4837 48.3261 65.3308 48.2423 65.1587C48.1586 64.9867 48.1111 64.7993 48.1029 64.6081C48.0946 64.4169 48.1258 64.2261 48.1945 64.0475L52.1915 53.6579C52.6119 52.5651 53.4053 51.6562 54.4314 51.0922C55.4575 50.5282 56.65 50.3453 57.7979 50.576Z" fill="#FAE251"/>
<path d="M76.6425 27.5035C75.7531 25.2684 74.124 23.4059 72.0272 22.2269C69.9303 21.048 67.4925 20.6239 65.1207 21.0254L67.8201 23.2068C64.4662 23.3198 60.9357 23.0796 58.541 25.4306C59.3034 25.4094 60.3026 27.0401 61.065 27.019C59.6396 27.0472 58.3471 28.0487 57.7175 29.3277C57.1344 30.6418 56.998 32.1108 57.3292 33.5098C57.6107 34.9073 59.7582 38.1814 60.3362 39.4846C60.2368 36.0789 66.9417 27.9553 70.2158 28.8031C68.5524 29.4203 67.1089 30.5162 66.0675 31.9527C68.2949 30.8285 70.8141 30.4164 73.2836 30.772C73.8474 30.9013 74.4291 30.9338 75.0039 30.8683C75.3561 30.7986 75.6846 30.6397 75.958 30.4069C76.2314 30.1741 76.4405 29.8751 76.5654 29.5384C76.6903 29.2017 76.7268 28.8387 76.6714 28.4839C76.6161 28.1291 76.4706 27.7944 76.249 27.5119L76.6425 27.5035Z" fill="#2F2E41"/>
<path d="M133.161 162.79H0.348588C0.256137 162.79 0.167472 162.754 0.102099 162.688C0.0367259 162.623 0 162.534 0 162.442C0 162.349 0.0367259 162.261 0.102099 162.195C0.167472 162.13 0.256137 162.093 0.348588 162.093H133.161C133.253 162.093 133.342 162.13 133.407 162.195C133.472 162.261 133.509 162.349 133.509 162.442C133.509 162.534 133.472 162.623 133.407 162.688C133.342 162.754 133.253 162.79 133.161 162.79Z" fill="#3F3D56"/>
<path d="M59.7717 101.826C64.833 101.826 68.9359 95.9867 68.9359 88.7834C68.9359 81.58 64.833 75.7406 59.7717 75.7406C54.7104 75.7406 50.6074 81.58 50.6074 88.7834C50.6074 95.9867 54.7104 101.826 59.7717 101.826Z" fill="#3F3D56"/>
<path opacity="0.1" d="M59.7717 101.826C64.833 101.826 68.9359 95.9867 68.9359 88.7834C68.9359 81.58 64.833 75.7406 59.7717 75.7406C54.7104 75.7406 50.6074 81.58 50.6074 88.7834C50.6074 95.9867 54.7104 101.826 59.7717 101.826Z" fill="black"/>
<path d="M61.008 101.826C66.0693 101.826 70.1723 95.9867 70.1723 88.7834C70.1723 81.58 66.0693 75.7406 61.008 75.7406C55.9467 75.7406 51.8438 81.58 51.8438 88.7834C51.8438 95.9867 55.9467 101.826 61.008 101.826Z" fill="#3F3D56"/>
<path opacity="0.1" d="M61.0065 99.9698C65.3474 99.9698 68.8665 94.9614 68.8665 88.7833C68.8665 82.6052 65.3474 77.5968 61.0065 77.5968C56.6655 77.5968 53.1465 82.6052 53.1465 88.7833C53.1465 94.9614 56.6655 99.9698 61.0065 99.9698Z" fill="black"/>
<path d="M60.9385 94.1718V92.8587C60.3098 92.8531 59.6982 92.6533 59.1875 92.2866L59.4621 91.4156C59.9381 91.7723 60.5154 91.9681 61.1102 91.9746C61.2851 91.9884 61.4611 91.9657 61.6267 91.9077C61.7924 91.8498 61.9441 91.7579 62.0723 91.638C62.2004 91.5181 62.3022 91.3728 62.371 91.2114C62.4399 91.05 62.4743 90.876 62.4721 90.7005C62.4721 89.9854 62.0258 89.5434 61.1788 89.1533C60.0115 88.6333 59.2905 88.0351 59.2905 86.9041C59.2725 86.4041 59.4385 85.915 59.757 85.5292C60.0755 85.1434 60.5244 84.8878 61.0187 84.8108V83.4977H61.7282V84.7588C62.2573 84.7661 62.7734 84.9239 63.216 85.2139L62.9299 86.072C62.5054 85.7814 62.0023 85.6272 61.4879 85.6299C61.3326 85.6136 61.1757 85.6306 61.0275 85.6797C60.8793 85.7288 60.7433 85.8089 60.6285 85.9147C60.5137 86.0205 60.4228 86.1496 60.3618 86.2933C60.3008 86.4369 60.2711 86.592 60.2747 86.748C60.2747 87.4241 60.6982 87.7621 61.6939 88.2302C62.8727 88.7763 63.4678 89.4524 63.4678 90.6095C63.4836 91.134 63.3093 91.6466 62.977 92.0527C62.6447 92.4589 62.1768 92.7312 61.6595 92.8196V94.1719L60.9385 94.1718Z" fill="#6C63FF"/>
<path d="M65.912 81.3114C66.1037 81.3335 66.2932 81.3707 66.479 81.4227L79.602 70.1688L78.8349 66.0397L84.9152 64.0675L86.9835 71.2454C87.1506 71.8252 87.1251 72.4437 86.9108 73.0078C86.6965 73.572 86.305 74.0514 85.7951 74.374L69.1753 84.8911C69.1871 85.6341 68.9724 86.363 68.5598 86.981C68.1471 87.599 67.5562 88.0767 66.8654 88.3506C66.1747 88.6245 65.4169 88.6816 64.6929 88.5144C63.9689 88.3471 63.313 87.9634 62.8124 87.4142C62.3118 86.8651 61.9903 86.1766 61.8905 85.4402C61.7908 84.7039 61.9176 83.9546 62.2541 83.2921C62.5906 82.6296 63.1208 82.0852 63.7742 81.7314C64.4277 81.3776 65.1733 81.2311 65.912 81.3114Z" fill="#A0616A"/>
<path d="M77.1574 51.0058C78.3374 50.7599 79.5665 50.9522 80.6151 51.5466C81.6637 52.1411 82.4599 53.097 82.855 54.2357L86.777 65.5405C86.8458 65.7387 86.869 65.9499 86.8448 66.1583C86.8206 66.3667 86.7497 66.567 86.6373 66.7442C86.5249 66.9214 86.374 67.071 86.1958 67.1817C86.0177 67.2925 85.8168 67.3616 85.6081 67.384L75.1598 68.5024C74.9695 68.5228 74.7771 68.5038 74.5945 68.4466C74.4119 68.3894 74.2431 68.2952 74.0984 68.1699C73.9538 68.0446 73.8365 67.8909 73.7539 67.7183C73.6712 67.5458 73.6249 67.358 73.618 67.1668L73.2123 56.0422C73.1696 54.8722 73.5423 53.7247 74.2643 52.8029C74.9863 51.8812 76.0111 51.2446 77.1574 51.0058Z" fill="#FAE251"/>
</g>
<defs>
<clipPath id="clip0_347_8763">
<rect width="208" height="162.363" fill="white"/>
</clipPath>
</defs>
</svg>
