<svg width="144" height="141" viewBox="0 0 144 141" fill="none" xmlns="http://www.w3.org/2000/svg">
<g clip-path="url(#clip0_348_8868)">
<path d="M44.4679 103.145H26.4302C25.9755 103.145 25.6055 102.775 25.6055 102.32C25.6055 101.865 25.9755 101.496 26.4302 101.496H44.4679C44.9227 101.496 45.2925 101.865 45.2925 102.32C45.2925 102.775 44.9227 103.145 44.4679 103.145Z" fill="#6C63FF"/>
<path d="M12.2539 107.56C12.2539 107.708 12.3729 107.827 12.521 107.827H58.3779C58.526 107.827 58.645 107.708 58.645 107.56C58.645 107.411 58.526 107.292 58.3779 107.292H12.521C12.3729 107.292 12.2539 107.411 12.2539 107.56Z" fill="#3F3D56"/>
<path d="M109.005 53.7388C117.063 53.7388 123.595 47.2064 123.595 39.1483C123.595 31.0901 117.063 24.5577 109.005 24.5577C100.946 24.5577 94.4141 31.0901 94.4141 39.1483C94.4141 47.2064 100.946 53.7388 109.005 53.7388Z" fill="#FF6884"/>
<path d="M0 125.997C0 126.145 0.118976 126.264 0.267132 126.264H117.505C117.653 126.264 117.772 126.145 117.772 125.997C117.772 125.848 117.653 125.729 117.505 125.729H0.267132C0.118976 125.729 0 125.848 0 125.997Z" fill="#3F3D56"/>
<path d="M1.6973 107.958L1.32227 107.547L37.9251 74.1468L51.1124 80.0584L65.3528 55.6375L77.0526 49.998L87.8929 68.065C93.7453 52.9136 108.423 37.0617 126.01 20.9789L126.443 21.3292C109.948 37.1216 95.8344 52.9857 87.8249 69.0335L77.7981 52.2731C77.3244 51.4813 76.329 51.1754 75.4925 51.5647C69.0972 54.5404 63.7629 59.3976 60.2028 65.4869L51.2825 80.7444L49.2463 79.8316C42.4363 76.7789 34.464 78.0583 28.9513 83.0887L1.6973 107.958Z" fill="#3F3D56"/>
<path d="M126.835 24.0196L126.279 24.0582L125.383 22.1148L123.375 21.7071L123.297 21.1555L126.606 20.6852L126.835 24.0196Z" fill="#3F3D56"/>
<path d="M69.7402 35.9107L71.7078 28.3467L79.3728 27.978L81.666 38.4048L69.7402 35.9107Z" fill="#FFB6B6"/>
<path opacity="0.1" d="M69.7402 35.9107L71.7078 28.3467L79.3728 27.978L81.666 38.4048L69.7402 35.9107Z" fill="black"/>
<path d="M74.783 32.5796C79.8927 32.5796 84.0348 28.4375 84.0348 23.3278C84.0348 18.2182 79.8927 14.076 74.783 14.076C69.6734 14.076 65.5312 18.2182 65.5312 23.3278C65.5312 28.4375 69.6734 32.5796 74.783 32.5796Z" fill="#FFB6B6"/>
<path d="M79.888 25.2862C79.888 25.2862 76.3734 18.3226 72.2554 18.7246C68.1375 19.1267 65.968 19.6156 65.968 19.6156C65.968 19.6156 64.7457 14.192 70.5006 12.1058C70.5006 12.1058 63.1833 4.89277 71.8952 1.35443C80.6071 -2.1839 85.482 2.32879 85.482 2.32879C85.482 2.32879 91.9306 8.76645 83.8088 13.578C83.8088 13.578 89.8396 21.6901 82.5379 28.3762C82.5379 28.3762 84.1711 22.9656 82.467 23.9634C80.763 24.9613 79.888 25.2862 79.888 25.2862Z" fill="#2F2E41"/>
<path d="M64.5749 74.1674L63.3443 75.3468L54.4537 94.4099L53.4805 125.942H68.4179L75.425 110.327L80.1461 125.791H93.5771L96.6905 97.7188L88.321 77.8655L64.5749 74.1674Z" fill="#2F2E41"/>
<path d="M80.0491 35.142H70.0734L59.2227 40.9812L61.753 52.2703C61.753 52.2703 61.1691 59.0827 62.5315 64.1433C63.894 69.2039 63.3101 75.8217 63.3101 75.8217L88.3213 77.8654L89.0999 54.8979L88.7106 39.5214L80.0491 35.142Z" fill="#E6E6E6"/>
<path d="M60.876 41.0785C60.876 41.0785 54.8421 41.2731 53.8689 45.1659C52.8957 49.0587 52.1172 69.1066 52.1172 69.1066C52.1172 69.1066 52.7011 81.0027 59.2215 75.3466C65.742 69.6906 65.1581 52.5622 65.1581 52.5622L60.876 41.0785Z" fill="#E6E6E6"/>
<path d="M119.402 140.381H83.8442C82.6399 140.381 81.6602 139.402 81.6602 138.197V101.439C81.6602 100.234 82.6399 99.2546 83.8442 99.2546H119.402C120.606 99.2546 121.586 100.234 121.586 101.439V138.197C121.586 139.402 120.606 140.381 119.402 140.381Z" fill="white"/>
<path d="M119.402 140.606H83.844C82.516 140.606 81.4355 139.525 81.4355 138.197V101.439C81.4355 100.111 82.516 99.0302 83.844 99.0302H119.402C120.73 99.0302 121.81 100.111 121.81 101.439V138.197C121.81 139.525 120.73 140.606 119.402 140.606ZM83.844 99.4791C82.7635 99.4791 81.8845 100.358 81.8845 101.439V138.197C81.8845 139.278 82.7635 140.157 83.844 140.157H119.402C120.482 140.157 121.362 139.278 121.362 138.197V101.439C121.362 100.358 120.482 99.4791 119.402 99.4791H83.844Z" fill="#3F3D56"/>
<path d="M103.027 130.724H100.096C99.7395 130.724 99.4492 130.5 99.4492 130.225V117.607C99.4492 117.332 99.7395 117.108 100.096 117.108H103.027C103.384 117.108 103.674 117.332 103.674 117.607V130.225C103.674 130.5 103.384 130.724 103.027 130.724Z" fill="#6C63FF"/>
<path d="M93.3373 123.289C93.049 123.289 92.8145 123.47 92.8145 123.692V130.211C92.8145 130.433 93.049 130.614 93.3373 130.614H96.268C96.5563 130.614 96.7908 130.433 96.7908 130.211V123.692C96.7908 123.47 96.5563 123.289 96.268 123.289H93.3373Z" fill="#6C63FF"/>
<path d="M109.785 130.724H106.854C106.497 130.724 106.207 130.5 106.207 130.225V109.547C106.207 109.271 106.497 109.047 106.854 109.047H109.785C110.142 109.047 110.432 109.271 110.432 109.547V130.225C110.432 130.5 110.142 130.724 109.785 130.724Z" fill="#6C63FF"/>
<path d="M46.7177 40.0839H43.37C42.9624 40.0839 42.6309 39.828 42.6309 39.5133V25.1002C42.6309 24.7856 42.9624 24.5297 43.37 24.5297H46.7177C47.1253 24.5297 47.4569 24.7856 47.4569 25.1002V39.5133C47.4569 39.8279 47.1253 40.0839 46.7177 40.0839Z" fill="#6C63FF"/>
<path d="M35.65 31.5901C35.3207 31.5901 35.0527 31.7969 35.0527 32.0511V39.4972C35.0527 39.7514 35.3207 39.9582 35.65 39.9582H38.9977C39.3269 39.9582 39.5949 39.7514 39.5949 39.4972V32.0511C39.5949 31.7969 39.3269 31.5901 38.9977 31.5901H35.65Z" fill="#6C63FF"/>
<path d="M54.4384 40.0839H51.0907C50.6831 40.0839 50.3516 39.8279 50.3516 39.5133V15.8928C50.3516 15.5782 50.6831 15.3223 51.0907 15.3223H54.4384C54.846 15.3223 55.1776 15.5782 55.1776 15.8928V39.5133C55.1776 39.8279 54.846 40.0839 54.4384 40.0839Z" fill="#6C63FF"/>
<path d="M96.1705 104.603C97.9044 104.437 99.0984 102.094 98.8376 99.3683C98.7483 98.2781 98.3992 97.2252 97.8196 96.2976L97.4854 93.2129L97.5366 93.1975L98.3766 78.5716C98.5719 75.1708 97.2258 71.8292 94.6322 69.6209C93.0893 68.3073 91.4434 67.6422 90.385 69.302C88.6288 72.0561 90.9036 83.4091 92.3975 89.8637L92.9767 96.7612C92.5832 97.7822 92.4401 98.8826 92.5592 99.9702C92.8196 102.695 94.4365 104.769 96.1705 104.603Z" fill="#FFB6B6"/>
<path d="M86.5684 39.9107C86.5684 39.9107 91.629 37.9643 93.9647 43.8035C96.3004 49.6427 98.8307 78.4494 98.8307 78.4494L86.9576 76.3083L86.5684 39.9107Z" fill="#E6E6E6"/>
<path d="M17.0804 37.0546H10.2662C9.81142 37.0546 9.44141 36.6846 9.44141 36.2299C9.44141 35.7751 9.81142 35.4053 10.2662 35.4053H17.0804C17.5352 35.4053 17.905 35.7751 17.905 36.2299C17.905 36.6846 17.5352 37.0546 17.0804 37.0546Z" fill="#E6E6E6"/>
<path d="M17.0804 25.3644H10.2662C9.81142 25.3644 9.44141 24.9944 9.44141 24.5397C9.44141 24.0849 9.81142 23.7151 10.2662 23.7151H17.0804C17.5352 23.7151 17.905 24.0849 17.905 24.5397C17.905 24.9944 17.5352 25.3644 17.0804 25.3644Z" fill="#E6E6E6"/>
<path d="M17.0804 16.934H10.2662C9.81142 16.934 9.44141 16.564 9.44141 16.1093C9.44141 15.6545 9.81142 15.2847 10.2662 15.2847H17.0804C17.5352 15.2847 17.905 15.6545 17.905 16.1093C17.905 16.564 17.5352 16.934 17.0804 16.934Z" fill="#E6E6E6"/>
<path d="M9.16797 40.1248C9.16797 40.2729 9.28694 40.3919 9.4351 40.3919H55.292C55.4401 40.3919 55.5591 40.2729 55.5591 40.1248C55.5591 39.9766 55.4401 39.8577 55.292 39.8577H9.4351C9.28694 39.8577 9.16797 39.9766 9.16797 40.1248Z" fill="#3F3D56"/>
<path d="M97.6094 109.261C97.6094 109.41 97.7284 109.529 97.8765 109.529H143.733C143.882 109.529 144 109.41 144 109.261C144 109.113 143.882 108.994 143.733 108.994H97.8765C97.7284 108.994 97.6094 109.113 97.6094 109.261Z" fill="#3F3D56"/>
<path d="M84.1406 131.035C84.1406 131.183 84.2596 131.302 84.4078 131.302H130.265C130.413 131.302 130.532 131.183 130.532 131.035C130.532 130.887 130.413 130.768 130.265 130.768H84.4078C84.2596 130.768 84.1406 130.887 84.1406 131.035Z" fill="#3F3D56"/>
<path d="M53.3044 38.7743C51.5705 38.9404 50.3765 41.2834 50.6373 44.009C50.7266 45.0992 51.0757 46.1521 51.6553 47.0797L51.9895 50.1644L51.9383 50.1797L51.0983 64.8057C50.903 68.2064 52.2492 71.5481 54.8427 73.7564C56.3856 75.07 58.0315 75.7351 59.0899 74.0753C60.8461 71.3212 58.5713 59.9682 57.0774 53.5136L56.4982 46.6161C56.8917 45.5951 57.0348 44.4947 56.9157 43.4071C56.6553 40.6825 55.0384 38.6083 53.3044 38.7743Z" fill="#FFB6B6"/>
</g>
<defs>
<clipPath id="clip0_348_8868">
<rect width="144" height="140.606" fill="white"/>
</clipPath>
</defs>
</svg>
