<svg width="104" height="79" viewBox="0 0 104 79" fill="none" xmlns="http://www.w3.org/2000/svg">
<g clip-path="url(#clip0_348_8976)">
<path d="M103.85 74.4633H0.150289C0.11043 74.4633 0.0722032 74.4475 0.0440185 74.4195C0.0158339 74.3914 0 74.3534 0 74.3137C0 74.274 0.0158339 74.2359 0.0440185 74.2079C0.0722032 74.1798 0.11043 74.1641 0.150289 74.1641H103.85C103.89 74.1641 103.928 74.1798 103.956 74.2079C103.984 74.2359 104 74.274 104 74.3137C104 74.3534 103.984 74.3914 103.956 74.4195C103.928 74.4475 103.89 74.4633 103.85 74.4633Z" fill="#CCCCCC"/>
<path d="M93.5841 48.3672H32.5667C32.3076 48.3672 32.0592 48.4696 31.876 48.652C31.6928 48.8344 31.5898 49.0817 31.5898 49.3396C31.5898 49.5976 31.6928 49.8449 31.876 50.0273C32.0592 50.2096 32.3076 50.3121 32.5667 50.3121H34.295V73.5763C34.295 73.8342 34.398 74.0816 34.5812 74.2639C34.7644 74.4463 35.0128 74.5488 35.2719 74.5488C35.531 74.5488 35.7795 74.4463 35.9627 74.2639C36.1459 74.0816 36.2488 73.8342 36.2488 73.5763L36.2636 50.3121H89.7517V73.5763C89.7517 73.8342 89.8546 74.0816 90.0378 74.2639C90.221 74.4463 90.4695 74.5488 90.7286 74.5488C90.9877 74.5488 91.2361 74.4463 91.4193 74.2639C91.6025 74.0816 91.7054 73.8342 91.7054 73.5763V50.8249L91.9897 50.3121H93.5841C93.8431 50.3121 94.0916 50.2096 94.2748 50.0273C94.458 49.8449 94.5609 49.5976 94.5609 49.3396C94.5609 49.0817 94.458 48.8344 94.2748 48.652C94.0916 48.4696 93.8431 48.3672 93.5841 48.3672Z" fill="#CCCCCC"/>
<path d="M66.3913 48.8799H47.9085C47.5506 48.8795 47.2075 48.7378 46.9544 48.4859C46.7013 48.234 46.559 47.8924 46.5586 47.5362V37.4063C46.559 37.05 46.7013 36.7084 46.9544 36.4565C47.2075 36.2046 47.5506 36.0629 47.9085 36.0625H66.3913C66.7492 36.0629 67.0923 36.2046 67.3453 36.4565C67.5984 36.7084 67.7407 37.05 67.7411 37.4063V47.5362C67.7407 47.8924 67.5984 48.234 67.3453 48.4859C67.0923 48.7378 66.7492 48.8795 66.3913 48.8799Z" fill="#3F3D56"/>
<path d="M66.3952 37.0938H47.9126C47.8302 37.0939 47.7512 37.1266 47.6929 37.1846C47.6346 37.2427 47.6017 37.3214 47.6016 37.4034V47.5335C47.6017 47.6155 47.6346 47.6942 47.6929 47.7523C47.7512 47.8103 47.8302 47.843 47.9126 47.8432H66.3952C66.4777 47.843 66.5567 47.8103 66.615 47.7523C66.6733 47.6942 66.7062 47.6155 66.7063 47.5335V37.4034C66.7062 37.3214 66.6733 37.2427 66.615 37.1846C66.5567 37.1266 66.4777 37.0939 66.3952 37.0938Z" fill="white"/>
<path d="M58.7311 44.2672C58.7311 44.2672 56.5185 43.7596 55.3016 44.6901C54.0846 45.6206 56.8504 47.7354 56.8504 47.7354L58.7311 44.2672Z" fill="#2F2E41"/>
<path d="M57.2629 43.3076C58.4155 43.3076 59.3499 42.3774 59.3499 41.23C59.3499 40.0825 58.4155 39.1523 57.2629 39.1523C56.1102 39.1523 55.1758 40.0825 55.1758 41.23C55.1758 42.3774 56.1102 43.3076 57.2629 43.3076Z" fill="#A0616A"/>
<path d="M55.6483 38.3151C55.7875 38.08 55.9892 37.8877 56.2313 37.7595C56.4733 37.6313 56.7463 37.5721 57.0199 37.5886C57.3062 37.6244 57.5855 37.7022 57.8488 37.8196L59.2132 38.3494C59.5663 38.4865 59.9529 38.6545 60.1061 38.9995C60.2483 39.3197 60.1422 39.6896 60.0348 40.023L59.5244 41.6079C59.4678 41.2492 59.3708 40.898 59.2351 40.5609C59.0972 40.2217 58.848 39.9388 58.5281 39.7585C58.1737 39.5775 57.756 39.5812 57.3581 39.6003C56.7947 39.6273 56.182 39.6986 55.7817 40.0943C55.5692 40.3189 55.4251 40.5991 55.3662 40.902C55.3083 41.2034 55.2791 41.5096 55.2791 41.8164C55.048 41.421 54.8534 41.0056 54.6976 40.5753C54.5694 40.2549 54.4964 39.9153 54.4815 39.5707C54.4681 39.2232 54.5839 38.883 54.8068 38.6152C54.92 38.4843 55.0676 38.3875 55.233 38.3357C55.3985 38.2838 55.5752 38.279 55.7432 38.3218L55.6483 38.3151Z" fill="#2F2E41"/>
<path d="M62.2468 46.0692C62.2272 45.999 62.1873 45.9362 62.1319 45.8886C62.0766 45.8409 62.0083 45.8106 61.9358 45.8014C61.931 45.7981 61.9259 45.7951 61.9207 45.7924L58.805 44.0543C58.716 44.0046 58.6113 43.9911 58.5125 44.0164C58.4138 44.0417 58.3286 44.1039 58.2747 44.1901L57.4226 45.5635L56.1391 44.2859L56.1187 44.2656C56.0529 44.2 55.9659 44.1596 55.8731 44.1516C55.7803 44.1435 55.6876 44.1682 55.6113 44.2214L53.0507 46.0064C53.0462 46.0064 53.0416 46.0079 53.0372 46.0079C52.9146 46.0282 52.8027 46.0896 52.7199 46.1818C52.6371 46.274 52.5884 46.3916 52.5817 46.5151L52.5156 47.8451H62.7413L62.2468 46.0692Z" fill="#6C63FF"/>
<path d="M67.9543 47.6403H65.9814C65.9814 47.5855 65.9596 47.5329 65.9206 47.4941C65.8817 47.4554 65.8288 47.4336 65.7738 47.4336H65.1508C65.0957 47.4336 65.0429 47.4554 65.0039 47.4941C64.965 47.5329 64.9431 47.5855 64.9431 47.6403H64.3201C64.3201 47.5855 64.2982 47.5329 64.2592 47.4941C64.2203 47.4554 64.1675 47.4336 64.1124 47.4336H63.4894C63.4343 47.4336 63.3815 47.4554 63.3425 47.4941C63.3036 47.5329 63.2817 47.5855 63.2817 47.6403H62.6587C62.6587 47.5855 62.6368 47.5329 62.5979 47.4941C62.5589 47.4554 62.5061 47.4336 62.451 47.4336H61.828C61.7729 47.4336 61.7201 47.4554 61.6812 47.4941C61.6422 47.5329 61.6203 47.5855 61.6203 47.6403H60.9973C60.9973 47.5855 60.9754 47.5329 60.9365 47.4941C60.8975 47.4554 60.8447 47.4336 60.7896 47.4336H60.1666C60.1115 47.4336 60.0587 47.4554 60.0198 47.4941C59.9808 47.5329 59.959 47.5855 59.9589 47.6403H59.3359C59.3359 47.5855 59.3141 47.5329 59.2751 47.4941C59.2362 47.4554 59.1833 47.4336 59.1283 47.4336H58.5052C58.4502 47.4336 58.3974 47.4554 58.3584 47.4941C58.3195 47.5329 58.2976 47.5855 58.2976 47.6403H57.6746C57.6746 47.5855 57.6527 47.5329 57.6137 47.4941C57.5748 47.4554 57.522 47.4336 57.4669 47.4336H56.8439C56.7888 47.4336 56.736 47.4554 56.697 47.4941C56.6581 47.5329 56.6362 47.5855 56.6362 47.6403H56.0132C56.0132 47.5855 55.9913 47.5329 55.9523 47.4941C55.9134 47.4554 55.8606 47.4336 55.8055 47.4336H55.1825C55.1274 47.4336 55.0746 47.4554 55.0356 47.4941C54.9967 47.5329 54.9748 47.5855 54.9748 47.6403H54.3518C54.3518 47.5855 54.3299 47.5329 54.291 47.4941C54.252 47.4554 54.1992 47.4336 54.1441 47.4336H53.5211C53.466 47.4336 53.4132 47.4554 53.3743 47.4941C53.3353 47.5329 53.3134 47.5855 53.3134 47.6403H52.6904C52.6904 47.5855 52.6685 47.5329 52.6296 47.4941C52.5907 47.4554 52.5378 47.4336 52.4827 47.4336H51.8597C51.8047 47.4336 51.7518 47.4554 51.7129 47.4941C51.6739 47.5329 51.6521 47.5855 51.6521 47.6403H51.029C51.029 47.5855 51.0072 47.5329 50.9682 47.4941C50.9293 47.4554 50.8765 47.4336 50.8214 47.4336H50.1984C50.1433 47.4336 50.0905 47.4554 50.0515 47.4941C50.0126 47.5329 49.9907 47.5855 49.9907 47.6403H49.3677C49.3677 47.5855 49.3458 47.5329 49.3068 47.4941C49.2679 47.4554 49.2151 47.4336 49.16 47.4336H48.537C48.4819 47.4336 48.4291 47.4554 48.3901 47.4941C48.3512 47.5329 48.3293 47.5855 48.3293 47.6403H46.3564C46.1914 47.6406 46.0331 47.706 45.9165 47.8223C45.7999 47.9386 45.7344 48.0962 45.7344 48.2605C45.7344 48.4248 45.7999 48.5825 45.9165 48.6987C46.0331 48.815 46.1914 48.8805 46.3564 48.8807H67.9543C68.1196 48.8807 68.278 48.8154 68.3949 48.6991C68.5117 48.5828 68.5773 48.425 68.5773 48.2605C68.5773 48.096 68.5117 47.9383 68.3949 47.822C68.278 47.7057 68.1196 47.6403 67.9543 47.6403Z" fill="#3F3D56"/>
<path d="M43.1426 44.0364V48.1545H32.7784C32.5007 48.1641 32.2239 48.118 31.9645 48.0188C31.7051 47.9197 31.4684 47.7696 31.2686 47.5774C31.0687 47.3853 30.9098 47.155 30.8012 46.9004C30.6927 46.6458 30.6367 46.372 30.6367 46.0955C30.6367 45.8189 30.6927 45.5451 30.8012 45.2905C30.9098 45.0359 31.0687 44.8056 31.2686 44.6135C31.4684 44.4213 31.7051 44.2712 31.9645 44.1721C32.2239 44.0729 32.5007 44.0268 32.7784 44.0364H43.1426Z" fill="#F2F2F2"/>
<path d="M43.3973 48.1189C43.3973 48.1609 43.3805 48.2012 43.3507 48.2309C43.3208 48.2606 43.2804 48.2773 43.2382 48.2773H32.5938C32.0157 48.2773 31.4613 48.0487 31.0525 47.6418C30.6437 47.2348 30.4141 46.6829 30.4141 46.1074C30.4141 45.5319 30.6437 44.98 31.0525 44.5731C31.4613 44.1661 32.0157 43.9375 32.5938 43.9375H43.2382C43.2804 43.9375 43.3208 43.9542 43.3507 43.9839C43.3805 44.0136 43.3973 44.0539 43.3973 44.0959C43.3973 44.1379 43.3805 44.1782 43.3507 44.2079C43.3208 44.2376 43.2804 44.2543 43.2382 44.2543H32.5938C32.1004 44.2547 31.6274 44.4502 31.2786 44.7976C30.9299 45.1451 30.7339 45.6162 30.7339 46.1074C30.7339 46.5986 30.9299 47.0697 31.2786 47.4172C31.6274 47.7647 32.1004 47.9601 32.5938 47.9606H43.2382C43.2804 47.9606 43.3208 47.9773 43.3507 48.007C43.3805 48.0367 43.3973 48.0769 43.3973 48.1189Z" fill="#6C63FF"/>
<path d="M43.1462 44.9856H32.0086C32.0044 44.9857 32.0002 44.9849 31.9964 44.9833C31.9925 44.9817 31.9889 44.9793 31.986 44.9764C31.983 44.9734 31.9806 44.9699 31.979 44.966C31.9774 44.9621 31.9766 44.958 31.9766 44.9538C31.9766 44.9496 31.9774 44.9454 31.979 44.9415C31.9806 44.9376 31.983 44.9341 31.986 44.9311C31.9889 44.9282 31.9925 44.9258 31.9964 44.9242C32.0002 44.9227 32.0044 44.9218 32.0086 44.9219H43.1462C43.1546 44.9219 43.1626 44.9253 43.1685 44.9313C43.1745 44.9373 43.1778 44.9453 43.1778 44.9538C43.1778 44.9622 43.1745 44.9702 43.1685 44.9762C43.1626 44.9822 43.1546 44.9856 43.1462 44.9856Z" fill="#CCCCCC"/>
<path d="M43.1462 45.7473H32.0086C32.0044 45.7474 32.0002 45.7466 31.9964 45.745C31.9925 45.7434 31.9889 45.741 31.986 45.7381C31.983 45.7351 31.9806 45.7316 31.979 45.7277C31.9774 45.7238 31.9766 45.7197 31.9766 45.7155C31.9766 45.7113 31.9774 45.7071 31.979 45.7032C31.9806 45.6993 31.983 45.6958 31.986 45.6929C31.9889 45.6899 31.9925 45.6875 31.9964 45.686C32.0002 45.6844 32.0044 45.6836 32.0086 45.6836H43.1462C43.1546 45.6837 43.1626 45.687 43.1685 45.693C43.1745 45.699 43.1778 45.7071 43.1778 45.7155C43.1778 45.7239 43.1745 45.732 43.1685 45.7379C43.1626 45.7439 43.1546 45.7473 43.1462 45.7473Z" fill="#CCCCCC"/>
<path d="M43.1462 46.5091H32.0086C32.0044 46.5091 32.0002 46.5083 31.9964 46.5067C31.9925 46.5051 31.9889 46.5028 31.986 46.4998C31.983 46.4968 31.9806 46.4933 31.979 46.4894C31.9774 46.4856 31.9766 46.4814 31.9766 46.4772C31.9766 46.473 31.9774 46.4688 31.979 46.4649C31.9806 46.4611 31.983 46.4575 31.986 46.4546C31.9889 46.4516 31.9925 46.4493 31.9964 46.4477C32.0002 46.4461 32.0044 46.4453 32.0086 46.4453H43.1462C43.1546 46.4454 43.1626 46.4488 43.1685 46.4547C43.1745 46.4607 43.1778 46.4688 43.1778 46.4772C43.1778 46.4856 43.1745 46.4937 43.1685 46.4996C43.1626 46.5056 43.1546 46.509 43.1462 46.5091Z" fill="#CCCCCC"/>
<path d="M43.1462 47.2669H32.0086C32.0044 47.2669 32.0002 47.2661 31.9964 47.2645C31.9925 47.2629 31.9889 47.2606 31.986 47.2576C31.983 47.2547 31.9806 47.2511 31.979 47.2472C31.9774 47.2434 31.9766 47.2392 31.9766 47.235C31.9766 47.2308 31.9774 47.2266 31.979 47.2228C31.9806 47.2189 31.983 47.2154 31.986 47.2124C31.9889 47.2094 31.9925 47.2071 31.9964 47.2055C32.0002 47.2039 32.0044 47.2031 32.0086 47.2031H43.1462C43.1546 47.2032 43.1626 47.2066 43.1685 47.2125C43.1745 47.2185 43.1778 47.2266 43.1778 47.235C43.1778 47.2434 43.1745 47.2515 43.1685 47.2575C43.1626 47.2634 43.1546 47.2668 43.1462 47.2669Z" fill="#CCCCCC"/>
<path d="M41.1895 39.6966V43.8147H30.8252C30.5475 43.8243 30.2708 43.7781 30.0114 43.679C29.752 43.5798 29.5153 43.4297 29.3155 43.2376C29.1156 43.0454 28.9567 42.8152 28.8481 42.5606C28.7395 42.306 28.6836 42.0322 28.6836 41.7556C28.6836 41.479 28.7395 41.2053 28.8481 40.9506C28.9567 40.696 29.1156 40.4658 29.3155 40.2736C29.5153 40.0815 29.752 39.9314 30.0114 39.8322C30.2708 39.7331 30.5475 39.6869 30.8252 39.6966H41.1895Z" fill="#F2F2F2"/>
<path d="M41.4481 43.783C41.4481 43.825 41.4313 43.8653 41.4015 43.895C41.3716 43.9247 41.3312 43.9414 41.289 43.9414H30.6446C30.3584 43.9414 30.0749 43.8853 29.8105 43.7762C29.546 43.6672 29.3057 43.5073 29.1033 43.3058C28.9009 43.1044 28.7403 42.8651 28.6308 42.6019C28.5212 42.3386 28.4648 42.0564 28.4648 41.7715C28.4648 41.4865 28.5212 41.2044 28.6308 40.9411C28.7403 40.6778 28.9009 40.4386 29.1033 40.2371C29.3057 40.0356 29.546 39.8758 29.8105 39.7667C30.0749 39.6577 30.3584 39.6016 30.6446 39.6016H41.289C41.3312 39.6016 41.3716 39.6183 41.4015 39.648C41.4313 39.6777 41.4481 39.7179 41.4481 39.76C41.4481 39.802 41.4313 39.8422 41.4015 39.8719C41.3716 39.9017 41.3312 39.9183 41.289 39.9183H30.6446C30.1512 39.9188 29.6781 40.1142 29.3294 40.4617C28.9806 40.8092 28.7847 41.2803 28.7847 41.7715C28.7847 42.2627 28.9806 42.7338 29.3294 43.0813C29.6781 43.4287 30.1512 43.6242 30.6446 43.6246H41.289C41.3312 43.6246 41.3716 43.6413 41.4015 43.671C41.4313 43.7007 41.4481 43.741 41.4481 43.783Z" fill="#3F3D56"/>
<path d="M41.1891 40.6497H30.0516C30.0474 40.6497 30.0432 40.6489 30.0393 40.6473C30.0354 40.6457 30.0319 40.6434 30.0289 40.6404C30.026 40.6375 30.0236 40.6339 30.022 40.6301C30.0204 40.6262 30.0195 40.622 30.0195 40.6178C30.0195 40.6136 30.0204 40.6094 30.022 40.6056C30.0236 40.6017 30.026 40.5982 30.0289 40.5952C30.0319 40.5922 30.0354 40.5899 30.0393 40.5883C30.0432 40.5867 30.0474 40.5859 30.0516 40.5859H41.1891C41.1975 40.586 41.2056 40.5894 41.2115 40.5954C41.2174 40.6013 41.2208 40.6094 41.2208 40.6178C41.2208 40.6262 41.2174 40.6343 41.2115 40.6403C41.2056 40.6462 41.1975 40.6496 41.1891 40.6497Z" fill="#CCCCCC"/>
<path d="M41.1891 41.4077H30.0516C30.0474 41.4078 30.0432 41.407 30.0393 41.4054C30.0354 41.4038 30.0319 41.4014 30.0289 41.3985C30.026 41.3955 30.0236 41.392 30.022 41.3881C30.0204 41.3842 30.0195 41.3801 30.0195 41.3759C30.0195 41.3717 30.0204 41.3675 30.022 41.3636C30.0236 41.3597 30.026 41.3562 30.0289 41.3533C30.0319 41.3503 30.0354 41.3479 30.0393 41.3464C30.0432 41.3448 30.0474 41.344 30.0516 41.344H41.1891C41.1975 41.3441 41.2056 41.3474 41.2115 41.3534C41.2174 41.3594 41.2208 41.3675 41.2208 41.3759C41.2208 41.3843 41.2174 41.3924 41.2115 41.3983C41.2056 41.4043 41.1975 41.4077 41.1891 41.4077Z" fill="#CCCCCC"/>
<path d="M41.1891 42.1692H30.0516C30.0474 42.1692 30.0432 42.1684 30.0393 42.1669C30.0354 42.1653 30.0319 42.1629 30.0289 42.16C30.026 42.157 30.0236 42.1535 30.022 42.1496C30.0204 42.1457 30.0195 42.1415 30.0195 42.1373C30.0195 42.1331 30.0204 42.129 30.022 42.1251C30.0236 42.1212 30.026 42.1177 30.0289 42.1147C30.0319 42.1118 30.0354 42.1094 30.0393 42.1078C30.0432 42.1062 30.0474 42.1054 30.0516 42.1055H41.1891C41.1975 42.1055 41.2056 42.1089 41.2115 42.1149C41.2174 42.1209 41.2208 42.1289 41.2208 42.1373C41.2208 42.1458 41.2174 42.1538 41.2115 42.1598C41.2056 42.1658 41.1975 42.1692 41.1891 42.1692Z" fill="#CCCCCC"/>
<path d="M41.1891 42.9309H30.0516C30.0474 42.931 30.0432 42.9302 30.0393 42.9286C30.0354 42.927 30.0319 42.9246 30.0289 42.9217C30.026 42.9187 30.0236 42.9152 30.022 42.9113C30.0204 42.9074 30.0195 42.9033 30.0195 42.8991C30.0195 42.8949 30.0204 42.8907 30.022 42.8868C30.0236 42.8829 30.026 42.8794 30.0289 42.8764C30.0319 42.8735 30.0354 42.8711 30.0393 42.8695C30.0432 42.868 30.0474 42.8672 30.0516 42.8672H41.1891C41.1975 42.8672 41.2056 42.8706 41.2115 42.8766C41.2174 42.8826 41.2208 42.8906 41.2208 42.8991C41.2208 42.9075 41.2174 42.9156 41.2115 42.9215C41.2056 42.9275 41.1975 42.9309 41.1891 42.9309Z" fill="#CCCCCC"/>
<path d="M53.2458 62.7906V59.2C53.2458 59.0413 53.1825 58.8891 53.0697 58.7768C52.957 58.6646 52.8041 58.6016 52.6446 58.6016H38.9683C38.8089 58.6016 38.656 58.6646 38.5433 58.7768C38.4305 58.8891 38.3672 59.0413 38.3672 59.2V62.7906H53.2458Z" fill="#CCCCCC"/>
<path d="M53.2458 64.1367H38.3672V68.7746H53.2458V64.1367Z" fill="#CCCCCC"/>
<path d="M38.3672 70.125V73.7156C38.3672 73.8743 38.4305 74.0265 38.5433 74.1388C38.656 74.251 38.8089 74.314 38.9683 74.3141H52.6446C52.8041 74.314 52.957 74.251 53.0697 74.1388C53.1825 74.0265 53.2458 73.8743 53.2458 73.7156V70.125H38.3672Z" fill="#CCCCCC"/>
<path d="M45.7321 61.2961C45.9811 61.2961 46.183 61.0951 46.183 60.8473C46.183 60.5994 45.9811 60.3984 45.7321 60.3984C45.4831 60.3984 45.2812 60.5994 45.2812 60.8473C45.2812 61.0951 45.4831 61.2961 45.7321 61.2961Z" fill="white"/>
<path d="M45.7321 67.2805C45.9811 67.2805 46.183 67.0795 46.183 66.8316C46.183 66.5838 45.9811 66.3828 45.7321 66.3828C45.4831 66.3828 45.2812 66.5838 45.2812 66.8316C45.2812 67.0795 45.4831 67.2805 45.7321 67.2805Z" fill="white"/>
<path d="M45.7556 73.1398C46.0046 73.1398 46.2064 72.9389 46.2064 72.691C46.2064 72.4431 46.0046 72.2422 45.7556 72.2422C45.5065 72.2422 45.3047 72.4431 45.3047 72.691C45.3047 72.9389 45.5065 73.1398 45.7556 73.1398Z" fill="white"/>
<path d="M51.5606 54.5091V58.6272H41.1963C40.9186 58.6368 40.6419 58.5906 40.3825 58.4915C40.1231 58.3924 39.8864 58.2422 39.6865 58.0501C39.4867 57.8579 39.3278 57.6277 39.2192 57.3731C39.1106 57.1185 39.0547 56.8447 39.0547 56.5681C39.0547 56.2915 39.1106 56.0178 39.2192 55.7631C39.3278 55.5085 39.4867 55.2783 39.6865 55.0861C39.8864 54.894 40.1231 54.7439 40.3825 54.6447C40.6419 54.5456 40.9186 54.4994 41.1963 54.5091H51.5606Z" fill="#F2F2F2"/>
<path d="M51.8171 58.5955C51.8171 58.6375 51.8003 58.6778 51.7705 58.7075C51.7406 58.7372 51.7002 58.7539 51.658 58.7539H41.0136C40.7272 58.7541 40.4436 58.6982 40.1789 58.5892C39.9142 58.4803 39.6737 58.3205 39.4711 58.119C39.2685 57.9175 39.1078 57.6782 38.9981 57.4148C38.8885 57.1514 38.832 56.8691 38.832 56.584C38.832 56.2989 38.8885 56.0166 38.9981 55.7532C39.1078 55.4898 39.2685 55.2505 39.4711 55.049C39.6737 54.8475 39.9142 54.6877 40.1789 54.5787C40.4436 54.4698 40.7272 54.4138 41.0136 54.4141H51.658C51.7002 54.4141 51.7406 54.4307 51.7705 54.4605C51.8003 54.4902 51.8171 54.5304 51.8171 54.5724C51.8171 54.6145 51.8003 54.6547 51.7705 54.6844C51.7406 54.7141 51.7002 54.7308 51.658 54.7308H41.0136C40.5202 54.7313 40.0471 54.9267 39.6984 55.2742C39.3496 55.6217 39.1537 56.0928 39.1537 56.584C39.1537 57.0752 39.3496 57.5463 39.6984 57.8938C40.0471 58.2412 40.5202 58.4367 41.0136 58.4371H51.658C51.7002 58.4371 51.7406 58.4538 51.7704 58.4835C51.8003 58.5132 51.8171 58.5535 51.8171 58.5955Z" fill="#3F3D56"/>
<path d="M51.5602 55.4622H40.4227C40.4185 55.4622 40.4143 55.4614 40.4104 55.4598C40.4065 55.4582 40.403 55.4559 40.4 55.4529C40.397 55.45 40.3947 55.4464 40.3931 55.4426C40.3915 55.4387 40.3906 55.4345 40.3906 55.4303C40.3906 55.4261 40.3915 55.4219 40.3931 55.4181C40.3947 55.4142 40.397 55.4107 40.4 55.4077C40.403 55.4047 40.4065 55.4024 40.4104 55.4008C40.4143 55.3992 40.4185 55.3984 40.4227 55.3984H51.5602C51.5686 55.3985 51.5767 55.4019 51.5826 55.4079C51.5885 55.4138 51.5918 55.4219 51.5918 55.4303C51.5918 55.4387 51.5885 55.4468 51.5826 55.4528C51.5767 55.4587 51.5686 55.4621 51.5602 55.4622Z" fill="#CCCCCC"/>
<path d="M51.5602 56.2161H40.4227C40.4185 56.2161 40.4143 56.2153 40.4104 56.2137C40.4065 56.2121 40.403 56.2098 40.4 56.2068C40.397 56.2039 40.3947 56.2003 40.3931 56.1965C40.3915 56.1926 40.3906 56.1884 40.3906 56.1842C40.3906 56.18 40.3915 56.1759 40.3931 56.172C40.3947 56.1681 40.397 56.1646 40.4 56.1616C40.403 56.1586 40.4065 56.1563 40.4104 56.1547C40.4143 56.1531 40.4185 56.1523 40.4227 56.1523H51.5602C51.5686 56.1524 51.5767 56.1558 51.5826 56.1618C51.5885 56.1677 51.5918 56.1758 51.5918 56.1842C51.5918 56.1926 51.5885 56.2007 51.5826 56.2067C51.5767 56.2126 51.5686 56.216 51.5602 56.2161Z" fill="#CCCCCC"/>
<path d="M51.5602 56.9778H40.4227C40.4185 56.9778 40.4143 56.977 40.4104 56.9755C40.4065 56.9739 40.403 56.9715 40.4 56.9685C40.397 56.9656 40.3947 56.9621 40.3931 56.9582C40.3915 56.9543 40.3906 56.9501 40.3906 56.9459C40.3906 56.9417 40.3915 56.9376 40.3931 56.9337C40.3947 56.9298 40.397 56.9263 40.4 56.9233C40.403 56.9204 40.4065 56.918 40.4104 56.9164C40.4143 56.9148 40.4185 56.914 40.4227 56.9141H51.5602C51.5686 56.9141 51.5767 56.9175 51.5826 56.9235C51.5885 56.9294 51.5918 56.9375 51.5918 56.9459C51.5918 56.9544 51.5885 56.9624 51.5826 56.9684C51.5767 56.9744 51.5686 56.9778 51.5602 56.9778Z" fill="#CCCCCC"/>
<path d="M51.5602 57.7395H40.4227C40.4185 57.7396 40.4143 57.7388 40.4104 57.7372C40.4065 57.7356 40.403 57.7332 40.4 57.7303C40.397 57.7273 40.3947 57.7238 40.3931 57.7199C40.3915 57.716 40.3906 57.7119 40.3906 57.7077C40.3906 57.7035 40.3915 57.6993 40.3931 57.6954C40.3947 57.6915 40.397 57.688 40.4 57.685C40.403 57.6821 40.4065 57.6797 40.4104 57.6781C40.4143 57.6766 40.4185 57.6758 40.4227 57.6758H51.5602C51.5686 57.6758 51.5767 57.6792 51.5826 57.6852C51.5885 57.6912 51.5918 57.6992 51.5918 57.7077C51.5918 57.7161 51.5885 57.7242 51.5826 57.7301C51.5767 57.7361 51.5686 57.7395 51.5602 57.7395Z" fill="#CCCCCC"/>
<path d="M37.5938 27.6317V1.37528C37.5941 1.07694 37.7133 0.790918 37.9252 0.579961C38.1371 0.369005 38.4244 0.250339 38.7241 0.25H59.5735C59.8732 0.250341 60.1605 0.369008 60.3724 0.579964C60.5844 0.790919 60.7036 1.07694 60.7039 1.37528V27.6317C60.7036 27.93 60.5844 28.216 60.3724 28.427C60.1605 28.6379 59.8732 28.7566 59.5735 28.7569H38.7241C38.4244 28.7566 38.1371 28.6379 37.9252 28.427C37.7133 28.216 37.5941 27.93 37.5938 27.6317ZM38.7241 0.500061C38.491 0.500321 38.2676 0.592615 38.1027 0.756693C37.9379 0.920771 37.8452 1.14323 37.8449 1.37528V27.6317C37.8452 27.8637 37.9379 28.0862 38.1027 28.2502C38.2676 28.4143 38.491 28.5066 38.7241 28.5069H59.5735C59.8066 28.5066 60.0301 28.4143 60.1949 28.2502C60.3597 28.0862 60.4524 27.8637 60.4527 27.6317V1.37528C60.4524 1.14323 60.3597 0.920771 60.1949 0.756693C60.0301 0.592615 59.8066 0.500322 59.5735 0.500061H38.7241Z" fill="#E6E6E6"/>
<path d="M50.3086 12.3094V6.91811C50.3088 6.76894 50.3684 6.62593 50.4743 6.52045C50.5803 6.41497 50.7239 6.35563 50.8738 6.35547H55.4632C55.613 6.35563 55.7567 6.41497 55.8626 6.52045C55.9686 6.62593 56.0282 6.76894 56.0284 6.91811V12.3094C56.0282 12.4585 55.9686 12.6016 55.8626 12.707C55.7567 12.8125 55.613 12.8718 55.4632 12.872H50.8738C50.7239 12.8718 50.5803 12.8125 50.4743 12.707C50.3684 12.6016 50.3088 12.4585 50.3086 12.3094Z" fill="#6C63FF"/>
<path d="M41.3945 14.8094V9.41811C41.3947 9.26894 41.4543 9.12592 41.5603 9.02044C41.6662 8.91496 41.8099 8.85563 41.9597 8.85547H46.5491C46.699 8.85563 46.8426 8.91496 46.9486 9.02044C47.0545 9.12592 47.1141 9.26894 47.1143 9.41811V14.8094C47.1141 14.9585 47.0545 15.1016 46.9486 15.207C46.8426 15.3125 46.699 15.3718 46.5491 15.372H41.9597C41.8099 15.3718 41.6662 15.3125 41.5603 15.207C41.4543 15.1015 41.3947 14.9585 41.3945 14.8094Z" fill="#CCCCCC"/>
<path d="M48.5547 22.4344V17.0431C48.5549 16.8939 48.6145 16.7509 48.7204 16.6454C48.8264 16.54 48.97 16.4806 49.1199 16.4805H53.7093C53.8591 16.4806 54.0028 16.54 54.1087 16.6454C54.2147 16.7509 54.2743 16.8939 54.2744 17.0431V22.4344C54.2743 22.5835 54.2147 22.7266 54.1087 22.832C54.0028 22.9375 53.8591 22.9968 53.7093 22.997H49.1199C48.97 22.9968 48.8264 22.9375 48.7204 22.832C48.6145 22.7266 48.5549 22.5835 48.5547 22.4344Z" fill="#FF6584"/>
<path d="M75.9761 47.0863H71.2541C71.2092 47.0863 71.165 47.0966 71.1248 47.1163L69.933 47.7102C69.8938 47.7268 69.8603 47.7545 69.8368 47.7899C69.8133 47.8253 69.8008 47.8668 69.8008 47.9092C69.8008 47.9516 69.8133 47.9931 69.8368 48.0285C69.8603 48.0639 69.8938 48.0916 69.933 48.1082L71.1248 48.7021C71.165 48.7218 71.2092 48.7321 71.2541 48.732H75.9761C76.0412 48.7358 76.1051 48.7139 76.1541 48.671C76.203 48.6282 76.2331 48.5679 76.2377 48.5031V47.3153C76.2331 47.2505 76.203 47.1902 76.1541 47.1474C76.1051 47.1045 76.0412 47.0826 75.9761 47.0863Z" fill="#3F3D56"/>
<path d="M76.2414 47.3153V48.5032C76.2368 48.5679 76.2068 48.6282 76.1578 48.671C76.1088 48.7139 76.0449 48.7358 75.9798 48.732H75.0391V47.0863H75.9798C76.0449 47.0826 76.1088 47.1045 76.1578 47.1474C76.2068 47.1902 76.2368 47.2505 76.2414 47.3153Z" fill="#6C63FF"/>
<path d="M75.9475 38.1972C76.1613 38.1053 76.3923 38.0595 76.6253 38.0627C76.8582 38.0658 77.0878 38.1179 77.2991 38.2156C77.5104 38.3133 77.6986 38.4543 77.8513 38.6294C78.004 38.8045 78.1178 39.0098 78.1853 39.2317C78.2064 39.3021 78.2224 39.3738 78.2335 39.4464L84.8369 42.7061L86.365 41.698L88.2665 43.8771L85.9331 45.7636C85.6525 45.9887 85.3064 46.1177 84.9463 46.1316C84.5862 46.1454 84.2312 46.0433 83.9341 45.8404L77.2343 41.2282C77.1844 41.2492 77.1335 41.2677 77.0818 41.2836C76.8588 41.3507 76.624 41.3702 76.3929 41.3407C76.1619 41.3112 75.9396 41.2335 75.7408 41.1126C75.542 40.9917 75.3711 40.8303 75.2394 40.639C75.1076 40.4478 75.0179 40.231 74.9761 40.0028C74.9638 39.9366 74.9556 39.8696 74.9517 39.8024C74.9331 39.4656 75.0186 39.1313 75.1966 38.8443C75.3746 38.5573 75.6367 38.3315 75.9475 38.1972Z" fill="#FFB8B8"/>
<path d="M89.6937 58.2656H82.4784C82.4784 58.4721 75.0421 58.6396 75.0421 58.6396C74.9253 58.7271 74.819 58.8275 74.725 58.9389C74.4425 59.2742 74.2881 59.6981 74.2891 60.1357V60.435C74.2892 60.9309 74.4872 61.4065 74.8395 61.7571C75.1918 62.1078 75.6695 62.3049 76.1677 62.3051H89.6937C90.1918 62.3046 90.6694 62.1075 91.0216 61.7569C91.3738 61.4062 91.5719 60.9308 91.5723 60.435V60.1357C91.5716 59.64 91.3735 59.1647 91.0213 58.8141C90.6691 58.4636 90.1917 58.2663 89.6937 58.2656Z" fill="#3F3D56"/>
<path d="M81.8509 74.7969H83.8047V62.2297H81.8509V74.7969Z" fill="#3F3D56"/>
<path d="M76.2891 74.7282C76.2891 74.9383 79.2497 74.8094 82.9018 74.8094C86.5539 74.8094 89.5145 74.9383 89.5145 74.7282C89.5145 74.518 86.5539 72.8516 82.9018 72.8516C79.2497 72.8516 76.2891 74.518 76.2891 74.7282Z" fill="#3F3D56"/>
<path d="M78.0511 73.2573L76.2087 73.2571L75.332 68.5L78.0514 68.5002L78.0511 73.2573Z" fill="#FFB8B8"/>
<path d="M78.5191 75.0332L72.5781 75.033V74.9582C72.5781 74.6559 72.6379 74.3565 72.7541 74.0773C72.8704 73.798 73.0407 73.5442 73.2554 73.3304C73.4701 73.1167 73.7251 72.9471 74.0056 72.8315C74.2862 72.7158 74.5869 72.6562 74.8905 72.6563H74.8907L78.5192 72.6564L78.5191 75.0332Z" fill="#2F2E41"/>
<path d="M75.2978 70.3044L71.6246 62.1047C71.3179 61.4136 71.284 60.6328 71.5296 59.918C71.7752 59.2031 72.2823 58.6065 72.9499 58.2472L80.9173 53.9941L84.5529 53.6863L87.9066 53.3828L87.9308 53.4236C87.9617 53.4756 88.6828 54.7154 88.1954 56.0749C87.8257 57.1061 86.864 57.9116 85.337 58.4689C81.773 59.7698 77.6559 60.8817 76.0512 61.2992C75.9803 61.3173 75.914 61.3501 75.8568 61.3955C75.7995 61.4408 75.7525 61.4978 75.7189 61.5625C75.6852 61.6265 75.6652 61.6967 75.6602 61.7688C75.6551 61.8409 75.665 61.9132 75.6894 61.9813L79.102 69.6135C79.1376 69.7103 79.1504 69.814 79.1395 69.9165C79.1285 70.019 79.094 70.1176 79.0387 70.2048C78.9834 70.2919 78.9087 70.3653 78.8204 70.4192C78.7321 70.473 78.6326 70.506 78.5295 70.5155L75.9796 70.7004C75.9579 70.7024 75.9364 70.7034 75.9149 70.7034C75.7843 70.7034 75.6566 70.6657 75.547 70.5949C75.4375 70.5241 75.3509 70.4232 75.2978 70.3044Z" fill="#2F2E41"/>
<path d="M78.9573 73.2573L77.1149 73.2571L76.2383 68.5L78.9576 68.5002L78.9573 73.2573Z" fill="#FFB8B8"/>
<path d="M79.4254 75.0332L73.4844 75.033V74.9582C73.4844 74.6559 73.5442 74.3565 73.6604 74.0773C73.7766 73.798 73.9469 73.5442 74.1617 73.3304C74.3764 73.1167 74.6313 72.9471 74.9119 72.8315C75.1924 72.7158 75.4931 72.6562 75.7968 72.6563H75.7969L79.4255 72.6564L79.4254 75.0332Z" fill="#2F2E41"/>
<path d="M76.3486 70.7575L72.6754 62.5578C72.3687 61.8667 72.3348 61.086 72.5804 60.3711C72.826 59.6562 73.3331 59.0597 74.0007 58.7003L81.9681 54.4472L85.6037 54.1394L88.9574 53.8359L88.9816 53.8767C89.0125 53.9287 89.7336 55.1685 89.2461 56.528C88.8764 57.5592 87.9147 58.3647 86.3878 58.9221C82.8238 60.223 78.7067 61.3348 77.102 61.7524C77.0311 61.7704 76.9648 61.8032 76.9075 61.8486C76.8503 61.894 76.8033 61.9509 76.7697 62.0156C76.736 62.0796 76.716 62.1499 76.7109 62.2219C76.7059 62.294 76.7158 62.3663 76.7402 62.4344L80.1527 70.0666C80.1884 70.1634 80.2012 70.2671 80.1902 70.3696C80.1793 70.4721 80.1448 70.5708 80.0895 70.6579C80.0342 70.7451 79.9595 70.8184 79.8712 70.8723C79.7829 70.9262 79.6834 70.9591 79.5802 70.9687L77.0304 71.1535C77.0087 71.1555 76.9872 71.1566 76.9657 71.1566C76.8351 71.1565 76.7073 71.1188 76.5978 71.048C76.4883 70.9772 76.4017 70.8763 76.3486 70.7575Z" fill="#2F2E41"/>
<path d="M74.5163 45.7071C72.9727 43.6633 71.7525 41.3963 70.898 38.9849C70.8485 38.8407 70.852 38.6837 70.9079 38.5418C70.9639 38.3999 71.0685 38.2823 71.2034 38.2101L76.4853 35.3927C76.5708 35.3468 76.6656 35.3208 76.7626 35.3169C76.8597 35.313 76.9563 35.3312 77.0452 35.3701C77.1358 35.4092 77.2162 35.4685 77.2803 35.5432C77.3444 35.618 77.3905 35.7063 77.4151 35.8015C78.0299 38.1252 79.1855 40.2722 80.7885 42.0688C80.8544 42.1419 80.9028 42.229 80.9298 42.3236C80.9569 42.4181 80.9619 42.5176 80.9445 42.6143C80.9278 42.7095 80.8894 42.7997 80.8324 42.878C80.7754 42.9562 80.7012 43.0205 80.6154 43.0659L75.3335 45.8832C75.1984 45.955 75.0421 45.9766 74.8924 45.9444C74.7428 45.9121 74.6095 45.8281 74.5163 45.7071Z" fill="#CCCCCC"/>
<path d="M74.8792 45.4379C74.9076 45.4732 74.9475 45.4976 74.992 45.5067C75.0365 45.5159 75.0828 45.5093 75.1229 45.4881L80.4049 42.6706C80.4306 42.6573 80.4528 42.6383 80.4698 42.615C80.4868 42.5917 80.4982 42.5648 80.503 42.5364C80.5085 42.5064 80.507 42.4756 80.4985 42.4463C80.49 42.4171 80.4748 42.3901 80.4542 42.3677C78.804 40.5182 77.6143 38.3079 76.9814 35.9158C76.9741 35.8862 76.96 35.8588 76.9403 35.8355C76.9205 35.8123 76.8956 35.7939 76.8675 35.7819C76.8411 35.7701 76.8122 35.7646 76.7833 35.7658C76.7543 35.767 76.726 35.7748 76.7006 35.7887L71.4188 38.6061C71.3788 38.6276 71.3476 38.6624 71.3306 38.7044C71.3136 38.7464 71.3118 38.7929 71.3256 38.8361C72.1649 41.2043 73.3633 43.4307 74.8792 45.4379Z" fill="white"/>
<path d="M92.0661 44.9569L87.9295 46.5217L86.9195 43.729C86.7854 43.3582 86.7873 42.9521 86.9249 42.5825C87.0624 42.2129 87.3268 41.9037 87.6713 41.7094C88.0197 41.5128 88.4273 41.4468 88.8204 41.5232C89.2135 41.5995 89.5662 41.8133 89.8148 42.1259L92.0661 44.9569Z" fill="#6C63FF"/>
<path d="M81.539 56.0217C81.4519 55.9604 81.379 55.8813 81.325 55.7898C81.271 55.6982 81.2372 55.5963 81.2259 55.4907C80.6961 50.5672 81.0651 46.7141 82.3539 43.7113C82.5809 43.1934 82.9229 42.7334 83.3542 42.366C83.7854 41.9986 84.2947 41.7332 84.8438 41.5899L88.1876 41.4219L88.2049 41.4302C88.9595 41.7981 89.5749 42.3983 89.9598 43.1418C90.3447 43.8852 90.4787 44.7324 90.3419 45.5577C89.2664 48.3798 88.3659 51.3181 89.0527 53.6884C89.0815 53.7875 89.0899 53.8913 89.0774 53.9937C89.0649 54.0961 89.0317 54.195 88.9799 54.2843C88.9297 54.3707 88.8623 54.4459 88.7817 54.5053C88.7012 54.5647 88.6093 54.6071 88.5117 54.6298L82.1427 56.138C82.0395 56.1624 81.9323 56.1647 81.8282 56.1446C81.7241 56.1246 81.6255 56.0827 81.539 56.0217Z" fill="#6C63FF"/>
<path d="M87.0741 40.1772C89.1127 40.1772 90.7653 38.5321 90.7653 36.5027C90.7653 34.4733 89.1127 32.8281 87.0741 32.8281C85.0354 32.8281 83.3828 34.4733 83.3828 36.5027C83.3828 38.5321 85.0354 40.1772 87.0741 40.1772Z" fill="#FFB8B8"/>
<path d="M76.8307 39.4104L73.9539 40.6745C73.8445 40.7224 73.7205 40.7252 73.609 40.6822C73.4976 40.6392 73.4078 40.5539 73.3594 40.4451L73.2882 40.2847C73.2401 40.1758 73.2373 40.0523 73.2805 39.9413C73.3237 39.8304 73.4093 39.741 73.5186 39.6928L76.3954 38.4287C76.5048 38.3808 76.6289 38.378 76.7403 38.421C76.8518 38.464 76.9416 38.5492 76.99 38.658L77.0611 38.8185C77.1093 38.9274 77.112 39.0509 77.0688 39.1619C77.0257 39.2728 76.94 39.3622 76.8307 39.4104Z" fill="#CCCCCC"/>
<path d="M77.8854 41.3557L75.0086 42.6198C74.8992 42.6677 74.7752 42.6705 74.6637 42.6275C74.5523 42.5845 74.4625 42.4993 74.4141 42.3904L74.3429 42.23C74.2948 42.1211 74.292 41.9976 74.3352 41.8866C74.3784 41.7757 74.464 41.6863 74.5733 41.6381L77.4501 40.374C77.5595 40.3261 77.6835 40.3233 77.795 40.3663C77.9065 40.4093 77.9962 40.4945 78.0446 40.6034L78.1158 40.7638C78.1639 40.8727 78.1667 40.9962 78.1235 41.1072C78.0803 41.2181 77.9947 41.3075 77.8854 41.3557Z" fill="#CCCCCC"/>
<path d="M80.1086 48.9576L73.6951 43.9209C73.644 43.9388 73.592 43.9541 73.5394 43.9666C73.313 44.0193 73.078 44.0241 72.8497 43.9805C72.6214 43.9369 72.4049 43.8459 72.2141 43.7136C72.0222 43.5811 71.8608 43.4094 71.7409 43.2099C71.621 43.0103 71.5453 42.7876 71.5188 42.5566C71.4758 42.1873 71.5594 41.8143 71.7561 41.4983C71.9528 41.1822 72.251 40.9416 72.6023 40.8154C72.8215 40.7371 73.055 40.7058 73.2872 40.7236C73.5195 40.7413 73.7454 40.8077 73.9501 40.9184C74.1548 41.0291 74.3336 41.1816 74.475 41.366C74.6164 41.5503 74.717 41.7622 74.7704 41.988C74.7869 42.0595 74.7984 42.1321 74.8048 42.2052L81.1893 45.8717L82.7781 44.9612L84.5381 47.255L82.0713 49.0053C81.7825 49.2085 81.4356 49.3136 81.082 49.305C80.7284 49.2964 80.3871 49.1746 80.1086 48.9576Z" fill="#FFB8B8"/>
<path d="M85.3117 47.9683L81.6523 45.4912L83.3721 43.0665C83.6004 42.7446 83.9358 42.5133 84.3188 42.4137C84.7019 42.314 85.108 42.3524 85.4654 42.5219C85.8269 42.6935 86.115 42.9881 86.2774 43.3525C86.4399 43.7169 86.4661 44.1272 86.3513 44.5091L85.3117 47.9683Z" fill="#6C63FF"/>
<path d="M85.7226 35.9558C84.7739 36.6022 83.5282 37.2666 82.5592 36.5783C81.923 36.1263 81.7225 35.2893 81.9805 34.5548C82.4445 33.234 83.7193 32.6525 84.9383 32.2068C86.523 31.6274 88.2485 31.1664 89.8844 31.5813C91.5204 31.9963 92.9662 33.5731 92.6709 35.2278C92.4334 36.5584 91.1725 37.6656 91.3515 39.0053C91.5317 40.3536 93.0549 41.0633 94.3996 41.3043C95.7443 41.5453 97.2491 41.6227 98.2155 42.5842C99.4484 43.8109 99.1405 46.0033 97.9805 47.2984C96.8204 48.5934 95.0698 49.1804 93.3735 49.5795C91.126 50.1083 88.6952 50.3862 86.5606 49.5086C84.4261 48.6311 82.765 46.269 83.3833 44.0539C83.6445 43.1183 84.2598 42.3276 84.8544 41.5578C85.4491 40.788 86.0512 39.983 86.278 39.0385C86.4671 38.2515 86.3272 37.3377 85.8028 36.7473C85.7075 36.644 85.6475 36.5132 85.6314 36.3738C85.6154 36.2344 85.6441 36.0935 85.7135 35.9714L85.7226 35.9558Z" fill="#2F2E41"/>
<path d="M16.3914 53.8093C15.4403 54.1421 14.419 54.2255 13.4261 54.0514C12.4332 53.8773 11.502 53.4515 10.7224 52.8152C8.73674 51.1561 8.11419 48.4229 7.60764 45.892C7.10822 43.3968 6.6088 40.9015 6.10938 38.4062L9.24615 40.5564C11.5019 42.1026 13.8085 43.6983 15.3704 45.938C16.9323 48.1776 17.6141 51.2349 16.3592 53.6583" fill="#E6E6E6"/>
<path d="M16.1258 62.8698C16.4432 60.5677 16.7697 58.236 16.547 55.9092C16.3492 53.8428 15.7159 51.8245 14.4266 50.1696C13.7422 49.2928 12.9095 48.5416 11.9658 47.9498C11.7197 47.7952 11.4932 48.1834 11.7382 48.3373C13.3711 49.3646 14.634 50.8816 15.345 52.6695C16.1302 54.6577 16.2563 56.825 16.121 58.9371C16.0392 60.2143 15.8658 61.4832 15.691 62.7505C15.6772 62.8078 15.6858 62.8682 15.715 62.9194C15.7443 62.9706 15.792 63.0089 15.8484 63.0265C15.9061 63.042 15.9675 63.0342 16.0194 63.0048C16.0714 62.9755 16.1096 62.927 16.1258 62.8698Z" fill="#F2F2F2"/>
<path d="M13.0669 58.7984C12.6589 59.4156 12.0982 59.9178 11.4387 60.2566C10.7792 60.5955 10.0431 60.7596 9.3014 60.733C7.39527 60.6429 5.80616 59.3186 4.37566 58.0613L0.144531 54.3424L2.94484 54.209C4.95865 54.1131 7.02442 54.0236 8.94251 54.6418C10.8606 55.26 12.6296 56.7478 12.9803 58.7242" fill="#E6E6E6"/>
<path d="M17.0165 64.1965C15.4884 61.5048 13.716 58.5134 10.5489 57.5573C9.66826 57.2923 8.74489 57.1974 7.82848 57.2776C7.53965 57.3024 7.61177 57.7456 7.90007 57.7209C9.43618 57.5939 10.9693 57.9977 12.2414 58.8642C13.4655 59.6937 14.4186 60.8468 15.2253 62.0697C15.7194 62.8187 16.162 63.5995 16.6047 64.3792C16.7461 64.6284 17.1596 64.4486 17.0165 64.1965Z" fill="#F2F2F2"/>
<path d="M19.4677 67.0306C19.4162 66.4367 19.202 65.8682 18.8485 65.3872C18.4949 64.9061 18.0155 64.5308 17.4625 64.3022V62.7461H14.8407V64.3512C14.3149 64.591 13.8624 64.9654 13.5293 65.4361C13.1962 65.9068 12.9945 66.457 12.9446 67.0306L12.3281 74.1645H20.0842L19.4677 67.0306Z" fill="#F2F2F2"/>
</g>
<defs>
<clipPath id="clip0_348_8976">
<rect width="104" height="78.1099" fill="white" transform="translate(0 0.305542)"/>
</clipPath>
</defs>
</svg>
