<svg width="325" height="260" viewBox="0 0 325 260" fill="none" xmlns="http://www.w3.org/2000/svg">
<path d="M162.766 240.755C134.635 240.755 108.09 231.998 86 215.429L86.6738 214.606C108.57 231.028 134.882 239.709 162.766 239.709C190.672 239.709 217.001 231.016 238.906 214.57L239.58 215.393C217.481 231.985 190.919 240.755 162.766 240.755Z" fill="#0E0E0E"/>
<path d="M281.879 200.989C283.521 201.091 284.429 199.07 283.187 197.892L283.063 197.405C283.079 197.366 283.096 197.327 283.112 197.288C284.772 193.366 290.4 193.393 292.046 197.321C293.507 200.808 295.368 204.301 295.826 207.987C296.031 209.615 295.939 211.273 295.574 212.87C298.998 205.46 300.8 197.368 300.8 189.231C300.8 187.187 300.687 185.142 300.456 183.103C300.266 181.435 300.004 179.777 299.665 178.134C297.833 169.254 293.865 160.797 288.141 153.733C285.39 152.243 283.096 149.913 281.71 147.121C281.212 146.114 280.822 145.031 280.637 143.927C280.95 143.968 281.817 139.243 281.581 138.954C282.018 138.298 282.799 137.971 283.275 137.331C285.645 134.148 288.911 134.703 290.616 139.03C294.257 140.851 294.293 143.871 292.058 146.775C290.636 148.623 290.441 151.124 289.194 153.102C289.322 153.265 289.456 153.423 289.584 153.585C291.937 156.576 293.973 159.79 295.688 163.167C295.203 159.414 295.919 154.893 297.14 151.978C298.529 148.657 301.134 145.861 303.427 142.99C306.181 139.542 311.83 141.047 312.315 145.418C312.32 145.46 312.325 145.502 312.329 145.545C311.988 145.735 311.655 145.937 311.329 146.151C309.469 147.369 310.112 150.225 312.315 150.562L312.365 150.569C312.242 151.785 312.031 152.99 311.723 154.175C314.665 165.447 308.314 169.553 299.245 169.738C299.044 169.839 298.849 169.941 298.649 170.038C299.568 172.601 300.302 175.23 300.846 177.895C301.334 180.25 301.673 182.63 301.863 185.02C302.099 188.036 302.078 191.067 301.821 194.078L301.837 193.971C302.489 190.655 304.306 187.558 306.944 185.412C310.875 182.213 316.428 181.035 320.668 178.464C322.71 177.226 325.325 178.825 324.969 181.17L324.952 181.282C324.32 181.536 323.704 181.831 323.109 182.162C322.768 182.352 322.434 182.555 322.109 182.768C320.249 183.987 320.892 186.842 323.095 187.179L323.145 187.187C323.181 187.192 323.212 187.197 323.247 187.202C322.164 189.75 320.655 192.115 318.766 194.154C316.927 203.994 309.026 204.928 300.574 202.062H300.569C299.645 206.05 298.295 209.945 296.56 213.658H282.238C282.187 213.5 282.141 213.337 282.095 213.18C283.419 213.261 284.754 213.185 286.057 212.946C284.995 211.654 283.932 210.352 282.87 209.06C282.844 209.035 282.823 209.01 282.803 208.984C282.264 208.323 281.72 207.667 281.181 207.006C281.147 204.976 281.393 202.952 281.879 200.989Z" fill="#21218D"/>
<path d="M268.391 207.497C269.239 207.554 269.707 206.41 269.066 205.743L269.002 205.467C269.011 205.445 269.019 205.423 269.028 205.401C269.885 203.18 272.789 203.196 273.639 205.42C274.393 207.394 275.353 209.372 275.589 211.459C275.695 212.38 275.648 213.319 275.46 214.223C277.227 210.028 278.157 205.447 278.157 200.839C278.157 199.682 278.098 198.524 277.979 197.37C277.881 196.425 277.746 195.486 277.571 194.556C276.625 189.529 274.577 184.74 271.623 180.741C270.203 179.897 269.019 178.578 268.304 176.997C268.047 176.427 267.845 175.814 267.75 175.189C267.912 175.212 268.359 172.537 268.237 172.373C268.463 172.001 268.866 171.817 269.112 171.454C270.335 169.652 272.021 169.966 272.9 172.416C274.78 173.447 274.798 175.157 273.645 176.802C272.911 177.848 272.81 179.263 272.166 180.384C272.233 180.476 272.302 180.565 272.368 180.657C273.582 182.35 274.633 184.17 275.519 186.082C275.268 183.957 275.638 181.397 276.268 179.747C276.985 177.867 278.329 176.284 279.513 174.658C280.934 172.706 283.85 173.558 284.1 176.033C284.103 176.057 284.105 176.081 284.107 176.105C283.931 176.212 283.759 176.327 283.591 176.448C282.631 177.138 282.963 178.755 284.1 178.945L284.126 178.95C284.062 179.638 283.954 180.32 283.795 180.991C285.313 187.373 282.035 189.698 277.354 189.802C277.251 189.86 277.15 189.917 277.047 189.972C277.521 191.423 277.9 192.912 278.181 194.421C278.432 195.754 278.607 197.102 278.705 198.455C278.827 200.163 278.816 201.879 278.684 203.583L278.692 203.523C279.028 201.646 279.966 199.892 281.328 198.677C283.357 196.866 286.223 196.199 288.411 194.743C289.465 194.042 290.815 194.948 290.631 196.275L290.622 196.339C290.296 196.483 289.978 196.65 289.671 196.837C289.495 196.945 289.323 197.059 289.155 197.18C288.195 197.87 288.527 199.487 289.664 199.677L289.689 199.682C289.708 199.685 289.724 199.688 289.742 199.69C289.183 201.133 288.405 202.472 287.43 203.627C286.48 209.198 282.402 209.727 278.04 208.104H278.038C277.561 210.362 276.864 212.567 275.968 214.669H268.577C268.55 214.58 268.526 214.488 268.502 214.399C269.186 214.445 269.875 214.402 270.548 214.266C269.999 213.535 269.451 212.798 268.902 212.066C268.889 212.052 268.879 212.038 268.868 212.023C268.59 211.649 268.309 211.277 268.031 210.903C268.013 209.754 268.14 208.608 268.391 207.497Z" fill="#20A497"/>
<path d="M28.6361 205.246C27.5457 205.314 26.9432 203.972 27.7681 203.19L27.8501 202.866C27.8393 202.84 27.8285 202.815 27.8175 202.789C26.7149 200.184 22.9779 200.202 21.8847 202.811C20.9143 205.126 19.6789 207.445 19.3747 209.894C19.2384 210.974 19.2997 212.075 19.5418 213.136C17.2681 208.215 16.0716 202.842 16.0716 197.438C16.0716 196.081 16.1466 194.723 16.3 193.369C16.4261 192.261 16.6 191.16 16.825 190.069C18.0419 184.172 20.6769 178.556 24.4777 173.865C26.3048 172.875 27.8285 171.329 28.7489 169.475C29.0795 168.806 29.3386 168.087 29.4613 167.354C29.2534 167.381 28.6773 164.243 28.8341 164.051C28.5443 163.615 28.0257 163.399 27.7092 162.973C26.1352 160.859 23.9667 161.228 22.8346 164.101C20.4163 165.311 20.3929 167.316 21.8768 169.245C22.8208 170.472 22.9505 172.132 23.7789 173.446C23.6936 173.554 23.605 173.659 23.5198 173.767C21.957 175.753 20.6054 177.887 19.466 180.13C19.788 177.638 19.3126 174.635 18.5021 172.7C17.5794 170.495 15.8501 168.638 14.3272 166.731C12.4979 164.441 8.7469 165.441 8.42463 168.343C8.42151 168.371 8.41848 168.4 8.41549 168.428C8.64169 168.554 8.8633 168.688 9.07976 168.83C10.3145 169.639 9.88775 171.536 8.42477 171.759L8.39164 171.764C8.47346 172.572 8.61322 173.372 8.81773 174.159C6.86404 181.644 11.0819 184.371 17.1045 184.493C17.2374 184.561 17.367 184.628 17.4999 184.693C16.8897 186.395 16.4022 188.141 16.0409 189.91C15.7171 191.474 15.4921 193.055 15.366 194.642C15.2092 196.645 15.2228 198.657 15.3933 200.657L15.383 200.586C14.9501 198.384 13.7434 196.327 11.9913 194.902C9.38116 192.778 5.69354 191.995 2.87767 190.288C1.52218 189.466 -0.214762 190.528 0.0218044 192.085L0.0333203 192.16C0.452595 192.328 0.861636 192.524 1.25706 192.744C1.48326 192.87 1.70486 193.005 1.92133 193.146C3.15604 193.956 2.72932 195.852 1.26633 196.076L1.23318 196.081C1.20932 196.084 1.18886 196.087 1.16504 196.091C1.88429 197.783 2.88645 199.353 4.14088 200.707C5.36246 207.242 10.6092 207.862 16.2216 205.959H16.225C16.8386 208.607 17.7351 211.194 18.8873 213.659H28.3978C28.4319 213.555 28.4625 213.446 28.4932 213.342C27.6137 213.396 26.7275 213.345 25.8616 213.186C26.5672 212.329 27.2728 211.464 27.9785 210.606C27.9955 210.589 28.0092 210.572 28.0228 210.556C28.3807 210.117 28.742 209.681 29.1 209.242C29.1224 207.894 28.9592 206.55 28.6361 205.246Z" fill="#2C9205"/>
<path d="M60.3108 199.853C58.51 199.965 57.5148 197.748 58.8772 196.456L59.0127 195.923C58.9949 195.88 58.977 195.837 58.9589 195.794C57.1378 191.492 50.9659 191.522 49.1602 195.831C47.5576 199.655 45.5172 203.485 45.0148 207.529C44.7896 209.314 44.8909 211.132 45.2907 212.883C41.5355 204.756 39.5594 195.882 39.5594 186.958C39.5594 184.715 39.6833 182.473 39.9366 180.236C40.1449 178.407 40.4321 176.588 40.8037 174.787C42.8135 165.048 47.1655 155.772 53.4428 148.024C56.4605 146.39 58.977 143.835 60.4971 140.773C61.0432 139.669 61.4711 138.48 61.6738 137.27C61.3303 137.315 60.3788 132.133 60.6379 131.815C60.1593 131.095 59.3027 130.738 58.78 130.036C56.1804 126.544 52.5989 127.153 50.7292 131.899C46.735 133.896 46.6964 137.208 49.1471 140.394C50.7064 142.42 50.9206 145.163 52.2887 147.332C52.1479 147.511 52.0015 147.684 51.8608 147.862C49.2797 151.142 47.0474 154.668 45.1655 158.371C45.6974 154.255 44.9122 149.296 43.5735 146.1C42.0497 142.458 39.1935 139.39 36.6783 136.242C33.6572 132.46 27.462 134.11 26.9297 138.905C26.9245 138.951 26.9195 138.997 26.9146 139.044C27.2882 139.253 27.6542 139.474 28.0117 139.709C30.0509 141.045 29.3462 144.177 26.9299 144.546L26.8752 144.555C27.0103 145.888 27.2412 147.21 27.5789 148.509C24.3522 160.872 31.3184 165.375 41.2652 165.578C41.4848 165.689 41.6988 165.801 41.9184 165.907C40.9106 168.718 40.1055 171.602 39.5087 174.525C38.9739 177.107 38.6023 179.717 38.394 182.339C38.135 185.647 38.1576 188.971 38.4391 192.273L38.4222 192.156C37.7072 188.519 35.7142 185.122 32.8204 182.769C28.5095 179.26 22.419 177.968 17.7684 175.148C15.5297 173.79 12.6609 175.545 13.0516 178.116L13.0707 178.239C13.7631 178.518 14.4387 178.842 15.0918 179.204C15.4654 179.413 15.8314 179.635 16.1889 179.869C18.2281 181.205 17.5234 184.337 15.1071 184.707L15.0523 184.715C15.0129 184.721 14.9791 184.726 14.9398 184.732C16.1277 187.526 17.7829 190.12 19.8547 192.357C21.8722 203.149 30.5377 204.173 39.8071 201.03H39.8128C40.8261 205.404 42.3068 209.676 44.2098 213.748H59.9172C59.9735 213.575 60.0242 213.397 60.0749 213.224C58.6223 213.313 57.1586 213.229 55.7285 212.967C56.8939 211.55 58.0593 210.122 59.2247 208.706C59.2529 208.678 59.2754 208.65 59.2979 208.622C59.8891 207.897 60.4858 207.177 61.077 206.452C61.114 204.226 60.8445 202.006 60.3108 199.853Z" fill="#2C9205"/>
<path d="M79.5048 214.973L79.0612 215.488C61.7394 200.851 51.8047 179.529 51.8047 156.989C51.8047 136.458 59.8745 117.155 74.5274 102.638C89.1805 88.1202 108.663 80.125 129.387 80.125C150.11 80.125 169.593 88.1202 184.246 102.638C198.899 117.155 206.968 136.458 206.968 156.989C206.968 179.529 197.034 200.851 179.712 215.488L179.268 214.973" fill="#FF9303"/>
<path d="M249.321 214.674L248.636 213.878C275.15 191.476 290.356 158.84 290.356 124.34C290.356 59.4676 237.086 6.69031 171.608 6.69031C106.13 6.69031 52.8602 59.4676 52.8602 124.34C52.8602 158.84 68.0663 191.476 94.5796 213.878L93.8947 214.674C67.146 192.072 51.8047 159.146 51.8047 124.34C51.8047 92.6342 64.2662 62.8271 86.8935 40.4088C109.521 17.9908 139.606 5.64453 171.608 5.64453C203.609 5.64453 233.695 17.9908 256.322 40.4088C278.95 62.8271 291.411 92.6342 291.411 124.34C291.411 159.146 276.07 192.072 249.321 214.674Z" fill="#0E0E0E"/>
<path d="M208.461 214.462C208.461 214.807 208.741 215.084 209.089 215.084H324.295C324.644 215.084 324.923 214.807 324.923 214.462C324.923 214.117 324.644 213.84 324.295 213.84H209.089C208.741 213.84 208.461 214.117 208.461 214.462Z" fill="#502651"/>
<path d="M0.136719 225.402C0.136719 225.005 0.772647 224.686 1.56454 224.686H263.466C264.258 224.686 264.894 225.005 264.894 225.402C264.894 225.798 264.258 226.117 263.466 226.117H1.56454C0.772647 226.117 0.136719 225.798 0.136719 225.402Z" fill="#502651"/>
<path d="M172.138 6.16406H171.082V42.4534H172.138V6.16406Z" fill="#0E0E0E"/>
<path d="M89.6434 122.617H53.0156V123.663H89.6434V122.617Z" fill="#0E0E0E"/>
<path d="M93.4116 35.0145L92.5938 35.6758L115.753 63.7904L116.571 63.1291L93.4116 35.0145Z" fill="#0E0E0E"/>
<path d="M103.661 171.384L75.2891 194.336L75.9565 195.146L104.328 172.194L103.661 171.384Z" fill="#0E0E0E"/>
<path d="M290.194 122.617H253.566V123.663H290.194V122.617Z" fill="#0E0E0E"/>
<path d="M249.802 35.0206L226.645 63.1367L227.462 63.798L250.62 35.6819L249.802 35.0206Z" fill="#0E0E0E"/>
<path d="M239.558 171.389L238.891 172.199L267.268 195.144L267.935 194.334L239.558 171.389Z" fill="#0E0E0E"/>
<path d="M171.613 135.321C179.775 135.321 186.391 128.766 186.391 120.68C186.391 112.594 179.775 106.039 171.613 106.039C163.452 106.039 156.836 112.594 156.836 120.68C156.836 128.766 163.452 135.321 171.613 135.321Z" fill="#0E0E0E"/>
<path d="M239.692 176.63C242.607 176.63 244.969 174.289 244.969 171.401C244.969 168.513 242.607 166.172 239.692 166.172C236.777 166.172 234.414 168.513 234.414 171.401C234.414 174.289 236.777 176.63 239.692 176.63Z" fill="#0E0E0E"/>
<path d="M251.309 129.571C254.224 129.571 256.587 127.23 256.587 124.342C256.587 121.454 254.224 119.113 251.309 119.113C248.394 119.113 246.031 121.454 246.031 124.342C246.031 127.23 248.394 129.571 251.309 129.571Z" fill="#0E0E0E"/>
<path d="M225.969 68.907C228.884 68.907 231.247 66.5659 231.247 63.6781C231.247 60.7903 228.884 58.4492 225.969 58.4492C223.054 58.4492 220.691 60.7903 220.691 63.6781C220.691 66.5659 223.054 68.907 225.969 68.907Z" fill="#0E0E0E"/>
<path d="M171.078 49.0437C173.993 49.0437 176.356 46.7026 176.356 43.8148C176.356 40.927 173.993 38.5859 171.078 38.5859C168.164 38.5859 165.801 40.927 165.801 43.8148C165.801 46.7026 168.164 49.0437 171.078 49.0437Z" fill="#0E0E0E"/>
<path d="M116.719 68.907C119.634 68.907 121.997 66.5659 121.997 63.6781C121.997 60.7903 119.634 58.4492 116.719 58.4492C113.804 58.4492 111.441 60.7903 111.441 63.6781C111.441 66.5659 113.804 68.907 116.719 68.907Z" fill="#0E0E0E"/>
<path d="M89.805 128.001C92.7198 128.001 95.0827 125.66 95.0827 122.772C95.0827 119.884 92.7198 117.543 89.805 117.543C86.8902 117.543 84.5273 119.884 84.5273 122.772C84.5273 125.66 86.8902 128.001 89.805 128.001Z" fill="#0E0E0E"/>
<path d="M104.586 176.102C107.501 176.102 109.864 173.761 109.864 170.873C109.864 167.986 107.501 165.645 104.586 165.645C101.671 165.645 99.3086 167.986 99.3086 170.873C99.3086 173.761 101.671 176.102 104.586 176.102Z" fill="#0E0E0E"/>
<path d="M142.625 126.973C145.54 126.973 147.903 124.632 147.903 121.744C147.903 118.857 145.54 116.516 142.625 116.516C139.711 116.516 137.348 118.857 137.348 121.744C137.348 124.632 139.711 126.973 142.625 126.973Z" fill="#0E0E0E"/>
<path d="M264.43 112.706L146.32 117.745C144.281 117.832 142.7 119.54 142.788 121.559L142.788 121.559C142.876 123.579 144.599 125.145 146.638 125.058L264.748 120.019C266.787 119.932 268.368 118.225 268.28 116.205C268.192 114.185 266.469 112.619 264.43 112.706Z" fill="#C8E1F5"/>
<path d="M212.185 255.023L206.03 255.023L203.102 231.5L212.186 231.501L212.185 255.023Z" fill="#A0616A"/>
<path d="M191.094 254.888C190.902 255.208 190.801 256.24 190.801 256.612C190.801 257.755 191.736 258.682 192.89 258.682H211.952C212.739 258.682 213.377 258.05 213.377 257.27V256.484C213.377 256.484 214.32 254.12 212.379 251.208C212.379 251.208 209.966 253.488 206.36 249.916L205.297 248.008L197.601 253.585L193.334 254.105C192.401 254.219 191.574 254.087 191.094 254.888Z" fill="#2F2E41"/>
<path d="M244.587 255.023L238.432 255.023L235.504 231.5L244.589 231.501L244.587 255.023Z" fill="#A0616A"/>
<path d="M223.496 254.888C223.304 255.208 223.203 256.24 223.203 256.612C223.203 257.755 224.138 258.682 225.292 258.682H244.355C245.142 258.682 245.78 258.05 245.78 257.27V256.484C245.78 256.484 246.723 254.12 244.781 251.208C244.781 251.208 242.368 253.488 238.763 249.916L237.699 248.008L230.003 253.585L225.737 254.105C224.803 254.219 223.976 254.087 223.496 254.888Z" fill="#2F2E41"/>
<path d="M258.9 65.6725L259.552 93.2986L253.517 118.163L247.898 116.313L249.535 93.6622L248.095 63.1406L258.9 65.6725Z" fill="#A0616A"/>
<path d="M253.648 122.128C254.17 118.565 252.861 115.428 250.726 115.121C248.591 114.815 246.437 117.455 245.916 121.018C245.395 124.58 246.704 127.717 248.839 128.024C250.974 128.33 253.127 125.691 253.648 122.128Z" fill="#A0616A"/>
<path d="M244.703 40.6797C244.703 40.6797 255.059 40.6564 256.807 46.6681C258.626 52.919 261.526 76.233 260.272 76.2344L247.343 77.8533L244.703 40.6797Z" fill="#FF6884"/>
<path d="M204.685 68.6108L198.978 95.66L187.394 118.513L182.348 115.446L189.14 93.7573L197.91 63.7109L204.685 68.6108Z" fill="#A0616A"/>
<path d="M186.596 122.41C187.921 119.058 187.367 115.708 185.358 114.929C183.349 114.149 180.647 116.235 179.321 119.587C177.996 122.939 178.55 126.288 180.559 127.068C182.568 127.847 185.271 125.762 186.596 122.41Z" fill="#A0616A"/>
<path d="M202.837 41.7852C202.837 41.7852 208.5 44.2871 210.083 50.3437C211.523 55.8529 215.084 80.0965 204.621 78.9585L191.427 77.9127C191.333 65.0456 196.94 52.9138 202.837 41.7852Z" fill="#FF6884"/>
<path d="M201.162 120.674L199.051 139.498L200.106 192.392L202.217 241.984H213.384L225.967 151.525L234.129 241.984H247.094L250.772 180.806C250.772 180.806 253.411 123.812 248.661 119.106C243.911 114.4 201.162 120.674 201.162 120.674Z" fill="#180540"/>
<path d="M236.258 31.0042H218.969L215.148 36.233C215.148 36.233 207.759 37.2788 203.009 41.9848L202.481 92.1819L199.051 125.006L250.768 123.555L247.605 105.516L249.712 42.2009C249.712 42.2009 244.175 35.7101 240.481 36.7559L236.258 31.0042Z" fill="#FF6884"/>
<path d="M223.226 28.2082C230.37 28.2082 236.162 22.4699 236.162 15.3912C236.162 8.31259 230.37 2.57422 223.226 2.57422C216.081 2.57422 210.289 8.31259 210.289 15.3912C210.289 22.4699 216.081 28.2082 223.226 28.2082Z" fill="#A0616A"/>
<path d="M234.337 3.45508C232.89 2.1923 230.904 1.46534 229.009 1.59418C227.86 1.67227 226.744 1.31437 225.725 0.784696C225.656 0.748836 225.585 0.716187 225.514 0.686932C224.871 0.42369 224.156 0.394194 223.461 0.410895C222.193 0.441353 220.694 -0.818245 219.701 0.928589C215.944 0.227534 215.597 2.39078 213.848 3.66552C213.353 3.37599 210.148 3.90344 209.811 4.42437C209.554 4.82108 209.376 5.22525 209.255 5.61772C209.177 5.86947 209.646 6.78799 209.611 7.02505C209.575 7.26212 209.035 6.81773 209.03 7.02999C209.019 7.59816 209.098 8.05935 209.166 8.31656C209.337 8.97302 207.578 8.13201 207.001 8.49628C206.423 8.86058 207.012 10.5461 206.447 10.9294C205.774 11.3867 206.22 11.8922 206.807 12.4899C207.212 12.9018 207.683 13.3576 207.902 13.8715C208.437 15.1313 205.497 16.2476 206.85 15.9814C208.246 15.7066 208.702 17.8602 209.877 17.0635C212.535 15.2612 212.439 15.4091 214.759 17.6229C215.403 18.2376 216.668 15.8303 217.52 16.1005C219.125 16.6096 220.436 18.3157 221.496 20.8948C221.646 21.2598 220.224 27.2153 220.159 27.604C220.006 28.5096 224.262 26.4661 224.251 27.4539C224.236 28.7575 226.575 27.1143 227.248 28.2568C227.333 28.1527 232.077 26.015 232.305 25.849L235.592 22.7009C237.747 19.0473 238.57 14.6409 237.877 10.4653C237.44 7.83542 236.356 5.21657 234.337 3.45508Z" fill="#2F2E41"/>
<path d="M170.988 258.907C170.988 259.253 171.268 259.53 171.616 259.53H286.823C287.171 259.53 287.451 259.253 287.451 258.907C287.451 258.562 287.171 258.285 286.823 258.285H171.616C171.268 258.285 170.988 258.562 170.988 258.907Z" fill="#502651"/>
<path d="M0.136719 213.954C0.136719 214.351 0.617959 214.669 1.21723 214.669H199.413C200.012 214.669 200.494 214.351 200.494 213.954C200.494 213.557 200.012 213.238 199.413 213.238H1.21723C0.617959 213.238 0.136719 213.557 0.136719 213.954Z" fill="#502651"/>
</svg>
